<svg width="26" height="27" viewBox="0 0 26 27" fill="none" xmlns="http://www.w3.org/2000/svg">
<path d="M12.9084 26.25C5.87519 26.25 0.158447 20.5333 0.158447 13.5C0.158447 6.46674 5.87519 0.75 12.9084 0.75C19.9417 0.75 25.6584 6.46674 25.6584 13.5C25.6584 20.5333 19.9417 26.25 12.9084 26.25ZM12.9084 2.52907C6.85961 2.52907 1.93752 7.45116 1.93752 13.5C1.93752 19.5488 6.85961 24.4709 12.9084 24.4709C18.9573 24.4709 23.8794 19.5488 23.8794 13.5C23.8794 7.45116 18.9573 2.52907 12.9084 2.52907Z" fill="#0156FF"/>
<path d="M17.6526 14.3895H8.16419C7.67791 14.3895 7.27466 13.9863 7.27466 13.5C7.27466 13.0137 7.67791 12.6105 8.16419 12.6105H17.6526C18.1388 12.6105 18.5421 13.0137 18.5421 13.5C18.5421 13.9863 18.1388 14.3895 17.6526 14.3895Z" fill="#0156FF"/>
<path d="M12.9083 19.1337C12.4221 19.1337 12.0188 18.7305 12.0188 18.2442V8.75581C12.0188 8.26953 12.4221 7.86627 12.9083 7.86627C13.3946 7.86627 13.7979 8.26953 13.7979 8.75581V18.2442C13.7979 18.7305 13.3946 19.1337 12.9083 19.1337Z" fill="#0156FF"/>
</svg>
