<svg width="23" height="29" viewBox="0 0 23 29" fill="none" xmlns="http://www.w3.org/2000/svg">
<path d="M11.9974 3.20524C7.8846 3.20524 4.54218 6.54766 4.54218 10.6605V14.2514C4.54218 15.0093 4.21913 16.1649 3.83394 16.811L2.40503 19.1842C1.52283 20.6504 2.13167 22.2781 3.74696 22.8249C9.10229 24.6141 14.8801 24.6141 20.2354 22.8249C21.7389 22.3278 22.3974 20.551 21.5774 19.1842L20.1485 16.811C19.7757 16.1649 19.4526 15.0093 19.4526 14.2514V10.6605C19.4526 6.56009 16.0978 3.20524 11.9974 3.20524Z" stroke="white" stroke-width="2.09502" stroke-miterlimit="10" stroke-linecap="round"/>
<path d="M14.2961 3.56561C13.9109 3.45379 13.5133 3.36681 13.1033 3.31711C11.9104 3.168 10.7673 3.25498 9.69873 3.56561C10.0591 2.64614 10.9537 2.00002 11.9974 2.00002C13.0411 2.00002 13.9358 2.64614 14.2961 3.56561Z" stroke="white" stroke-width="2.09502" stroke-miterlimit="10" stroke-linecap="round" stroke-linejoin="round"/>
<path d="M15.725 23.2724C15.725 25.3226 14.0475 27 11.9974 27C10.9785 27 10.0341 26.5776 9.36321 25.9066C8.69224 25.2356 8.26978 24.2913 8.26978 23.2724" stroke="white" stroke-width="2.09502" stroke-miterlimit="10"/>
</svg>
