<svg width="16" height="16" viewBox="0 0 16 16" fill="none" xmlns="http://www.w3.org/2000/svg">
<path d="M15.1053 0.276611H0.894475C0.552719 0.276611 0.276611 0.552719 0.276611 0.894475V15.1053C0.276611 15.4471 0.552719 15.7232 0.894475 15.7232H15.1053C15.4471 15.7232 15.7232 15.4471 15.7232 15.1053V0.894475C15.7232 0.552719 15.4471 0.276611 15.1053 0.276611ZM13.3213 4.78508H12.0875C11.1201 4.78508 10.9328 5.24462 10.9328 5.92041V7.40907H13.2421L12.9409 9.73957H10.9328V15.7232H8.52509V9.74151H6.51124V7.40907H8.52509V5.69064C8.52509 3.6961 9.74344 2.60905 11.5237 2.60905C12.3771 2.60905 13.1089 2.67276 13.3232 2.70173V4.78508H13.3213Z" fill="white"/>
</svg>
