<svg width="1480" height="207" viewBox="0 0 1480 207" fill="none" xmlns="http://www.w3.org/2000/svg">
<rect width="1479.23" height="206.25" fill="#050E12"/>
<path d="M674.473 95.5553C674.31 95.1423 674.059 94.7673 673.737 94.4545C673.415 94.1416 673.03 93.8978 672.606 93.7388C672.021 93.5281 671.404 93.4168 670.781 93.4096C669.745 93.3637 669.434 93.3522 666.809 93.3522C664.184 93.3522 663.874 93.3637 662.837 93.4096C662.214 93.4165 661.596 93.5279 661.011 93.7388C660.587 93.8983 660.201 94.1424 659.88 94.4556C659.559 94.7688 659.308 95.144 659.145 95.5572C658.928 96.126 658.814 96.7268 658.807 97.3334C658.76 98.3421 658.748 98.6446 658.748 101.2C658.748 103.755 658.76 104.058 658.807 105.066C658.814 105.673 658.928 106.275 659.145 106.844C659.309 107.257 659.56 107.632 659.881 107.945C660.203 108.258 660.588 108.502 661.013 108.661C661.597 108.872 662.214 108.983 662.837 108.99C663.874 109.036 664.184 109.046 666.809 109.046C669.434 109.046 669.745 109.036 670.781 108.988C671.405 108.982 672.022 108.871 672.608 108.661C673.032 108.501 673.417 108.257 673.738 107.944C674.06 107.631 674.31 107.256 674.473 106.842C674.69 106.274 674.804 105.673 674.812 105.066C674.859 104.058 674.869 103.755 674.869 101.2C674.869 98.6446 674.859 98.3421 674.81 97.3334C674.803 96.7263 674.689 96.1248 674.473 95.5553ZM666.809 106.115C665.811 106.115 664.834 105.827 664.004 105.287C663.174 104.747 662.526 103.979 662.144 103.081C661.762 102.183 661.662 101.194 661.857 100.241C662.052 99.2874 662.533 98.4116 663.239 97.7242C663.945 97.0368 664.845 96.5686 665.824 96.379C666.804 96.1893 667.819 96.2866 668.741 96.6587C669.664 97.0307 670.453 97.6607 671.007 98.469C671.562 99.2773 671.858 100.228 671.858 101.2C671.858 102.503 671.326 103.754 670.38 104.675C669.433 105.597 668.148 106.115 666.809 106.115ZM672.057 97.2396C671.824 97.2396 671.596 97.1723 671.402 97.0461C671.208 96.9199 671.056 96.7405 670.967 96.5307C670.878 96.3208 670.854 96.0899 670.9 95.8671C670.945 95.6444 671.058 95.4397 671.223 95.2791C671.388 95.1185 671.598 95.0091 671.827 94.9648C672.056 94.9205 672.293 94.9433 672.508 95.0302C672.724 95.1171 672.908 95.2643 673.038 95.4532C673.168 95.642 673.237 95.8641 673.237 96.0912C673.237 96.3958 673.112 96.6879 672.891 96.9033C672.67 97.1186 672.37 97.2396 672.057 97.2396ZM670.087 101.2C670.087 101.831 669.895 102.448 669.534 102.973C669.174 103.497 668.662 103.906 668.063 104.148C667.465 104.389 666.806 104.452 666.17 104.329C665.534 104.206 664.95 103.902 664.492 103.456C664.033 103.01 663.721 102.441 663.594 101.822C663.468 101.203 663.533 100.562 663.781 99.9788C664.029 99.3957 664.449 98.8974 664.988 98.5468C665.527 98.1962 666.161 98.0091 666.809 98.0091C667.678 98.0091 668.512 98.3452 669.127 98.9436C669.742 99.542 670.087 100.354 670.087 101.2ZM666.809 82.8248C663.076 82.8248 659.427 83.9025 656.322 85.9216C653.218 87.9406 650.799 90.8104 649.37 94.168C647.942 97.5256 647.568 101.22 648.296 104.785C649.025 108.349 650.822 111.623 653.462 114.193C656.102 116.763 659.465 118.513 663.127 119.222C666.788 119.931 670.583 119.567 674.033 118.176C677.482 116.785 680.43 114.43 682.504 111.408C684.578 108.387 685.685 104.834 685.685 101.2C685.685 96.3265 683.696 91.6527 680.156 88.2067C676.616 84.7608 671.815 82.8248 666.809 82.8248ZM676.581 105.145C676.565 105.939 676.41 106.725 676.123 107.468C675.871 108.104 675.484 108.681 674.989 109.163C674.494 109.645 673.901 110.021 673.249 110.267C672.485 110.545 671.679 110.696 670.864 110.713C669.814 110.759 669.479 110.77 666.809 110.77C664.139 110.77 663.805 110.759 662.755 110.713C661.94 110.696 661.133 110.545 660.37 110.267C659.717 110.021 659.124 109.645 658.629 109.163C658.134 108.681 657.748 108.104 657.495 107.468C657.209 106.725 657.054 105.94 657.037 105.147C656.99 104.125 656.978 103.799 656.978 101.2C656.978 98.6005 656.99 98.2751 657.037 97.253C657.053 96.4596 657.208 95.6745 657.493 94.9313C657.746 94.2951 658.132 93.7174 658.628 93.2351C659.123 92.7529 659.716 92.3768 660.37 92.131C661.133 91.8529 661.94 91.7027 662.755 91.6869C663.805 91.641 664.139 91.6295 666.809 91.6295C669.479 91.6295 669.814 91.641 670.864 91.6869C671.679 91.7027 672.485 91.8529 673.249 92.131C673.902 92.377 674.495 92.7532 674.99 93.2354C675.485 93.7177 675.871 94.2953 676.123 94.9313C676.409 95.6744 676.564 96.4595 676.581 97.253C676.628 98.2751 676.64 98.6005 676.64 101.2C676.64 103.799 676.628 104.123 676.581 105.145Z" fill="#3A0F12"/>
<path d="M782.759 101.312C782.759 91.0992 774.311 82.8248 763.883 82.8248C753.456 82.8248 745.008 91.0992 745.008 101.312C745.008 110.539 751.91 118.187 760.934 119.575V106.656H756.139V101.312H760.934V97.2386C760.934 92.6057 763.75 90.0466 768.063 90.0466C770.129 90.0466 772.289 90.4074 772.289 90.4074V94.9546H769.908C767.564 94.9546 766.833 96.3798 766.833 97.8416V101.312H772.068L771.23 106.656H766.833V119.575C775.856 118.187 782.759 110.539 782.759 101.312Z" fill="#3A0F12"/>
<path d="M811.627 82.8248C814.243 82.8248 816.694 83.3078 818.979 84.2738C821.264 85.2397 823.264 86.5496 824.978 88.2034C826.692 89.8572 828.045 91.7965 829.037 94.0211C830.029 96.2457 830.526 98.6313 830.526 101.178C830.526 103.724 830.029 106.11 829.037 108.335C828.045 110.559 826.692 112.506 824.978 114.174C823.264 115.843 821.264 117.16 818.979 118.126C816.694 119.092 814.243 119.575 811.627 119.575C809.011 119.575 806.561 119.092 804.276 118.126C801.99 117.16 799.998 115.843 798.3 114.174C796.601 112.506 795.255 110.559 794.263 108.335C793.271 106.11 792.774 103.724 792.774 101.178C792.774 98.6313 793.271 96.2457 794.263 94.0211C795.255 91.7965 796.601 89.8572 798.3 88.2034C799.998 86.5496 801.99 85.2397 804.276 84.2738C806.561 83.3078 809.011 82.8248 811.627 82.8248ZM821.009 97.2263C821.881 96.5823 822.648 95.8066 823.309 94.8992C822.888 95.0748 822.46 95.2212 822.024 95.3383C821.588 95.4554 821.129 95.5432 820.648 95.6017C821.129 95.309 821.55 94.9504 821.911 94.526C822.272 94.1016 822.527 93.6405 822.678 93.1429C822.227 93.3771 821.761 93.5893 821.279 93.7796C820.798 93.9698 820.302 94.1089 819.791 94.1967C819.37 93.7869 818.874 93.4503 818.303 93.1868C817.731 92.9234 817.1 92.7917 816.408 92.7917C815.777 92.7917 815.183 92.9088 814.627 93.1429C814.071 93.3771 813.589 93.6991 813.184 94.1089C812.778 94.5187 812.454 94.9943 812.214 95.5359C811.973 96.0774 811.853 96.6555 811.853 97.2702C811.853 97.4458 811.86 97.6214 811.876 97.7971C811.891 97.9727 811.913 98.1337 811.943 98.28C810.049 98.1922 808.29 97.7385 806.666 96.9189C805.042 96.0993 803.659 95.0017 802.517 93.6259C802.096 94.2991 801.885 95.0456 801.885 95.8652C801.885 96.6262 802.073 97.336 802.449 97.9946C802.825 98.6532 803.313 99.1874 803.915 99.5972C803.133 99.5387 802.441 99.3484 801.84 99.0264V99.0703C801.84 100.183 802.193 101.141 802.9 101.946C803.607 102.751 804.486 103.256 805.539 103.461C805.328 103.52 805.125 103.563 804.93 103.593C804.734 103.622 804.531 103.637 804.321 103.637C804.17 103.637 804.028 103.629 803.892 103.615C803.757 103.6 803.614 103.578 803.464 103.549C803.765 104.427 804.298 105.159 805.065 105.744C805.832 106.33 806.726 106.622 807.749 106.622C806.967 107.237 806.087 107.713 805.11 108.049C804.133 108.386 803.118 108.554 802.066 108.554C801.855 108.554 801.66 108.547 801.479 108.532C801.299 108.518 801.118 108.496 800.938 108.466C801.96 109.11 803.065 109.608 804.253 109.959C805.441 110.31 806.681 110.486 807.974 110.486C810.079 110.486 811.943 110.098 813.567 109.323C815.191 108.547 816.551 107.552 817.649 106.337C818.746 105.122 819.581 103.761 820.152 102.254C820.723 100.746 821.009 99.2606 821.009 97.7971V97.2263Z" fill="#3A0F12"/>
<path d="M718.498 100.88L714.082 98.8742C713.697 98.7001 713.38 98.8953 713.38 99.3106V103.089C713.38 103.504 713.697 103.7 714.082 103.525L718.496 101.519C718.883 101.343 718.883 101.056 718.498 100.88ZM715.346 82.8248C704.921 82.8248 696.471 91.0515 696.471 101.2C696.471 111.348 704.921 119.575 715.346 119.575C725.771 119.575 734.222 111.348 734.222 101.2C734.222 91.0515 725.771 82.8248 715.346 82.8248ZM715.346 108.665C705.684 108.665 705.515 107.817 705.515 101.2C705.515 94.5829 705.684 93.735 715.346 93.735C725.008 93.735 725.177 94.5829 725.177 101.2C725.177 107.817 725.008 108.665 715.346 108.665Z" fill="#3A0F12"/>
<path d="M668.467 149.736V162.75H666.334V154.344C666.334 154.008 666.352 153.645 666.388 153.255L662.455 160.644C662.269 160.998 661.984 161.175 661.6 161.175H661.258C660.874 161.175 660.589 160.998 660.403 160.644L656.425 153.228C656.443 153.426 656.458 153.621 656.47 153.813C656.482 154.005 656.488 154.182 656.488 154.344V162.75H654.355V149.736H656.182C656.29 149.736 656.383 149.739 656.461 149.745C656.539 149.751 656.608 149.766 656.668 149.79C656.734 149.814 656.791 149.853 656.839 149.907C656.893 149.961 656.944 150.033 656.992 150.123L660.889 157.35C660.991 157.542 661.084 157.74 661.168 157.944C661.258 158.148 661.345 158.358 661.429 158.574C661.513 158.352 661.6 158.139 661.69 157.935C661.78 157.725 661.876 157.524 661.978 157.332L665.821 150.123C665.869 150.033 665.92 149.961 665.974 149.907C666.028 149.853 666.085 149.814 666.145 149.79C666.211 149.766 666.283 149.751 666.361 149.745C666.439 149.739 666.532 149.736 666.64 149.736H668.467ZM673.8 151.662V155.271H678.354V157.134H673.8V160.815H679.578V162.75H671.37V149.736H679.578V151.662H673.8ZM692.695 149.736V162.75H691.453C691.261 162.75 691.099 162.72 690.967 162.66C690.841 162.594 690.718 162.486 690.598 162.336L683.803 153.66C683.839 154.056 683.857 154.422 683.857 154.758V162.75H681.724V149.736H682.993C683.095 149.736 683.182 149.742 683.254 149.754C683.332 149.76 683.398 149.778 683.452 149.808C683.512 149.832 683.569 149.871 683.623 149.925C683.677 149.973 683.737 150.039 683.803 150.123L690.625 158.835C690.607 158.625 690.592 158.418 690.58 158.214C690.568 158.01 690.562 157.821 690.562 157.647V149.736H692.695ZM704.683 151.725H700.759V162.75H698.338V151.725H694.414V149.736H704.683V151.725ZM708.816 162.75H706.386V149.736H708.816V162.75ZM724.141 156.243C724.141 157.197 723.982 158.082 723.664 158.898C723.352 159.708 722.908 160.41 722.332 161.004C721.756 161.598 721.063 162.063 720.253 162.399C719.443 162.729 718.543 162.894 717.553 162.894C716.569 162.894 715.672 162.729 714.862 162.399C714.052 162.063 713.356 161.598 712.774 161.004C712.198 160.41 711.751 159.708 711.433 158.898C711.115 158.082 710.956 157.197 710.956 156.243C710.956 155.289 711.115 154.407 711.433 153.597C711.751 152.781 712.198 152.076 712.774 151.482C713.356 150.888 714.052 150.426 714.862 150.096C715.672 149.76 716.569 149.592 717.553 149.592C718.213 149.592 718.834 149.67 719.416 149.826C719.998 149.976 720.532 150.192 721.018 150.474C721.504 150.75 721.939 151.089 722.323 151.491C722.713 151.887 723.043 152.331 723.313 152.823C723.583 153.315 723.787 153.849 723.925 154.425C724.069 155.001 724.141 155.607 724.141 156.243ZM721.666 156.243C721.666 155.529 721.57 154.89 721.378 154.326C721.186 153.756 720.913 153.273 720.559 152.877C720.205 152.481 719.773 152.178 719.263 151.968C718.759 151.758 718.189 151.653 717.553 151.653C716.917 151.653 716.344 151.758 715.834 151.968C715.33 152.178 714.898 152.481 714.538 152.877C714.184 153.273 713.911 153.756 713.719 154.326C713.527 154.89 713.431 155.529 713.431 156.243C713.431 156.957 713.527 157.599 713.719 158.169C713.911 158.733 714.184 159.213 714.538 159.609C714.898 159.999 715.33 160.299 715.834 160.509C716.344 160.719 716.917 160.824 717.553 160.824C718.189 160.824 718.759 160.719 719.263 160.509C719.773 160.299 720.205 159.999 720.559 159.609C720.913 159.213 721.186 158.733 721.378 158.169C721.57 157.599 721.666 156.957 721.666 156.243ZM737.238 149.736V162.75H735.996C735.804 162.75 735.642 162.72 735.51 162.66C735.384 162.594 735.261 162.486 735.141 162.336L728.346 153.66C728.382 154.056 728.4 154.422 728.4 154.758V162.75H726.267V149.736H727.536C727.638 149.736 727.725 149.742 727.797 149.754C727.875 149.76 727.941 149.778 727.995 149.808C728.055 149.832 728.112 149.871 728.166 149.925C728.22 149.973 728.28 150.039 728.346 150.123L735.168 158.835C735.15 158.625 735.135 158.418 735.123 158.214C735.111 158.01 735.105 157.821 735.105 157.647V149.736H737.238ZM747.066 152.103C746.994 152.229 746.916 152.322 746.832 152.382C746.754 152.436 746.655 152.463 746.535 152.463C746.409 152.463 746.271 152.418 746.121 152.328C745.977 152.232 745.803 152.127 745.599 152.013C745.395 151.899 745.155 151.797 744.879 151.707C744.609 151.611 744.288 151.563 743.916 151.563C743.58 151.563 743.286 151.605 743.034 151.689C742.782 151.767 742.569 151.878 742.395 152.022C742.227 152.166 742.101 152.34 742.017 152.544C741.933 152.742 741.891 152.961 741.891 153.201C741.891 153.507 741.975 153.762 742.143 153.966C742.317 154.17 742.545 154.344 742.827 154.488C743.109 154.632 743.43 154.761 743.79 154.875C744.15 154.989 744.519 155.112 744.897 155.244C745.275 155.37 745.644 155.52 746.004 155.694C746.364 155.862 746.685 156.078 746.967 156.342C747.249 156.6 747.474 156.918 747.642 157.296C747.816 157.674 747.903 158.133 747.903 158.673C747.903 159.261 747.801 159.813 747.597 160.329C747.399 160.839 747.105 161.286 746.715 161.67C746.331 162.048 745.86 162.348 745.302 162.57C744.744 162.786 744.105 162.894 743.385 162.894C742.971 162.894 742.563 162.852 742.161 162.768C741.759 162.69 741.372 162.576 741 162.426C740.634 162.276 740.289 162.096 739.965 161.886C739.641 161.676 739.353 161.442 739.101 161.184L739.812 160.023C739.872 159.939 739.95 159.87 740.046 159.816C740.142 159.756 740.244 159.726 740.352 159.726C740.502 159.726 740.664 159.789 740.838 159.915C741.012 160.035 741.219 160.17 741.459 160.32C741.699 160.47 741.978 160.608 742.296 160.734C742.62 160.854 743.007 160.914 743.457 160.914C744.147 160.914 744.681 160.752 745.059 160.428C745.437 160.098 745.626 159.627 745.626 159.015C745.626 158.673 745.539 158.394 745.365 158.178C745.197 157.962 744.972 157.782 744.69 157.638C744.408 157.488 744.087 157.362 743.727 157.26C743.367 157.158 743.001 157.047 742.629 156.927C742.257 156.807 741.891 156.663 741.531 156.495C741.171 156.327 740.85 156.108 740.568 155.838C740.286 155.568 740.058 155.232 739.884 154.83C739.716 154.422 739.632 153.921 739.632 153.327C739.632 152.853 739.725 152.391 739.911 151.941C740.103 151.491 740.379 151.092 740.739 150.744C741.099 150.396 741.543 150.117 742.071 149.907C742.599 149.697 743.205 149.592 743.889 149.592C744.657 149.592 745.365 149.712 746.013 149.952C746.661 150.192 747.213 150.528 747.669 150.96L747.066 152.103ZM762.015 160.752V162.75H754.392V149.736H756.813V160.752H762.015ZM766.173 151.662V155.271H770.727V157.134H766.173V160.815H771.951V162.75H763.743V149.736H771.951V151.662H766.173ZM784.544 156.225V161.49C783.884 161.976 783.179 162.333 782.429 162.561C781.685 162.783 780.887 162.894 780.035 162.894C778.973 162.894 778.01 162.729 777.146 162.399C776.288 162.069 775.553 161.61 774.941 161.022C774.335 160.434 773.867 159.732 773.537 158.916C773.207 158.1 773.042 157.209 773.042 156.243C773.042 155.265 773.201 154.368 773.519 153.552C773.837 152.736 774.287 152.034 774.869 151.446C775.457 150.858 776.168 150.402 777.002 150.078C777.836 149.754 778.772 149.592 779.81 149.592C780.338 149.592 780.83 149.634 781.286 149.718C781.748 149.802 782.174 149.919 782.564 150.069C782.96 150.213 783.32 150.39 783.644 150.6C783.968 150.81 784.265 151.041 784.535 151.293L783.842 152.391C783.734 152.565 783.593 152.673 783.419 152.715C783.245 152.751 783.056 152.706 782.852 152.58C782.654 152.466 782.456 152.352 782.258 152.238C782.06 152.124 781.838 152.025 781.592 151.941C781.352 151.857 781.079 151.788 780.773 151.734C780.473 151.68 780.125 151.653 779.729 151.653C779.087 151.653 778.505 151.761 777.983 151.977C777.467 152.193 777.026 152.502 776.66 152.904C776.294 153.306 776.012 153.789 775.814 154.353C775.616 154.917 775.517 155.547 775.517 156.243C775.517 156.987 775.622 157.653 775.832 158.241C776.048 158.823 776.348 159.318 776.732 159.726C777.122 160.128 777.59 160.437 778.136 160.653C778.682 160.863 779.291 160.968 779.963 160.968C780.443 160.968 780.872 160.917 781.25 160.815C781.628 160.713 781.997 160.575 782.357 160.401V158.043H780.719C780.563 158.043 780.44 158.001 780.35 157.917C780.266 157.827 780.224 157.719 780.224 157.593V156.225H784.544ZM793.594 157.836L792.01 153.507C791.932 153.315 791.851 153.087 791.767 152.823C791.683 152.559 791.599 152.274 791.515 151.968C791.437 152.274 791.356 152.562 791.272 152.832C791.188 153.096 791.107 153.327 791.029 153.525L789.454 157.836H793.594ZM797.869 162.75H795.997C795.787 162.75 795.616 162.699 795.484 162.597C795.352 162.489 795.253 162.357 795.187 162.201L794.215 159.546H788.824L787.852 162.201C787.804 162.339 787.711 162.465 787.573 162.579C787.435 162.693 787.264 162.75 787.06 162.75H785.17L790.291 149.736H792.757L797.869 162.75ZM806.839 160.752V162.75H799.216V149.736H801.637V160.752H806.839ZM810.998 151.662V155.271H815.552V157.134H810.998V160.815H816.776V162.75H808.568V149.736H816.776V151.662H810.998ZM825.851 152.103C825.779 152.229 825.701 152.322 825.617 152.382C825.539 152.436 825.44 152.463 825.32 152.463C825.194 152.463 825.056 152.418 824.906 152.328C824.762 152.232 824.588 152.127 824.384 152.013C824.18 151.899 823.94 151.797 823.664 151.707C823.394 151.611 823.073 151.563 822.701 151.563C822.365 151.563 822.071 151.605 821.819 151.689C821.567 151.767 821.354 151.878 821.18 152.022C821.012 152.166 820.886 152.34 820.802 152.544C820.718 152.742 820.676 152.961 820.676 153.201C820.676 153.507 820.76 153.762 820.928 153.966C821.102 154.17 821.33 154.344 821.612 154.488C821.894 154.632 822.215 154.761 822.575 154.875C822.935 154.989 823.304 155.112 823.682 155.244C824.06 155.37 824.429 155.52 824.789 155.694C825.149 155.862 825.47 156.078 825.752 156.342C826.034 156.6 826.259 156.918 826.427 157.296C826.601 157.674 826.688 158.133 826.688 158.673C826.688 159.261 826.586 159.813 826.382 160.329C826.184 160.839 825.89 161.286 825.5 161.67C825.116 162.048 824.645 162.348 824.087 162.57C823.529 162.786 822.89 162.894 822.17 162.894C821.756 162.894 821.348 162.852 820.946 162.768C820.544 162.69 820.157 162.576 819.785 162.426C819.419 162.276 819.074 162.096 818.75 161.886C818.426 161.676 818.138 161.442 817.886 161.184L818.597 160.023C818.657 159.939 818.735 159.87 818.831 159.816C818.927 159.756 819.029 159.726 819.137 159.726C819.287 159.726 819.449 159.789 819.623 159.915C819.797 160.035 820.004 160.17 820.244 160.32C820.484 160.47 820.763 160.608 821.081 160.734C821.405 160.854 821.792 160.914 822.242 160.914C822.932 160.914 823.466 160.752 823.844 160.428C824.222 160.098 824.411 159.627 824.411 159.015C824.411 158.673 824.324 158.394 824.15 158.178C823.982 157.962 823.757 157.782 823.475 157.638C823.193 157.488 822.872 157.362 822.512 157.26C822.152 157.158 821.786 157.047 821.414 156.927C821.042 156.807 820.676 156.663 820.316 156.495C819.956 156.327 819.635 156.108 819.353 155.838C819.071 155.568 818.843 155.232 818.669 154.83C818.501 154.422 818.417 153.921 818.417 153.327C818.417 152.853 818.51 152.391 818.696 151.941C818.888 151.491 819.164 151.092 819.524 150.744C819.884 150.396 820.328 150.117 820.856 149.907C821.384 149.697 821.99 149.592 822.674 149.592C823.442 149.592 824.15 149.712 824.798 149.952C825.446 150.192 825.998 150.528 826.454 150.96L825.851 152.103Z" fill="white"/>
<path d="M604.255 39.816C604.607 39.816 604.919 39.952 605.191 40.224L607.735 42.984C606.327 44.728 604.591 46.064 602.527 46.992C600.479 47.92 598.015 48.384 595.135 48.384C592.559 48.384 590.239 47.944 588.175 47.064C586.127 46.184 584.375 44.96 582.919 43.392C581.463 41.824 580.343 39.952 579.559 37.776C578.791 35.6 578.407 33.224 578.407 30.648C578.407 28.04 578.823 25.656 579.655 23.496C580.487 21.32 581.655 19.448 583.159 17.88C584.679 16.312 586.487 15.096 588.583 14.232C590.679 13.352 592.999 12.912 595.543 12.912C598.071 12.912 600.311 13.328 602.263 14.16C604.231 14.992 605.903 16.08 607.279 17.424L605.119 20.424C604.991 20.616 604.823 20.784 604.615 20.928C604.423 21.072 604.151 21.144 603.799 21.144C603.559 21.144 603.311 21.08 603.055 20.952C602.799 20.808 602.519 20.64 602.215 20.448C601.911 20.24 601.559 20.016 601.159 19.776C600.759 19.536 600.295 19.32 599.767 19.128C599.239 18.92 598.623 18.752 597.919 18.624C597.231 18.48 596.431 18.408 595.519 18.408C593.967 18.408 592.543 18.688 591.247 19.248C589.967 19.792 588.863 20.592 587.935 21.648C587.007 22.688 586.287 23.968 585.775 25.488C585.263 26.992 585.007 28.712 585.007 30.648C585.007 32.6 585.279 34.336 585.823 35.856C586.383 37.376 587.135 38.656 588.079 39.696C589.023 40.736 590.135 41.536 591.415 42.096C592.695 42.64 594.071 42.912 595.543 42.912C596.423 42.912 597.215 42.864 597.919 42.768C598.639 42.672 599.295 42.52 599.887 42.312C600.495 42.104 601.063 41.84 601.591 41.52C602.135 41.184 602.671 40.776 603.199 40.296C603.359 40.152 603.527 40.04 603.703 39.96C603.879 39.864 604.063 39.816 604.255 39.816ZM618.638 48H612.158V13.296H618.638V48ZM655.664 13.296V48H652.352C651.84 48 651.408 47.92 651.056 47.76C650.72 47.584 650.392 47.296 650.072 46.896L631.952 23.76C632.048 24.816 632.096 25.792 632.096 26.688V48H626.408V13.296H629.792C630.064 13.296 630.296 13.312 630.488 13.344C630.696 13.36 630.872 13.408 631.016 13.488C631.176 13.552 631.328 13.656 631.472 13.8C631.616 13.928 631.776 14.104 631.952 14.328L650.144 37.56C650.096 37 650.056 36.448 650.024 35.904C649.992 35.36 649.976 34.856 649.976 34.392V13.296H655.664ZM669.872 18.432V28.056H682.016V33.024H669.872V42.84H685.28V48H663.392V13.296H685.28V18.432H669.872ZM810.831 13.296L796.815 48H790.983L776.967 13.296H782.151C782.711 13.296 783.167 13.432 783.519 13.704C783.871 13.976 784.135 14.328 784.311 14.76L792.495 35.928C792.767 36.616 793.023 37.376 793.263 38.208C793.519 39.024 793.759 39.88 793.983 40.776C794.175 39.88 794.383 39.024 794.607 38.208C794.831 37.376 795.079 36.616 795.351 35.928L803.487 14.76C803.615 14.392 803.863 14.056 804.231 13.752C804.615 13.448 805.079 13.296 805.623 13.296H810.831ZM820.903 18.432V28.056H833.047V33.024H820.903V42.84H836.311V48H814.423V13.296H836.311V18.432H820.903ZM852.521 29.808C853.737 29.808 854.793 29.656 855.689 29.352C856.601 29.048 857.345 28.632 857.921 28.104C858.513 27.56 858.953 26.92 859.241 26.184C859.529 25.448 859.673 24.64 859.673 23.76C859.673 22 859.089 20.648 857.921 19.704C856.769 18.76 855.001 18.288 852.617 18.288H848.489V29.808H852.521ZM869.129 48H863.297C862.193 48 861.393 47.568 860.897 46.704L853.601 35.592C853.329 35.176 853.025 34.88 852.689 34.704C852.369 34.528 851.889 34.44 851.249 34.44H848.489V48H842.033V13.296H852.617C854.969 13.296 856.985 13.544 858.665 14.04C860.361 14.52 861.745 15.2 862.817 16.08C863.905 16.96 864.705 18.016 865.217 19.248C865.729 20.464 865.985 21.808 865.985 23.28C865.985 24.448 865.809 25.552 865.457 26.592C865.121 27.632 864.625 28.576 863.969 29.424C863.329 30.272 862.529 31.016 861.569 31.656C860.625 32.296 859.545 32.8 858.329 33.168C858.745 33.408 859.129 33.696 859.481 34.032C859.833 34.352 860.153 34.736 860.441 35.184L869.129 48ZM948.738 34.08H939.426V43.968H934.602V34.08H925.338V29.688H934.602V19.848H939.426V29.688H948.738V34.08Z" fill="white"/>
<path d="M729.834 13.032V48H722.682V27.888C722.682 27.424 722.69 26.92 722.706 26.376C722.738 25.832 722.786 25.28 722.85 24.72L713.562 42.696C713.274 43.256 712.882 43.68 712.386 43.968C711.906 44.256 711.354 44.4 710.73 44.4H709.626C709.002 44.4 708.442 44.256 707.946 43.968C707.466 43.68 707.082 43.256 706.794 42.696L697.506 24.672C697.554 25.248 697.594 25.816 697.626 26.376C697.658 26.92 697.674 27.424 697.674 27.888V48H690.522V13.032H696.714C697.066 13.032 697.37 13.04 697.626 13.056C697.898 13.072 698.138 13.12 698.346 13.2C698.554 13.28 698.738 13.408 698.898 13.584C699.074 13.744 699.242 13.976 699.402 14.28L708.402 32.016C708.722 32.624 709.026 33.256 709.314 33.912C709.618 34.568 709.906 35.24 710.178 35.928C710.45 35.224 710.73 34.536 711.018 33.864C711.322 33.192 711.642 32.552 711.978 31.944L720.954 14.28C721.114 13.976 721.274 13.744 721.434 13.584C721.61 13.408 721.802 13.28 722.01 13.2C722.218 13.12 722.45 13.072 722.706 13.056C722.978 13.04 723.29 13.032 723.642 13.032H729.834ZM755.08 34.632L751.84 25.056C751.6 24.448 751.344 23.736 751.072 22.92C750.8 22.088 750.528 21.192 750.256 20.232C750.016 21.208 749.76 22.112 749.488 22.944C749.216 23.776 748.96 24.496 748.72 25.104L745.504 34.632H755.08ZM767.968 48H761.68C760.976 48 760.408 47.84 759.976 47.52C759.544 47.184 759.216 46.76 758.992 46.248L756.928 40.152H743.632L741.568 46.248C741.392 46.696 741.072 47.104 740.608 47.472C740.16 47.824 739.6 48 738.928 48H732.592L746.128 13.032H754.432L767.968 48ZM891.717 20.136C891.477 20.52 891.221 20.808 890.949 21C890.693 21.192 890.357 21.288 889.941 21.288C889.573 21.288 889.173 21.176 888.741 20.952C888.325 20.712 887.845 20.448 887.301 20.16C886.773 19.872 886.165 19.616 885.477 19.392C884.789 19.152 884.005 19.032 883.125 19.032C881.605 19.032 880.469 19.36 879.717 20.016C878.981 20.656 878.613 21.528 878.613 22.632C878.613 23.336 878.837 23.92 879.285 24.384C879.733 24.848 880.317 25.248 881.037 25.584C881.773 25.92 882.605 26.232 883.533 26.52C884.477 26.792 885.437 27.104 886.413 27.456C887.389 27.792 888.341 28.192 889.269 28.656C890.213 29.12 891.045 29.712 891.765 30.432C892.501 31.152 893.093 32.032 893.541 33.072C893.989 34.096 894.213 35.336 894.213 36.792C894.213 38.408 893.933 39.92 893.373 41.328C892.813 42.736 891.997 43.968 890.925 45.024C889.869 46.064 888.557 46.888 886.989 47.496C885.437 48.088 883.669 48.384 881.685 48.384C880.597 48.384 879.485 48.272 878.349 48.048C877.229 47.824 876.141 47.512 875.085 47.112C874.029 46.696 873.037 46.208 872.109 45.648C871.181 45.088 870.373 44.464 869.685 43.776L872.085 39.984C872.277 39.712 872.525 39.488 872.829 39.312C873.149 39.12 873.493 39.024 873.861 39.024C874.341 39.024 874.821 39.176 875.301 39.48C875.797 39.784 876.349 40.12 876.957 40.488C877.581 40.856 878.293 41.192 879.093 41.496C879.893 41.8 880.837 41.952 881.925 41.952C883.397 41.952 884.541 41.632 885.357 40.992C886.173 40.336 886.581 39.304 886.581 37.896C886.581 37.08 886.357 36.416 885.909 35.904C885.461 35.392 884.869 34.968 884.133 34.632C883.413 34.296 882.589 34 881.661 33.744C880.733 33.488 879.781 33.208 878.805 32.904C877.829 32.584 876.877 32.2 875.949 31.752C875.021 31.288 874.189 30.688 873.453 29.952C872.733 29.2 872.149 28.272 871.701 27.168C871.253 26.048 871.029 24.672 871.029 23.04C871.029 21.728 871.293 20.448 871.821 19.2C872.349 17.952 873.125 16.84 874.149 15.864C875.173 14.888 876.429 14.112 877.917 13.536C879.405 12.944 881.109 12.648 883.029 12.648C884.101 12.648 885.141 12.736 886.149 12.912C887.173 13.072 888.141 13.32 889.053 13.656C889.965 13.976 890.813 14.368 891.597 14.832C892.397 15.28 893.109 15.792 893.733 16.368L891.717 20.136ZM907.135 19.272V27.432H918.127V33.432H907.135V41.76H921.487V48H898.975V13.032H921.487V19.272H907.135Z" fill="white"/>
<path d="M729.834 13.032V48H722.682V27.888C722.682 27.424 722.69 26.92 722.706 26.376C722.738 25.832 722.786 25.28 722.85 24.72L713.562 42.696C713.274 43.256 712.882 43.68 712.386 43.968C711.906 44.256 711.354 44.4 710.73 44.4H709.626C709.002 44.4 708.442 44.256 707.946 43.968C707.466 43.68 707.082 43.256 706.794 42.696L697.506 24.672C697.554 25.248 697.594 25.816 697.626 26.376C697.658 26.92 697.674 27.424 697.674 27.888V48H690.522V13.032H696.714C697.066 13.032 697.37 13.04 697.626 13.056C697.898 13.072 698.138 13.12 698.346 13.2C698.554 13.28 698.738 13.408 698.898 13.584C699.074 13.744 699.242 13.976 699.402 14.28L708.402 32.016C708.722 32.624 709.026 33.256 709.314 33.912C709.618 34.568 709.906 35.24 710.178 35.928C710.45 35.224 710.73 34.536 711.018 33.864C711.322 33.192 711.642 32.552 711.978 31.944L720.954 14.28C721.114 13.976 721.274 13.744 721.434 13.584C721.61 13.408 721.802 13.28 722.01 13.2C722.218 13.12 722.45 13.072 722.706 13.056C722.978 13.04 723.29 13.032 723.642 13.032H729.834ZM755.08 34.632L751.84 25.056C751.6 24.448 751.344 23.736 751.072 22.92C750.8 22.088 750.528 21.192 750.256 20.232C750.016 21.208 749.76 22.112 749.488 22.944C749.216 23.776 748.96 24.496 748.72 25.104L745.504 34.632H755.08ZM767.968 48H761.68C760.976 48 760.408 47.84 759.976 47.52C759.544 47.184 759.216 46.76 758.992 46.248L756.928 40.152H743.632L741.568 46.248C741.392 46.696 741.072 47.104 740.608 47.472C740.16 47.824 739.6 48 738.928 48H732.592L746.128 13.032H754.432L767.968 48ZM891.717 20.136C891.477 20.52 891.221 20.808 890.949 21C890.693 21.192 890.357 21.288 889.941 21.288C889.573 21.288 889.173 21.176 888.741 20.952C888.325 20.712 887.845 20.448 887.301 20.16C886.773 19.872 886.165 19.616 885.477 19.392C884.789 19.152 884.005 19.032 883.125 19.032C881.605 19.032 880.469 19.36 879.717 20.016C878.981 20.656 878.613 21.528 878.613 22.632C878.613 23.336 878.837 23.92 879.285 24.384C879.733 24.848 880.317 25.248 881.037 25.584C881.773 25.92 882.605 26.232 883.533 26.52C884.477 26.792 885.437 27.104 886.413 27.456C887.389 27.792 888.341 28.192 889.269 28.656C890.213 29.12 891.045 29.712 891.765 30.432C892.501 31.152 893.093 32.032 893.541 33.072C893.989 34.096 894.213 35.336 894.213 36.792C894.213 38.408 893.933 39.92 893.373 41.328C892.813 42.736 891.997 43.968 890.925 45.024C889.869 46.064 888.557 46.888 886.989 47.496C885.437 48.088 883.669 48.384 881.685 48.384C880.597 48.384 879.485 48.272 878.349 48.048C877.229 47.824 876.141 47.512 875.085 47.112C874.029 46.696 873.037 46.208 872.109 45.648C871.181 45.088 870.373 44.464 869.685 43.776L872.085 39.984C872.277 39.712 872.525 39.488 872.829 39.312C873.149 39.12 873.493 39.024 873.861 39.024C874.341 39.024 874.821 39.176 875.301 39.48C875.797 39.784 876.349 40.12 876.957 40.488C877.581 40.856 878.293 41.192 879.093 41.496C879.893 41.8 880.837 41.952 881.925 41.952C883.397 41.952 884.541 41.632 885.357 40.992C886.173 40.336 886.581 39.304 886.581 37.896C886.581 37.08 886.357 36.416 885.909 35.904C885.461 35.392 884.869 34.968 884.133 34.632C883.413 34.296 882.589 34 881.661 33.744C880.733 33.488 879.781 33.208 878.805 32.904C877.829 32.584 876.877 32.2 875.949 31.752C875.021 31.288 874.189 30.688 873.453 29.952C872.733 29.2 872.149 28.272 871.701 27.168C871.253 26.048 871.029 24.672 871.029 23.04C871.029 21.728 871.293 20.448 871.821 19.2C872.349 17.952 873.125 16.84 874.149 15.864C875.173 14.888 876.429 14.112 877.917 13.536C879.405 12.944 881.109 12.648 883.029 12.648C884.101 12.648 885.141 12.736 886.149 12.912C887.173 13.072 888.141 13.32 889.053 13.656C889.965 13.976 890.813 14.368 891.597 14.832C892.397 15.28 893.109 15.792 893.733 16.368L891.717 20.136ZM907.135 19.272V27.432H918.127V33.432H907.135V41.76H921.487V48H898.975V13.032H921.487V19.272H907.135Z" fill="#3A0F12"/>
</svg>
