<svg width="1920" height="44" viewBox="0 0 1920 44" fill="none" xmlns="http://www.w3.org/2000/svg">
<rect width="1920" height="44" fill="#020202"/>
<path d="M1649 20.3966C1647.57 20.3966 1646.4 21.5665 1646.4 23.0001C1646.4 24.4337 1647.57 25.6036 1649 25.6036C1650.43 25.6036 1651.6 24.4337 1651.6 23.0001C1651.6 21.5665 1650.43 20.3966 1649 20.3966ZM1656.81 23.0001C1656.81 21.922 1656.82 20.8536 1656.76 19.7774C1656.7 18.5274 1656.41 17.4181 1655.5 16.504C1654.58 15.588 1653.47 15.3048 1652.22 15.2442C1651.15 15.1837 1650.08 15.1935 1649 15.1935C1647.92 15.1935 1646.86 15.1837 1645.78 15.2442C1644.53 15.3048 1643.42 15.5899 1642.51 16.504C1641.59 17.42 1641.31 18.5274 1641.25 19.7774C1641.19 20.8556 1641.2 21.9239 1641.2 23.0001C1641.2 24.0763 1641.19 25.1466 1641.25 26.2227C1641.31 27.4727 1641.59 28.5821 1642.51 29.4962C1643.42 30.4122 1644.53 30.6954 1645.78 30.7559C1646.86 30.8165 1647.93 30.8067 1649 30.8067C1650.08 30.8067 1651.15 30.8165 1652.22 30.7559C1653.47 30.6954 1654.58 30.4102 1655.5 29.4962C1656.41 28.5802 1656.7 27.4727 1656.76 26.2227C1656.82 25.1466 1656.81 24.0782 1656.81 23.0001V23.0001ZM1649 27.0059C1646.78 27.0059 1644.99 25.2169 1644.99 23.0001C1644.99 20.7833 1646.78 18.9942 1649 18.9942C1651.22 18.9942 1653.01 20.7833 1653.01 23.0001C1653.01 25.2169 1651.22 27.0059 1649 27.0059ZM1653.17 19.7657C1652.65 19.7657 1652.23 19.3477 1652.23 18.8302C1652.23 18.3126 1652.65 17.8946 1653.17 17.8946C1653.69 17.8946 1654.11 18.3126 1654.11 18.8302C1654.11 18.9531 1654.08 19.0748 1654.03 19.1884C1653.99 19.3019 1653.92 19.4051 1653.83 19.492C1653.74 19.5789 1653.64 19.6479 1653.53 19.6948C1653.41 19.7418 1653.29 19.7659 1653.17 19.7657V19.7657Z" fill="white"/>
<path d="M1628.11 15.2766H1613.89C1613.55 15.2766 1613.28 15.5527 1613.28 15.8945V30.1053C1613.28 30.4471 1613.55 30.7232 1613.89 30.7232H1628.11C1628.45 30.7232 1628.72 30.4471 1628.72 30.1053V15.8945C1628.72 15.5527 1628.45 15.2766 1628.11 15.2766ZM1626.32 19.7851H1625.09C1624.12 19.7851 1623.93 20.2446 1623.93 20.9204V22.4091H1626.24L1625.94 24.7396H1623.93V30.7232H1621.53V24.7415H1619.51V22.4091H1621.53V20.6906C1621.53 18.6961 1622.74 17.609 1624.52 17.609C1625.38 17.609 1626.11 17.6728 1626.32 17.7017V19.7851H1626.32Z" fill="white"/>
<path d="M1460.56 23.8C1460.56 22.976 1460.74 22.24 1461.11 21.592C1461.49 20.936 1461.99 20.428 1462.63 20.068C1463.28 19.7 1464.01 19.516 1464.81 19.516C1465.74 19.516 1466.56 19.756 1467.27 20.236C1467.97 20.716 1468.46 21.38 1468.74 22.228H1466.81C1466.62 21.828 1466.35 21.528 1465.99 21.328C1465.65 21.128 1465.25 21.028 1464.79 21.028C1464.31 21.028 1463.87 21.144 1463.49 21.376C1463.11 21.6 1462.81 21.92 1462.6 22.336C1462.39 22.752 1462.29 23.24 1462.29 23.8C1462.29 24.352 1462.39 24.84 1462.6 25.264C1462.81 25.68 1463.11 26.004 1463.49 26.236C1463.87 26.46 1464.31 26.572 1464.79 26.572C1465.25 26.572 1465.65 26.472 1465.99 26.272C1466.35 26.064 1466.62 25.76 1466.81 25.36H1468.74C1468.46 26.216 1467.97 26.884 1467.27 27.364C1466.57 27.836 1465.75 28.072 1464.81 28.072C1464.01 28.072 1463.28 27.892 1462.63 27.532C1461.99 27.164 1461.49 26.656 1461.11 26.008C1460.74 25.36 1460.56 24.624 1460.56 23.8ZM1469.75 24.652C1469.75 23.98 1469.88 23.384 1470.14 22.864C1470.41 22.344 1470.78 21.944 1471.23 21.664C1471.7 21.384 1472.21 21.244 1472.78 21.244C1473.28 21.244 1473.71 21.344 1474.08 21.544C1474.45 21.744 1474.75 21.996 1474.98 22.3V21.352H1476.67V28H1474.98V27.028C1474.76 27.34 1474.46 27.6 1474.08 27.808C1473.7 28.008 1473.27 28.108 1472.77 28.108C1472.21 28.108 1471.7 27.964 1471.23 27.676C1470.78 27.388 1470.41 26.984 1470.14 26.464C1469.88 25.936 1469.75 25.332 1469.75 24.652ZM1474.98 24.676C1474.98 24.268 1474.9 23.92 1474.74 23.632C1474.58 23.336 1474.36 23.112 1474.09 22.96C1473.82 22.8 1473.53 22.72 1473.21 22.72C1472.9 22.72 1472.61 22.796 1472.35 22.948C1472.09 23.1 1471.87 23.324 1471.7 23.62C1471.54 23.908 1471.46 24.252 1471.46 24.652C1471.46 25.052 1471.54 25.404 1471.7 25.708C1471.87 26.004 1472.09 26.232 1472.35 26.392C1472.62 26.552 1472.91 26.632 1473.21 26.632C1473.53 26.632 1473.82 26.556 1474.09 26.404C1474.36 26.244 1474.58 26.02 1474.74 25.732C1474.9 25.436 1474.98 25.084 1474.98 24.676ZM1479.99 19.12V28H1478.31V19.12H1479.99ZM1483.33 19.12V28H1481.65V19.12H1483.33ZM1489.51 19.624V24.808C1489.51 25.376 1489.65 25.812 1489.95 26.116C1490.25 26.412 1490.66 26.56 1491.2 26.56C1491.74 26.56 1492.16 26.412 1492.46 26.116C1492.75 25.812 1492.9 25.376 1492.9 24.808V19.624H1494.59V24.796C1494.59 25.508 1494.44 26.112 1494.13 26.608C1493.82 27.096 1493.41 27.464 1492.89 27.712C1492.38 27.96 1491.81 28.084 1491.17 28.084C1490.55 28.084 1489.98 27.96 1489.47 27.712C1488.97 27.464 1488.57 27.096 1488.27 26.608C1487.97 26.112 1487.83 25.508 1487.83 24.796V19.624H1489.51ZM1498.76 28.108C1498.22 28.108 1497.73 28.012 1497.3 27.82C1496.86 27.62 1496.52 27.352 1496.26 27.016C1496.02 26.68 1495.88 26.308 1495.86 25.9H1497.55C1497.58 26.156 1497.7 26.368 1497.92 26.536C1498.14 26.704 1498.42 26.788 1498.75 26.788C1499.07 26.788 1499.32 26.724 1499.49 26.596C1499.68 26.468 1499.77 26.304 1499.77 26.104C1499.77 25.888 1499.66 25.728 1499.43 25.624C1499.22 25.512 1498.87 25.392 1498.39 25.264C1497.89 25.144 1497.48 25.02 1497.16 24.892C1496.85 24.764 1496.58 24.568 1496.35 24.304C1496.12 24.04 1496.01 23.684 1496.01 23.236C1496.01 22.868 1496.12 22.532 1496.32 22.228C1496.54 21.924 1496.84 21.684 1497.24 21.508C1497.64 21.332 1498.1 21.244 1498.64 21.244C1499.43 21.244 1500.06 21.444 1500.54 21.844C1501.01 22.236 1501.27 22.768 1501.32 23.44H1499.71C1499.68 23.176 1499.57 22.968 1499.37 22.816C1499.18 22.656 1498.92 22.576 1498.59 22.576C1498.29 22.576 1498.05 22.632 1497.88 22.744C1497.72 22.856 1497.64 23.012 1497.64 23.212C1497.64 23.436 1497.76 23.608 1497.98 23.728C1498.2 23.84 1498.55 23.956 1499.02 24.076C1499.5 24.196 1499.9 24.32 1500.21 24.448C1500.52 24.576 1500.79 24.776 1501.02 25.048C1501.25 25.312 1501.37 25.664 1501.38 26.104C1501.38 26.488 1501.27 26.832 1501.05 27.136C1500.84 27.44 1500.54 27.68 1500.14 27.856C1499.75 28.024 1499.29 28.108 1498.76 28.108ZM1503.5 28.084C1503.2 28.084 1502.94 27.992 1502.74 27.808C1502.55 27.616 1502.46 27.38 1502.46 27.1C1502.46 26.82 1502.55 26.588 1502.74 26.404C1502.94 26.212 1503.2 26.116 1503.5 26.116C1503.8 26.116 1504.04 26.212 1504.23 26.404C1504.42 26.588 1504.52 26.82 1504.52 27.1C1504.52 27.38 1504.42 27.616 1504.23 27.808C1504.04 27.992 1503.8 28.084 1503.5 28.084ZM1503.5 23.116C1503.2 23.116 1502.94 23.024 1502.74 22.84C1502.55 22.648 1502.46 22.412 1502.46 22.132C1502.46 21.852 1502.55 21.62 1502.74 21.436C1502.94 21.244 1503.2 21.148 1503.5 21.148C1503.8 21.148 1504.04 21.244 1504.23 21.436C1504.42 21.62 1504.52 21.852 1504.52 22.132C1504.52 22.412 1504.42 22.648 1504.23 22.84C1504.04 23.024 1503.8 23.116 1503.5 23.116ZM1511.67 30.364C1510.9 29.612 1510.29 28.652 1509.86 27.484C1509.44 26.316 1509.22 25.064 1509.22 23.728C1509.22 22.36 1509.45 21.076 1509.9 19.876C1510.34 18.668 1511 17.68 1511.85 16.912H1513.54V17.068C1512.66 17.908 1511.99 18.916 1511.53 20.092C1511.07 21.268 1510.84 22.48 1510.84 23.728C1510.84 24.944 1511.06 26.12 1511.49 27.256C1511.93 28.384 1512.56 29.364 1513.36 30.196V30.364H1511.67ZM1514.4 23.512C1514.4 22.128 1514.65 21.044 1515.14 20.26C1515.65 19.476 1516.48 19.084 1517.64 19.084C1518.8 19.084 1519.63 19.476 1520.12 20.26C1520.63 21.044 1520.88 22.128 1520.88 23.512C1520.88 24.904 1520.63 25.996 1520.12 26.788C1519.63 27.58 1518.8 27.976 1517.64 27.976C1516.48 27.976 1515.65 27.58 1515.14 26.788C1514.65 25.996 1514.4 24.904 1514.4 23.512ZM1519.22 23.512C1519.22 22.92 1519.18 22.424 1519.1 22.024C1519.03 21.616 1518.88 21.284 1518.65 21.028C1518.42 20.772 1518.09 20.644 1517.64 20.644C1517.19 20.644 1516.85 20.772 1516.62 21.028C1516.4 21.284 1516.24 21.616 1516.16 22.024C1516.09 22.424 1516.06 22.92 1516.06 23.512C1516.06 24.12 1516.09 24.632 1516.16 25.048C1516.24 25.456 1516.39 25.788 1516.62 26.044C1516.85 26.292 1517.19 26.416 1517.64 26.416C1518.09 26.416 1518.43 26.292 1518.66 26.044C1518.89 25.788 1519.04 25.456 1519.12 25.048C1519.19 24.632 1519.22 24.12 1519.22 23.512ZM1522.16 23.512C1522.16 22.128 1522.41 21.044 1522.9 20.26C1523.41 19.476 1524.24 19.084 1525.4 19.084C1526.56 19.084 1527.39 19.476 1527.88 20.26C1528.39 21.044 1528.64 22.128 1528.64 23.512C1528.64 24.904 1528.39 25.996 1527.88 26.788C1527.39 27.58 1526.56 27.976 1525.4 27.976C1524.24 27.976 1523.41 27.58 1522.9 26.788C1522.41 25.996 1522.16 24.904 1522.16 23.512ZM1526.98 23.512C1526.98 22.92 1526.94 22.424 1526.86 22.024C1526.79 21.616 1526.64 21.284 1526.41 21.028C1526.18 20.772 1525.85 20.644 1525.4 20.644C1524.95 20.644 1524.61 20.772 1524.38 21.028C1524.15 21.284 1524 21.616 1523.92 22.024C1523.85 22.424 1523.81 22.92 1523.81 23.512C1523.81 24.12 1523.85 24.632 1523.92 25.048C1523.99 25.456 1524.15 25.788 1524.38 26.044C1524.61 26.292 1524.95 26.416 1525.4 26.416C1525.85 26.416 1526.19 26.292 1526.42 26.044C1526.65 25.788 1526.8 25.456 1526.87 25.048C1526.95 24.632 1526.98 24.12 1526.98 23.512ZM1529.68 30.364V30.196C1530.48 29.364 1531.1 28.384 1531.54 27.256C1531.98 26.12 1532.2 24.944 1532.2 23.728C1532.2 22.48 1531.96 21.268 1531.5 20.092C1531.04 18.916 1530.38 17.908 1529.5 17.068V16.912H1531.19C1532.04 17.68 1532.7 18.668 1533.14 19.876C1533.59 21.076 1533.82 22.36 1533.82 23.728C1533.82 25.064 1533.6 26.316 1533.17 27.484C1532.74 28.652 1532.14 29.612 1531.37 30.364H1529.68ZM1538.39 20.8V19.252H1541.29V28H1539.56V20.8H1538.39ZM1543.47 26.104C1544.24 25.464 1544.85 24.932 1545.31 24.508C1545.77 24.076 1546.15 23.628 1546.45 23.164C1546.75 22.7 1546.91 22.244 1546.91 21.796C1546.91 21.388 1546.81 21.068 1546.62 20.836C1546.43 20.604 1546.13 20.488 1545.73 20.488C1545.33 20.488 1545.02 20.624 1544.81 20.896C1544.59 21.16 1544.48 21.524 1544.47 21.988H1542.84C1542.87 21.028 1543.15 20.3 1543.69 19.804C1544.23 19.308 1544.92 19.06 1545.75 19.06C1546.67 19.06 1547.37 19.304 1547.85 19.792C1548.34 20.272 1548.59 20.908 1548.59 21.7C1548.59 22.324 1548.42 22.92 1548.08 23.488C1547.75 24.056 1547.36 24.552 1546.93 24.976C1546.5 25.392 1545.93 25.896 1545.24 26.488H1548.78V27.88H1542.85V26.632L1543.47 26.104ZM1549.86 21.556C1549.9 20.756 1550.18 20.14 1550.7 19.708C1551.23 19.268 1551.92 19.048 1552.78 19.048C1553.36 19.048 1553.86 19.152 1554.28 19.36C1554.69 19.56 1555.01 19.836 1555.21 20.188C1555.43 20.532 1555.54 20.924 1555.54 21.364C1555.54 21.868 1555.41 22.296 1555.14 22.648C1554.89 22.992 1554.58 23.224 1554.22 23.344V23.392C1554.68 23.536 1555.04 23.792 1555.3 24.16C1555.56 24.528 1555.69 25 1555.69 25.576C1555.69 26.056 1555.58 26.484 1555.36 26.86C1555.14 27.236 1554.82 27.532 1554.39 27.748C1553.96 27.956 1553.45 28.06 1552.85 28.06C1551.95 28.06 1551.21 27.832 1550.64 27.376C1550.07 26.92 1549.77 26.248 1549.74 25.36H1551.37C1551.39 25.752 1551.52 26.068 1551.77 26.308C1552.03 26.54 1552.37 26.656 1552.81 26.656C1553.22 26.656 1553.53 26.544 1553.75 26.32C1553.97 26.088 1554.09 25.792 1554.09 25.432C1554.09 24.952 1553.93 24.608 1553.63 24.4C1553.33 24.192 1552.85 24.088 1552.21 24.088H1551.87V22.708H1552.21C1553.35 22.708 1553.92 22.328 1553.92 21.568C1553.92 21.224 1553.81 20.956 1553.61 20.764C1553.41 20.572 1553.11 20.476 1552.73 20.476C1552.35 20.476 1552.06 20.58 1551.85 20.788C1551.65 20.988 1551.54 21.244 1551.51 21.556H1549.86ZM1556.95 26.296V24.976L1560.87 19.36H1562.83V24.832H1563.88V26.296H1562.83V28H1561.15V26.296H1556.95ZM1561.26 21.16L1558.8 24.832H1561.26V21.16ZM1573.69 20.704H1569.81V22.756C1569.97 22.548 1570.21 22.38 1570.53 22.252C1570.84 22.116 1571.17 22.048 1571.52 22.048C1572.16 22.048 1572.69 22.188 1573.09 22.468C1573.5 22.748 1573.8 23.108 1573.98 23.548C1574.17 23.98 1574.26 24.444 1574.26 24.94C1574.26 25.86 1573.99 26.6 1573.47 27.16C1572.95 27.72 1572.2 28 1571.23 28C1570.32 28 1569.59 27.772 1569.05 27.316C1568.51 26.86 1568.2 26.264 1568.13 25.528H1569.76C1569.83 25.848 1569.99 26.104 1570.24 26.296C1570.49 26.488 1570.82 26.584 1571.21 26.584C1571.68 26.584 1572.04 26.436 1572.28 26.14C1572.52 25.844 1572.64 25.452 1572.64 24.964C1572.64 24.468 1572.51 24.092 1572.27 23.836C1572.03 23.572 1571.67 23.44 1571.2 23.44C1570.86 23.44 1570.58 23.524 1570.36 23.692C1570.13 23.86 1569.97 24.084 1569.88 24.364H1568.27V19.228H1573.69V20.704ZM1580.07 21.436C1579.99 21.1 1579.85 20.848 1579.65 20.68C1579.46 20.512 1579.18 20.428 1578.81 20.428C1578.26 20.428 1577.85 20.652 1577.59 21.1C1577.33 21.54 1577.2 22.26 1577.19 23.26C1577.38 22.94 1577.66 22.692 1578.03 22.516C1578.4 22.332 1578.8 22.24 1579.23 22.24C1579.75 22.24 1580.21 22.352 1580.61 22.576C1581.01 22.8 1581.32 23.128 1581.55 23.56C1581.77 23.984 1581.88 24.496 1581.88 25.096C1581.88 25.664 1581.77 26.172 1581.54 26.62C1581.31 27.06 1580.98 27.404 1580.54 27.652C1580.1 27.9 1579.58 28.024 1578.97 28.024C1578.14 28.024 1577.48 27.84 1577 27.472C1576.53 27.104 1576.2 26.592 1576 25.936C1575.82 25.272 1575.73 24.456 1575.73 23.488C1575.73 22.024 1575.98 20.92 1576.48 20.176C1576.99 19.424 1577.78 19.048 1578.87 19.048C1579.71 19.048 1580.36 19.276 1580.83 19.732C1581.29 20.188 1581.56 20.756 1581.63 21.436H1580.07ZM1578.85 23.62C1578.42 23.62 1578.07 23.744 1577.78 23.992C1577.49 24.24 1577.35 24.6 1577.35 25.072C1577.35 25.544 1577.48 25.916 1577.74 26.188C1578.02 26.46 1578.4 26.596 1578.88 26.596C1579.32 26.596 1579.66 26.464 1579.9 26.2C1580.16 25.936 1580.29 25.58 1580.29 25.132C1580.29 24.668 1580.16 24.3 1579.92 24.028C1579.68 23.756 1579.32 23.62 1578.85 23.62ZM1588.78 20.524L1585.59 28H1583.88L1587.1 20.716H1583V19.276H1588.78V20.524ZM1591.25 23.368C1590.45 22.952 1590.05 22.308 1590.05 21.436C1590.05 21.004 1590.16 20.612 1590.37 20.26C1590.6 19.9 1590.93 19.616 1591.37 19.408C1591.82 19.192 1592.36 19.084 1593 19.084C1593.64 19.084 1594.18 19.192 1594.62 19.408C1595.07 19.616 1595.4 19.9 1595.62 20.26C1595.84 20.612 1595.95 21.004 1595.95 21.436C1595.95 21.876 1595.85 22.264 1595.63 22.6C1595.41 22.928 1595.13 23.184 1594.77 23.368C1595.21 23.56 1595.55 23.84 1595.8 24.208C1596.05 24.576 1596.17 25.012 1596.17 25.516C1596.17 26.06 1596.03 26.536 1595.75 26.944C1595.48 27.344 1595.1 27.652 1594.62 27.868C1594.14 28.084 1593.6 28.192 1593 28.192C1592.4 28.192 1591.86 28.084 1591.38 27.868C1590.91 27.652 1590.53 27.344 1590.25 26.944C1589.98 26.536 1589.85 26.06 1589.85 25.516C1589.85 25.012 1589.97 24.576 1590.22 24.208C1590.47 23.832 1590.81 23.552 1591.25 23.368ZM1594.32 21.676C1594.32 21.284 1594.2 20.98 1593.96 20.764C1593.73 20.548 1593.41 20.44 1593 20.44C1592.6 20.44 1592.28 20.548 1592.04 20.764C1591.81 20.98 1591.69 21.288 1591.69 21.688C1591.69 22.048 1591.81 22.336 1592.05 22.552C1592.3 22.768 1592.62 22.876 1593 22.876C1593.39 22.876 1593.7 22.768 1593.95 22.552C1594.2 22.328 1594.32 22.036 1594.32 21.676ZM1593 24.1C1592.55 24.1 1592.17 24.216 1591.89 24.448C1591.61 24.68 1591.47 25.012 1591.47 25.444C1591.47 25.844 1591.6 26.172 1591.87 26.428C1592.15 26.676 1592.53 26.8 1593 26.8C1593.47 26.8 1593.85 26.672 1594.12 26.416C1594.39 26.16 1594.53 25.836 1594.53 25.444C1594.53 25.02 1594.39 24.692 1594.11 24.46C1593.83 24.22 1593.46 24.1 1593 24.1Z" fill="white"/>
<path d="M753.59 17.624L750.518 26H748.478L745.406 17.624H747.206L749.51 24.284L751.802 17.624H753.59ZM755.45 18.56C755.154 18.56 754.906 18.468 754.706 18.284C754.514 18.092 754.418 17.856 754.418 17.576C754.418 17.296 754.514 17.064 754.706 16.88C754.906 16.688 755.154 16.592 755.45 16.592C755.746 16.592 755.99 16.688 756.182 16.88C756.382 17.064 756.482 17.296 756.482 17.576C756.482 17.856 756.382 18.092 756.182 18.284C755.99 18.468 755.746 18.56 755.45 18.56ZM756.278 19.352V26H754.598V19.352H756.278ZM760.481 26.108C759.937 26.108 759.449 26.012 759.017 25.82C758.585 25.62 758.241 25.352 757.985 25.016C757.737 24.68 757.601 24.308 757.577 23.9H759.269C759.301 24.156 759.425 24.368 759.641 24.536C759.865 24.704 760.141 24.788 760.469 24.788C760.789 24.788 761.037 24.724 761.213 24.596C761.397 24.468 761.489 24.304 761.489 24.104C761.489 23.888 761.377 23.728 761.153 23.624C760.937 23.512 760.589 23.392 760.109 23.264C759.613 23.144 759.205 23.02 758.885 22.892C758.573 22.764 758.301 22.568 758.069 22.304C757.845 22.04 757.733 21.684 757.733 21.236C757.733 20.868 757.837 20.532 758.045 20.228C758.261 19.924 758.565 19.684 758.957 19.508C759.357 19.332 759.825 19.244 760.361 19.244C761.153 19.244 761.785 19.444 762.257 19.844C762.729 20.236 762.989 20.768 763.037 21.44H761.429C761.405 21.176 761.293 20.968 761.093 20.816C760.901 20.656 760.641 20.576 760.313 20.576C760.009 20.576 759.773 20.632 759.605 20.744C759.445 20.856 759.365 21.012 759.365 21.212C759.365 21.436 759.477 21.608 759.701 21.728C759.925 21.84 760.273 21.956 760.745 22.076C761.225 22.196 761.621 22.32 761.933 22.448C762.245 22.576 762.513 22.776 762.737 23.048C762.969 23.312 763.089 23.664 763.097 24.104C763.097 24.488 762.989 24.832 762.773 25.136C762.565 25.44 762.261 25.68 761.861 25.856C761.469 26.024 761.009 26.108 760.481 26.108ZM765.328 18.56C765.032 18.56 764.784 18.468 764.584 18.284C764.392 18.092 764.296 17.856 764.296 17.576C764.296 17.296 764.392 17.064 764.584 16.88C764.784 16.688 765.032 16.592 765.328 16.592C765.624 16.592 765.868 16.688 766.06 16.88C766.26 17.064 766.36 17.296 766.36 17.576C766.36 17.856 766.26 18.092 766.06 18.284C765.868 18.468 765.624 18.56 765.328 18.56ZM766.156 19.352V26H764.476V19.352H766.156ZM769.772 20.732V23.948C769.772 24.172 769.824 24.336 769.928 24.44C770.04 24.536 770.224 24.584 770.48 24.584H771.26V26H770.204C768.788 26 768.08 25.312 768.08 23.936V20.732H767.288V19.352H768.08V17.708H769.772V19.352H771.26V20.732H769.772ZM778.28 26.108C777.64 26.108 777.064 25.968 776.552 25.688C776.04 25.4 775.636 24.996 775.34 24.476C775.052 23.956 774.908 23.356 774.908 22.676C774.908 21.996 775.056 21.396 775.352 20.876C775.656 20.356 776.068 19.956 776.588 19.676C777.108 19.388 777.688 19.244 778.328 19.244C778.968 19.244 779.548 19.388 780.068 19.676C780.588 19.956 780.996 20.356 781.292 20.876C781.596 21.396 781.748 21.996 781.748 22.676C781.748 23.356 781.592 23.956 781.28 24.476C780.976 24.996 780.56 25.4 780.032 25.688C779.512 25.968 778.928 26.108 778.28 26.108ZM778.28 24.644C778.584 24.644 778.868 24.572 779.132 24.428C779.404 24.276 779.62 24.052 779.78 23.756C779.94 23.46 780.02 23.1 780.02 22.676C780.02 22.044 779.852 21.56 779.516 21.224C779.188 20.88 778.784 20.708 778.304 20.708C777.824 20.708 777.42 20.88 777.092 21.224C776.772 21.56 776.612 22.044 776.612 22.676C776.612 23.308 776.768 23.796 777.08 24.14C777.4 24.476 777.8 24.644 778.28 24.644ZM789.256 19.352V26H787.564V25.16C787.348 25.448 787.064 25.676 786.712 25.844C786.368 26.004 785.992 26.084 785.584 26.084C785.064 26.084 784.604 25.976 784.204 25.76C783.804 25.536 783.488 25.212 783.256 24.788C783.032 24.356 782.92 23.844 782.92 23.252V19.352H784.6V23.012C784.6 23.54 784.732 23.948 784.996 24.236C785.26 24.516 785.62 24.656 786.076 24.656C786.54 24.656 786.904 24.516 787.168 24.236C787.432 23.948 787.564 23.54 787.564 23.012V19.352H789.256ZM792.594 20.384C792.81 20.032 793.09 19.756 793.434 19.556C793.786 19.356 794.186 19.256 794.634 19.256V21.02H794.19C793.662 21.02 793.262 21.144 792.99 21.392C792.726 21.64 792.594 22.072 792.594 22.688V26H790.914V19.352H792.594V20.384ZM801.169 26.108C800.625 26.108 800.137 26.012 799.705 25.82C799.273 25.62 798.929 25.352 798.673 25.016C798.425 24.68 798.289 24.308 798.265 23.9H799.957C799.989 24.156 800.113 24.368 800.329 24.536C800.553 24.704 800.829 24.788 801.157 24.788C801.477 24.788 801.725 24.724 801.901 24.596C802.085 24.468 802.177 24.304 802.177 24.104C802.177 23.888 802.065 23.728 801.841 23.624C801.625 23.512 801.277 23.392 800.797 23.264C800.301 23.144 799.893 23.02 799.573 22.892C799.261 22.764 798.989 22.568 798.757 22.304C798.533 22.04 798.421 21.684 798.421 21.236C798.421 20.868 798.525 20.532 798.733 20.228C798.949 19.924 799.253 19.684 799.645 19.508C800.045 19.332 800.513 19.244 801.049 19.244C801.841 19.244 802.473 19.444 802.945 19.844C803.417 20.236 803.677 20.768 803.725 21.44H802.117C802.093 21.176 801.981 20.968 801.781 20.816C801.589 20.656 801.329 20.576 801.001 20.576C800.697 20.576 800.461 20.632 800.293 20.744C800.133 20.856 800.053 21.012 800.053 21.212C800.053 21.436 800.165 21.608 800.389 21.728C800.613 21.84 800.961 21.956 801.433 22.076C801.913 22.196 802.309 22.32 802.621 22.448C802.933 22.576 803.201 22.776 803.425 23.048C803.657 23.312 803.777 23.664 803.785 24.104C803.785 24.488 803.677 24.832 803.461 25.136C803.253 25.44 802.949 25.68 802.549 25.856C802.157 26.024 801.697 26.108 801.169 26.108ZM808.908 19.256C809.412 19.256 809.86 19.368 810.252 19.592C810.644 19.808 810.948 20.132 811.164 20.564C811.388 20.988 811.5 21.5 811.5 22.1V26H809.82V22.328C809.82 21.8 809.688 21.396 809.424 21.116C809.16 20.828 808.8 20.684 808.344 20.684C807.88 20.684 807.512 20.828 807.24 21.116C806.976 21.396 806.844 21.8 806.844 22.328V26H805.164V17.12H806.844V20.18C807.06 19.892 807.348 19.668 807.708 19.508C808.068 19.34 808.468 19.256 808.908 19.256ZM816.05 26.108C815.41 26.108 814.834 25.968 814.322 25.688C813.81 25.4 813.406 24.996 813.11 24.476C812.822 23.956 812.678 23.356 812.678 22.676C812.678 21.996 812.826 21.396 813.122 20.876C813.426 20.356 813.838 19.956 814.358 19.676C814.878 19.388 815.458 19.244 816.098 19.244C816.738 19.244 817.318 19.388 817.838 19.676C818.358 19.956 818.766 20.356 819.062 20.876C819.366 21.396 819.518 21.996 819.518 22.676C819.518 23.356 819.362 23.956 819.05 24.476C818.746 24.996 818.33 25.4 817.802 25.688C817.282 25.968 816.698 26.108 816.05 26.108ZM816.05 24.644C816.354 24.644 816.638 24.572 816.902 24.428C817.174 24.276 817.39 24.052 817.55 23.756C817.71 23.46 817.79 23.1 817.79 22.676C817.79 22.044 817.622 21.56 817.286 21.224C816.958 20.88 816.554 20.708 816.074 20.708C815.594 20.708 815.19 20.88 814.862 21.224C814.542 21.56 814.382 22.044 814.382 22.676C814.382 23.308 814.538 23.796 814.85 24.14C815.17 24.476 815.57 24.644 816.05 24.644ZM829.966 19.352L828.022 26H826.21L824.998 21.356L823.786 26H821.962L820.006 19.352H821.71L822.886 24.416L824.158 19.352H825.934L827.182 24.404L828.358 19.352H829.966ZM832.555 20.384C832.771 20.032 833.051 19.756 833.395 19.556C833.747 19.356 834.147 19.256 834.595 19.256V21.02H834.151C833.623 21.02 833.223 21.144 832.951 21.392C832.687 21.64 832.555 22.072 832.555 22.688V26H830.875V19.352H832.555V20.384ZM838.678 26.108C838.038 26.108 837.462 25.968 836.95 25.688C836.438 25.4 836.034 24.996 835.738 24.476C835.45 23.956 835.306 23.356 835.306 22.676C835.306 21.996 835.454 21.396 835.75 20.876C836.054 20.356 836.466 19.956 836.986 19.676C837.506 19.388 838.086 19.244 838.726 19.244C839.366 19.244 839.946 19.388 840.466 19.676C840.986 19.956 841.394 20.356 841.69 20.876C841.994 21.396 842.146 21.996 842.146 22.676C842.146 23.356 841.99 23.956 841.678 24.476C841.374 24.996 840.958 25.4 840.43 25.688C839.91 25.968 839.326 26.108 838.678 26.108ZM838.678 24.644C838.982 24.644 839.266 24.572 839.53 24.428C839.802 24.276 840.018 24.052 840.178 23.756C840.338 23.46 840.418 23.1 840.418 22.676C840.418 22.044 840.25 21.56 839.914 21.224C839.586 20.88 839.182 20.708 838.702 20.708C838.222 20.708 837.818 20.88 837.49 21.224C837.17 21.56 837.01 22.044 837.01 22.676C837.01 23.308 837.166 23.796 837.478 24.14C837.798 24.476 838.198 24.644 838.678 24.644ZM846.331 26.108C845.691 26.108 845.115 25.968 844.603 25.688C844.091 25.4 843.687 24.996 843.391 24.476C843.103 23.956 842.959 23.356 842.959 22.676C842.959 21.996 843.107 21.396 843.403 20.876C843.707 20.356 844.119 19.956 844.639 19.676C845.159 19.388 845.739 19.244 846.379 19.244C847.019 19.244 847.599 19.388 848.119 19.676C848.639 19.956 849.047 20.356 849.343 20.876C849.647 21.396 849.799 21.996 849.799 22.676C849.799 23.356 849.643 23.956 849.331 24.476C849.027 24.996 848.611 25.4 848.083 25.688C847.563 25.968 846.979 26.108 846.331 26.108ZM846.331 24.644C846.635 24.644 846.919 24.572 847.183 24.428C847.455 24.276 847.671 24.052 847.831 23.756C847.991 23.46 848.071 23.1 848.071 22.676C848.071 22.044 847.903 21.56 847.567 21.224C847.239 20.88 846.835 20.708 846.355 20.708C845.875 20.708 845.471 20.88 845.143 21.224C844.823 21.56 844.663 22.044 844.663 22.676C844.663 23.308 844.819 23.796 845.131 24.14C845.451 24.476 845.851 24.644 846.331 24.644ZM859.287 19.256C860.103 19.256 860.759 19.508 861.255 20.012C861.759 20.508 862.011 21.204 862.011 22.1V26H860.331V22.328C860.331 21.808 860.199 21.412 859.935 21.14C859.671 20.86 859.311 20.72 858.855 20.72C858.399 20.72 858.035 20.86 857.763 21.14C857.499 21.412 857.367 21.808 857.367 22.328V26H855.687V22.328C855.687 21.808 855.555 21.412 855.291 21.14C855.027 20.86 854.667 20.72 854.211 20.72C853.747 20.72 853.379 20.86 853.107 21.14C852.843 21.412 852.711 21.808 852.711 22.328V26H851.031V19.352H852.711V20.156C852.927 19.876 853.203 19.656 853.539 19.496C853.883 19.336 854.259 19.256 854.667 19.256C855.187 19.256 855.651 19.368 856.059 19.592C856.467 19.808 856.783 20.12 857.007 20.528C857.223 20.144 857.535 19.836 857.943 19.604C858.359 19.372 858.807 19.256 859.287 19.256ZM867.317 18.56C867.021 18.56 866.773 18.468 866.573 18.284C866.381 18.092 866.285 17.856 866.285 17.576C866.285 17.296 866.381 17.064 866.573 16.88C866.773 16.688 867.021 16.592 867.317 16.592C867.613 16.592 867.857 16.688 868.049 16.88C868.249 17.064 868.349 17.296 868.349 17.576C868.349 17.856 868.249 18.092 868.049 18.284C867.857 18.468 867.613 18.56 867.317 18.56ZM868.145 19.352V26H866.465V19.352H868.145ZM873.489 19.256C874.281 19.256 874.921 19.508 875.409 20.012C875.897 20.508 876.141 21.204 876.141 22.1V26H874.461V22.328C874.461 21.8 874.329 21.396 874.065 21.116C873.801 20.828 873.441 20.684 872.985 20.684C872.521 20.684 872.153 20.828 871.881 21.116C871.617 21.396 871.485 21.8 871.485 22.328V26H869.805V19.352H871.485V20.18C871.709 19.892 871.993 19.668 872.337 19.508C872.689 19.34 873.073 19.256 873.489 19.256ZM880.202 18.8V17.252H883.094V26H881.366V18.8H880.202ZM885.281 24.104C886.049 23.464 886.661 22.932 887.117 22.508C887.573 22.076 887.953 21.628 888.257 21.164C888.561 20.7 888.713 20.244 888.713 19.796C888.713 19.388 888.617 19.068 888.425 18.836C888.233 18.604 887.937 18.488 887.537 18.488C887.137 18.488 886.829 18.624 886.613 18.896C886.397 19.16 886.285 19.524 886.277 19.988H884.645C884.677 19.028 884.961 18.3 885.497 17.804C886.041 17.308 886.729 17.06 887.561 17.06C888.473 17.06 889.173 17.304 889.661 17.792C890.149 18.272 890.393 18.908 890.393 19.7C890.393 20.324 890.225 20.92 889.889 21.488C889.553 22.056 889.169 22.552 888.737 22.976C888.305 23.392 887.741 23.896 887.045 24.488H890.585V25.88H884.657V24.632L885.281 24.104ZM891.668 19.556C891.708 18.756 891.988 18.14 892.508 17.708C893.036 17.268 893.728 17.048 894.584 17.048C895.168 17.048 895.668 17.152 896.084 17.36C896.5 17.56 896.812 17.836 897.02 18.188C897.236 18.532 897.344 18.924 897.344 19.364C897.344 19.868 897.212 20.296 896.948 20.648C896.692 20.992 896.384 21.224 896.024 21.344V21.392C896.488 21.536 896.848 21.792 897.104 22.16C897.368 22.528 897.5 23 897.5 23.576C897.5 24.056 897.388 24.484 897.164 24.86C896.948 25.236 896.624 25.532 896.192 25.748C895.768 25.956 895.256 26.06 894.656 26.06C893.752 26.06 893.016 25.832 892.448 25.376C891.88 24.92 891.58 24.248 891.548 23.36H893.18C893.196 23.752 893.328 24.068 893.576 24.308C893.832 24.54 894.18 24.656 894.62 24.656C895.028 24.656 895.34 24.544 895.556 24.32C895.78 24.088 895.892 23.792 895.892 23.432C895.892 22.952 895.74 22.608 895.436 22.4C895.132 22.192 894.66 22.088 894.02 22.088H893.672V20.708H894.02C895.156 20.708 895.724 20.328 895.724 19.568C895.724 19.224 895.62 18.956 895.412 18.764C895.212 18.572 894.92 18.476 894.536 18.476C894.16 18.476 893.868 18.58 893.66 18.788C893.46 18.988 893.344 19.244 893.312 19.556H891.668ZM898.755 24.296V22.976L902.679 17.36H904.635V22.832H905.691V24.296H904.635V26H902.955V24.296H898.755ZM903.063 19.16L900.603 22.832H903.063V19.16ZM912.704 26.084C912.12 26.084 911.592 25.984 911.12 25.784C910.656 25.584 910.288 25.296 910.016 24.92C909.744 24.544 909.604 24.1 909.596 23.588H911.396C911.42 23.932 911.54 24.204 911.756 24.404C911.98 24.604 912.284 24.704 912.668 24.704C913.06 24.704 913.368 24.612 913.592 24.428C913.816 24.236 913.928 23.988 913.928 23.684C913.928 23.436 913.852 23.232 913.7 23.072C913.548 22.912 913.356 22.788 913.124 22.7C912.9 22.604 912.588 22.5 912.188 22.388C911.644 22.228 911.2 22.072 910.856 21.92C910.52 21.76 910.228 21.524 909.98 21.212C909.74 20.892 909.62 20.468 909.62 19.94C909.62 19.444 909.744 19.012 909.992 18.644C910.24 18.276 910.588 17.996 911.036 17.804C911.484 17.604 911.996 17.504 912.572 17.504C913.436 17.504 914.136 17.716 914.672 18.14C915.216 18.556 915.516 19.14 915.572 19.892H913.724C913.708 19.604 913.584 19.368 913.352 19.184C913.128 18.992 912.828 18.896 912.452 18.896C912.124 18.896 911.86 18.98 911.66 19.148C911.468 19.316 911.372 19.56 911.372 19.88C911.372 20.104 911.444 20.292 911.588 20.444C911.74 20.588 911.924 20.708 912.14 20.804C912.364 20.892 912.676 20.996 913.076 21.116C913.62 21.276 914.064 21.436 914.408 21.596C914.752 21.756 915.048 21.996 915.296 22.316C915.544 22.636 915.668 23.056 915.668 23.576C915.668 24.024 915.552 24.44 915.32 24.824C915.088 25.208 914.748 25.516 914.3 25.748C913.852 25.972 913.32 26.084 912.704 26.084ZM919.081 20.732V23.948C919.081 24.172 919.133 24.336 919.237 24.44C919.349 24.536 919.533 24.584 919.789 24.584H920.569V26H919.513C918.097 26 917.389 25.312 917.389 23.936V20.732H916.597V19.352H917.389V17.708H919.081V19.352H920.569V20.732H919.081ZM923.457 20.384C923.673 20.032 923.953 19.756 924.297 19.556C924.649 19.356 925.049 19.256 925.497 19.256V21.02H925.053C924.525 21.02 924.125 21.144 923.853 21.392C923.589 21.64 923.457 22.072 923.457 22.688V26H921.777V19.352H923.457V20.384ZM932.809 22.532C932.809 22.772 932.793 22.988 932.761 23.18H927.901C927.941 23.66 928.109 24.036 928.405 24.308C928.701 24.58 929.065 24.716 929.497 24.716C930.121 24.716 930.565 24.448 930.829 23.912H932.641C932.449 24.552 932.081 25.08 931.537 25.496C930.993 25.904 930.325 26.108 929.533 26.108C928.893 26.108 928.317 25.968 927.805 25.688C927.301 25.4 926.905 24.996 926.617 24.476C926.337 23.956 926.197 23.356 926.197 22.676C926.197 21.988 926.337 21.384 926.617 20.864C926.897 20.344 927.289 19.944 927.793 19.664C928.297 19.384 928.877 19.244 929.533 19.244C930.165 19.244 930.729 19.38 931.225 19.652C931.729 19.924 932.117 20.312 932.389 20.816C932.669 21.312 932.809 21.884 932.809 22.532ZM931.069 22.052C931.061 21.62 930.905 21.276 930.601 21.02C930.297 20.756 929.925 20.624 929.485 20.624C929.069 20.624 928.717 20.752 928.429 21.008C928.149 21.256 927.977 21.604 927.913 22.052H931.069ZM940.215 22.532C940.215 22.772 940.199 22.988 940.167 23.18H935.307C935.347 23.66 935.515 24.036 935.811 24.308C936.107 24.58 936.471 24.716 936.903 24.716C937.527 24.716 937.971 24.448 938.235 23.912H940.047C939.855 24.552 939.487 25.08 938.943 25.496C938.399 25.904 937.731 26.108 936.939 26.108C936.299 26.108 935.723 25.968 935.211 25.688C934.707 25.4 934.311 24.996 934.023 24.476C933.743 23.956 933.603 23.356 933.603 22.676C933.603 21.988 933.743 21.384 934.023 20.864C934.303 20.344 934.695 19.944 935.199 19.664C935.703 19.384 936.283 19.244 936.939 19.244C937.571 19.244 938.135 19.38 938.631 19.652C939.135 19.924 939.523 20.312 939.795 20.816C940.075 21.312 940.215 21.884 940.215 22.532ZM938.475 22.052C938.467 21.62 938.311 21.276 938.007 21.02C937.703 20.756 937.331 20.624 936.891 20.624C936.475 20.624 936.123 20.752 935.835 21.008C935.555 21.256 935.383 21.604 935.319 22.052H938.475ZM943.397 20.732V23.948C943.397 24.172 943.449 24.336 943.553 24.44C943.665 24.536 943.849 24.584 944.105 24.584H944.885V26H943.829C942.413 26 941.705 25.312 941.705 23.936V20.732H940.913V19.352H941.705V17.708H943.397V19.352H944.885V20.732H943.397ZM954.089 24.404H950.753L950.201 26H948.437L951.449 17.612H953.405L956.417 26H954.641L954.089 24.404ZM953.633 23.06L952.421 19.556L951.209 23.06H953.633ZM957.111 22.652C957.111 21.98 957.243 21.384 957.507 20.864C957.779 20.344 958.147 19.944 958.611 19.664C959.075 19.384 959.591 19.244 960.159 19.244C960.591 19.244 961.003 19.34 961.395 19.532C961.787 19.716 962.099 19.964 962.331 20.276V17.12H964.035V26H962.331V25.016C962.123 25.344 961.831 25.608 961.455 25.808C961.079 26.008 960.643 26.108 960.147 26.108C959.587 26.108 959.075 25.964 958.611 25.676C958.147 25.388 957.779 24.984 957.507 24.464C957.243 23.936 957.111 23.332 957.111 22.652ZM962.343 22.676C962.343 22.268 962.263 21.92 962.103 21.632C961.943 21.336 961.727 21.112 961.455 20.96C961.183 20.8 960.891 20.72 960.579 20.72C960.267 20.72 959.979 20.796 959.715 20.948C959.451 21.1 959.235 21.324 959.067 21.62C958.907 21.908 958.827 22.252 958.827 22.652C958.827 23.052 958.907 23.404 959.067 23.708C959.235 24.004 959.451 24.232 959.715 24.392C959.987 24.552 960.275 24.632 960.579 24.632C960.891 24.632 961.183 24.556 961.455 24.404C961.727 24.244 961.943 24.02 962.103 23.732C962.263 23.436 962.343 23.084 962.343 22.676ZM967.356 20.384C967.572 20.032 967.852 19.756 968.196 19.556C968.548 19.356 968.948 19.256 969.396 19.256V21.02H968.952C968.424 21.02 968.024 21.144 967.752 21.392C967.488 21.64 967.356 22.072 967.356 22.688V26H965.676V19.352H967.356V20.384ZM976.707 22.532C976.707 22.772 976.691 22.988 976.659 23.18H971.799C971.839 23.66 972.007 24.036 972.303 24.308C972.599 24.58 972.963 24.716 973.395 24.716C974.019 24.716 974.463 24.448 974.727 23.912H976.539C976.347 24.552 975.979 25.08 975.435 25.496C974.891 25.904 974.223 26.108 973.431 26.108C972.791 26.108 972.215 25.968 971.703 25.688C971.199 25.4 970.803 24.996 970.515 24.476C970.235 23.956 970.095 23.356 970.095 22.676C970.095 21.988 970.235 21.384 970.515 20.864C970.795 20.344 971.187 19.944 971.691 19.664C972.195 19.384 972.775 19.244 973.431 19.244C974.063 19.244 974.627 19.38 975.123 19.652C975.627 19.924 976.015 20.312 976.287 20.816C976.567 21.312 976.707 21.884 976.707 22.532ZM974.967 22.052C974.959 21.62 974.803 21.276 974.499 21.02C974.195 20.756 973.823 20.624 973.383 20.624C972.967 20.624 972.615 20.752 972.327 21.008C972.047 21.256 971.875 21.604 971.811 22.052H974.967ZM980.477 26.108C979.933 26.108 979.445 26.012 979.013 25.82C978.581 25.62 978.237 25.352 977.981 25.016C977.733 24.68 977.597 24.308 977.573 23.9H979.265C979.297 24.156 979.421 24.368 979.637 24.536C979.861 24.704 980.137 24.788 980.465 24.788C980.785 24.788 981.033 24.724 981.209 24.596C981.393 24.468 981.485 24.304 981.485 24.104C981.485 23.888 981.373 23.728 981.149 23.624C980.933 23.512 980.585 23.392 980.105 23.264C979.609 23.144 979.201 23.02 978.881 22.892C978.569 22.764 978.297 22.568 978.065 22.304C977.841 22.04 977.729 21.684 977.729 21.236C977.729 20.868 977.833 20.532 978.041 20.228C978.257 19.924 978.561 19.684 978.953 19.508C979.353 19.332 979.821 19.244 980.357 19.244C981.149 19.244 981.781 19.444 982.253 19.844C982.725 20.236 982.985 20.768 983.033 21.44H981.425C981.401 21.176 981.289 20.968 981.089 20.816C980.897 20.656 980.637 20.576 980.309 20.576C980.005 20.576 979.769 20.632 979.601 20.744C979.441 20.856 979.361 21.012 979.361 21.212C979.361 21.436 979.473 21.608 979.697 21.728C979.921 21.84 980.269 21.956 980.741 22.076C981.221 22.196 981.617 22.32 981.929 22.448C982.241 22.576 982.509 22.776 982.733 23.048C982.965 23.312 983.085 23.664 983.093 24.104C983.093 24.488 982.985 24.832 982.769 25.136C982.561 25.44 982.257 25.68 981.857 25.856C981.465 26.024 981.005 26.108 980.477 26.108ZM987.017 26.108C986.473 26.108 985.985 26.012 985.553 25.82C985.121 25.62 984.777 25.352 984.521 25.016C984.273 24.68 984.137 24.308 984.113 23.9H985.805C985.837 24.156 985.961 24.368 986.177 24.536C986.401 24.704 986.677 24.788 987.005 24.788C987.325 24.788 987.573 24.724 987.749 24.596C987.933 24.468 988.025 24.304 988.025 24.104C988.025 23.888 987.913 23.728 987.689 23.624C987.473 23.512 987.125 23.392 986.645 23.264C986.149 23.144 985.741 23.02 985.421 22.892C985.109 22.764 984.837 22.568 984.605 22.304C984.381 22.04 984.269 21.684 984.269 21.236C984.269 20.868 984.373 20.532 984.581 20.228C984.797 19.924 985.101 19.684 985.493 19.508C985.893 19.332 986.361 19.244 986.897 19.244C987.689 19.244 988.321 19.444 988.793 19.844C989.265 20.236 989.525 20.768 989.573 21.44H987.965C987.941 21.176 987.829 20.968 987.629 20.816C987.437 20.656 987.177 20.576 986.849 20.576C986.545 20.576 986.309 20.632 986.141 20.744C985.981 20.856 985.901 21.012 985.901 21.212C985.901 21.436 986.013 21.608 986.237 21.728C986.461 21.84 986.809 21.956 987.281 22.076C987.761 22.196 988.157 22.32 988.469 22.448C988.781 22.576 989.049 22.776 989.273 23.048C989.505 23.312 989.625 23.664 989.633 24.104C989.633 24.488 989.525 24.832 989.309 25.136C989.101 25.44 988.797 25.68 988.397 25.856C988.005 26.024 987.545 26.108 987.017 26.108ZM993.463 21.8C993.463 20.976 993.647 20.24 994.015 19.592C994.391 18.936 994.899 18.428 995.539 18.068C996.187 17.7 996.911 17.516 997.711 17.516C998.647 17.516 999.467 17.756 1000.17 18.236C1000.87 18.716 1001.37 19.38 1001.65 20.228H999.715C999.523 19.828 999.251 19.528 998.899 19.328C998.555 19.128 998.155 19.028 997.699 19.028C997.211 19.028 996.775 19.144 996.391 19.376C996.015 19.6 995.719 19.92 995.503 20.336C995.295 20.752 995.191 21.24 995.191 21.8C995.191 22.352 995.295 22.84 995.503 23.264C995.719 23.68 996.015 24.004 996.391 24.236C996.775 24.46 997.211 24.572 997.699 24.572C998.155 24.572 998.555 24.472 998.899 24.272C999.251 24.064 999.523 23.76 999.715 23.36H1001.65C1001.37 24.216 1000.87 24.884 1000.17 25.364C999.475 25.836 998.655 26.072 997.711 26.072C996.911 26.072 996.187 25.892 995.539 25.532C994.899 25.164 994.391 24.656 994.015 24.008C993.647 23.36 993.463 22.624 993.463 21.8ZM1003.93 18.56C1003.64 18.56 1003.39 18.468 1003.19 18.284C1003 18.092 1002.9 17.856 1002.9 17.576C1002.9 17.296 1003 17.064 1003.19 16.88C1003.39 16.688 1003.64 16.592 1003.93 16.592C1004.23 16.592 1004.47 16.688 1004.67 16.88C1004.87 17.064 1004.97 17.296 1004.97 17.576C1004.97 17.856 1004.87 18.092 1004.67 18.284C1004.47 18.468 1004.23 18.56 1003.93 18.56ZM1004.76 19.352V26H1003.08V19.352H1004.76ZM1008.38 20.732V23.948C1008.38 24.172 1008.43 24.336 1008.53 24.44C1008.65 24.536 1008.83 24.584 1009.09 24.584H1009.87V26H1008.81C1007.39 26 1006.69 25.312 1006.69 23.936V20.732H1005.89V19.352H1006.69V17.708H1008.38V19.352H1009.87V20.732H1008.38ZM1017.43 19.352L1013.32 29.144H1011.53L1012.97 25.832L1010.31 19.352H1012.19L1013.91 23.996L1015.65 19.352H1017.43ZM1026.34 24.404H1023L1022.45 26H1020.68L1023.7 17.612H1025.65L1028.66 26H1026.89L1026.34 24.404ZM1025.88 23.06L1024.67 19.556L1023.46 23.06H1025.88ZM1029.36 22.652C1029.36 21.98 1029.49 21.384 1029.75 20.864C1030.02 20.344 1030.39 19.944 1030.86 19.664C1031.32 19.384 1031.84 19.244 1032.4 19.244C1032.84 19.244 1033.25 19.34 1033.64 19.532C1034.03 19.716 1034.34 19.964 1034.58 20.276V17.12H1036.28V26H1034.58V25.016C1034.37 25.344 1034.08 25.608 1033.7 25.808C1033.32 26.008 1032.89 26.108 1032.39 26.108C1031.83 26.108 1031.32 25.964 1030.86 25.676C1030.39 25.388 1030.02 24.984 1029.75 24.464C1029.49 23.936 1029.36 23.332 1029.36 22.652ZM1034.59 22.676C1034.59 22.268 1034.51 21.92 1034.35 21.632C1034.19 21.336 1033.97 21.112 1033.7 20.96C1033.43 20.8 1033.14 20.72 1032.82 20.72C1032.51 20.72 1032.22 20.796 1031.96 20.948C1031.7 21.1 1031.48 21.324 1031.31 21.62C1031.15 21.908 1031.07 22.252 1031.07 22.652C1031.07 23.052 1031.15 23.404 1031.31 23.708C1031.48 24.004 1031.7 24.232 1031.96 24.392C1032.23 24.552 1032.52 24.632 1032.82 24.632C1033.14 24.632 1033.43 24.556 1033.7 24.404C1033.97 24.244 1034.19 24.02 1034.35 23.732C1034.51 23.436 1034.59 23.084 1034.59 22.676ZM1037.49 22.652C1037.49 21.98 1037.62 21.384 1037.89 20.864C1038.16 20.344 1038.53 19.944 1038.99 19.664C1039.45 19.384 1039.97 19.244 1040.54 19.244C1040.97 19.244 1041.38 19.34 1041.77 19.532C1042.17 19.716 1042.48 19.964 1042.71 20.276V17.12H1044.41V26H1042.71V25.016C1042.5 25.344 1042.21 25.608 1041.83 25.808C1041.46 26.008 1041.02 26.108 1040.53 26.108C1039.97 26.108 1039.45 25.964 1038.99 25.676C1038.53 25.388 1038.16 24.984 1037.89 24.464C1037.62 23.936 1037.49 23.332 1037.49 22.652ZM1042.72 22.676C1042.72 22.268 1042.64 21.92 1042.48 21.632C1042.32 21.336 1042.11 21.112 1041.83 20.96C1041.56 20.8 1041.27 20.72 1040.96 20.72C1040.65 20.72 1040.36 20.796 1040.09 20.948C1039.83 21.1 1039.61 21.324 1039.45 21.62C1039.29 21.908 1039.21 22.252 1039.21 22.652C1039.21 23.052 1039.29 23.404 1039.45 23.708C1039.61 24.004 1039.83 24.232 1040.09 24.392C1040.37 24.552 1040.65 24.632 1040.96 24.632C1041.27 24.632 1041.56 24.556 1041.83 24.404C1042.11 24.244 1042.32 24.02 1042.48 23.732C1042.64 23.436 1042.72 23.084 1042.72 22.676ZM1047.73 20.384C1047.95 20.032 1048.23 19.756 1048.57 19.556C1048.93 19.356 1049.33 19.256 1049.77 19.256V21.02H1049.33C1048.8 21.02 1048.4 21.144 1048.13 21.392C1047.87 21.64 1047.73 22.072 1047.73 22.688V26H1046.05V19.352H1047.73V20.384ZM1057.09 22.532C1057.09 22.772 1057.07 22.988 1057.04 23.18H1052.18C1052.22 23.66 1052.39 24.036 1052.68 24.308C1052.98 24.58 1053.34 24.716 1053.77 24.716C1054.4 24.716 1054.84 24.448 1055.11 23.912H1056.92C1056.73 24.552 1056.36 25.08 1055.81 25.496C1055.27 25.904 1054.6 26.108 1053.81 26.108C1053.17 26.108 1052.59 25.968 1052.08 25.688C1051.58 25.4 1051.18 24.996 1050.89 24.476C1050.61 23.956 1050.47 23.356 1050.47 22.676C1050.47 21.988 1050.61 21.384 1050.89 20.864C1051.17 20.344 1051.57 19.944 1052.07 19.664C1052.57 19.384 1053.15 19.244 1053.81 19.244C1054.44 19.244 1055.01 19.38 1055.5 19.652C1056.01 19.924 1056.39 20.312 1056.67 20.816C1056.95 21.312 1057.09 21.884 1057.09 22.532ZM1055.35 22.052C1055.34 21.62 1055.18 21.276 1054.88 21.02C1054.57 20.756 1054.2 20.624 1053.76 20.624C1053.35 20.624 1052.99 20.752 1052.71 21.008C1052.43 21.256 1052.25 21.604 1052.19 22.052H1055.35ZM1060.86 26.108C1060.31 26.108 1059.82 26.012 1059.39 25.82C1058.96 25.62 1058.62 25.352 1058.36 25.016C1058.11 24.68 1057.98 24.308 1057.95 23.9H1059.64C1059.68 24.156 1059.8 24.368 1060.02 24.536C1060.24 24.704 1060.52 24.788 1060.84 24.788C1061.16 24.788 1061.41 24.724 1061.59 24.596C1061.77 24.468 1061.86 24.304 1061.86 24.104C1061.86 23.888 1061.75 23.728 1061.53 23.624C1061.31 23.512 1060.96 23.392 1060.48 23.264C1059.99 23.144 1059.58 23.02 1059.26 22.892C1058.95 22.764 1058.68 22.568 1058.44 22.304C1058.22 22.04 1058.11 21.684 1058.11 21.236C1058.11 20.868 1058.21 20.532 1058.42 20.228C1058.64 19.924 1058.94 19.684 1059.33 19.508C1059.73 19.332 1060.2 19.244 1060.74 19.244C1061.53 19.244 1062.16 19.444 1062.63 19.844C1063.1 20.236 1063.36 20.768 1063.41 21.44H1061.8C1061.78 21.176 1061.67 20.968 1061.47 20.816C1061.28 20.656 1061.02 20.576 1060.69 20.576C1060.38 20.576 1060.15 20.632 1059.98 20.744C1059.82 20.856 1059.74 21.012 1059.74 21.212C1059.74 21.436 1059.85 21.608 1060.08 21.728C1060.3 21.84 1060.65 21.956 1061.12 22.076C1061.6 22.196 1062 22.32 1062.31 22.448C1062.62 22.576 1062.89 22.776 1063.11 23.048C1063.34 23.312 1063.46 23.664 1063.47 24.104C1063.47 24.488 1063.36 24.832 1063.15 25.136C1062.94 25.44 1062.64 25.68 1062.24 25.856C1061.84 26.024 1061.38 26.108 1060.86 26.108ZM1067.4 26.108C1066.85 26.108 1066.36 26.012 1065.93 25.82C1065.5 25.62 1065.16 25.352 1064.9 25.016C1064.65 24.68 1064.52 24.308 1064.49 23.9H1066.18C1066.22 24.156 1066.34 24.368 1066.56 24.536C1066.78 24.704 1067.06 24.788 1067.38 24.788C1067.7 24.788 1067.95 24.724 1068.13 24.596C1068.31 24.468 1068.4 24.304 1068.4 24.104C1068.4 23.888 1068.29 23.728 1068.07 23.624C1067.85 23.512 1067.5 23.392 1067.02 23.264C1066.53 23.144 1066.12 23.02 1065.8 22.892C1065.49 22.764 1065.22 22.568 1064.98 22.304C1064.76 22.04 1064.65 21.684 1064.65 21.236C1064.65 20.868 1064.75 20.532 1064.96 20.228C1065.18 19.924 1065.48 19.684 1065.87 19.508C1066.27 19.332 1066.74 19.244 1067.28 19.244C1068.07 19.244 1068.7 19.444 1069.17 19.844C1069.64 20.236 1069.9 20.768 1069.95 21.44H1068.34C1068.32 21.176 1068.21 20.968 1068.01 20.816C1067.82 20.656 1067.56 20.576 1067.23 20.576C1066.92 20.576 1066.69 20.632 1066.52 20.744C1066.36 20.856 1066.28 21.012 1066.28 21.212C1066.28 21.436 1066.39 21.608 1066.62 21.728C1066.84 21.84 1067.19 21.956 1067.66 22.076C1068.14 22.196 1068.54 22.32 1068.85 22.448C1069.16 22.576 1069.43 22.776 1069.65 23.048C1069.88 23.312 1070 23.664 1070.01 24.104C1070.01 24.488 1069.9 24.832 1069.69 25.136C1069.48 25.44 1069.18 25.68 1068.78 25.856C1068.38 26.024 1067.92 26.108 1067.4 26.108ZM1073.23 24.236L1071.82 27.608H1070.74L1071.52 24.236H1073.23ZM1076.9 18.8V17.252H1079.79V26H1078.06V18.8H1076.9ZM1081.98 24.104C1082.75 23.464 1083.36 22.932 1083.82 22.508C1084.27 22.076 1084.65 21.628 1084.96 21.164C1085.26 20.7 1085.41 20.244 1085.41 19.796C1085.41 19.388 1085.32 19.068 1085.12 18.836C1084.93 18.604 1084.64 18.488 1084.24 18.488C1083.84 18.488 1083.53 18.624 1083.31 18.896C1083.1 19.16 1082.98 19.524 1082.98 19.988H1081.34C1081.38 19.028 1081.66 18.3 1082.2 17.804C1082.74 17.308 1083.43 17.06 1084.26 17.06C1085.17 17.06 1085.87 17.304 1086.36 17.792C1086.85 18.272 1087.09 18.908 1087.09 19.7C1087.09 20.324 1086.92 20.92 1086.59 21.488C1086.25 22.056 1085.87 22.552 1085.44 22.976C1085 23.392 1084.44 23.896 1083.74 24.488H1087.28V25.88H1081.36V24.632L1081.98 24.104ZM1088.37 19.556C1088.41 18.756 1088.69 18.14 1089.21 17.708C1089.74 17.268 1090.43 17.048 1091.28 17.048C1091.87 17.048 1092.37 17.152 1092.78 17.36C1093.2 17.56 1093.51 17.836 1093.72 18.188C1093.94 18.532 1094.04 18.924 1094.04 19.364C1094.04 19.868 1093.91 20.296 1093.65 20.648C1093.39 20.992 1093.08 21.224 1092.72 21.344V21.392C1093.19 21.536 1093.55 21.792 1093.8 22.16C1094.07 22.528 1094.2 23 1094.2 23.576C1094.2 24.056 1094.09 24.484 1093.86 24.86C1093.65 25.236 1093.32 25.532 1092.89 25.748C1092.47 25.956 1091.96 26.06 1091.36 26.06C1090.45 26.06 1089.72 25.832 1089.15 25.376C1088.58 24.92 1088.28 24.248 1088.25 23.36H1089.88C1089.9 23.752 1090.03 24.068 1090.28 24.308C1090.53 24.54 1090.88 24.656 1091.32 24.656C1091.73 24.656 1092.04 24.544 1092.26 24.32C1092.48 24.088 1092.59 23.792 1092.59 23.432C1092.59 22.952 1092.44 22.608 1092.14 22.4C1091.83 22.192 1091.36 22.088 1090.72 22.088H1090.37V20.708H1090.72C1091.86 20.708 1092.42 20.328 1092.42 19.568C1092.42 19.224 1092.32 18.956 1092.11 18.764C1091.91 18.572 1091.62 18.476 1091.24 18.476C1090.86 18.476 1090.57 18.58 1090.36 18.788C1090.16 18.988 1090.04 19.244 1090.01 19.556H1088.37ZM1095.45 24.296V22.976L1099.38 17.36H1101.33V22.832H1102.39V24.296H1101.33V26H1099.65V24.296H1095.45ZM1099.76 19.16L1097.3 22.832H1099.76V19.16Z" fill="#ACACAC"/>
<path d="M1108.96 21.8C1108.96 20.976 1109.15 20.24 1109.51 19.592C1109.89 18.936 1110.4 18.428 1111.04 18.068C1111.69 17.7 1112.41 17.516 1113.21 17.516C1114.15 17.516 1114.97 17.756 1115.67 18.236C1116.37 18.716 1116.87 19.38 1117.15 20.228H1115.21C1115.02 19.828 1114.75 19.528 1114.4 19.328C1114.05 19.128 1113.65 19.028 1113.2 19.028C1112.71 19.028 1112.27 19.144 1111.89 19.376C1111.51 19.6 1111.22 19.92 1111 20.336C1110.79 20.752 1110.69 21.24 1110.69 21.8C1110.69 22.352 1110.79 22.84 1111 23.264C1111.22 23.68 1111.51 24.004 1111.89 24.236C1112.27 24.46 1112.71 24.572 1113.2 24.572C1113.65 24.572 1114.05 24.472 1114.4 24.272C1114.75 24.064 1115.02 23.76 1115.21 23.36H1117.15C1116.87 24.216 1116.37 24.884 1115.67 25.364C1114.97 25.836 1114.15 26.072 1113.21 26.072C1112.41 26.072 1111.69 25.892 1111.04 25.532C1110.4 25.164 1109.89 24.656 1109.51 24.008C1109.15 23.36 1108.96 22.624 1108.96 21.8ZM1121.53 26.108C1120.89 26.108 1120.32 25.968 1119.81 25.688C1119.29 25.4 1118.89 24.996 1118.59 24.476C1118.31 23.956 1118.16 23.356 1118.16 22.676C1118.16 21.996 1118.31 21.396 1118.61 20.876C1118.91 20.356 1119.32 19.956 1119.84 19.676C1120.36 19.388 1120.94 19.244 1121.58 19.244C1122.22 19.244 1122.8 19.388 1123.32 19.676C1123.84 19.956 1124.25 20.356 1124.55 20.876C1124.85 21.396 1125 21.996 1125 22.676C1125 23.356 1124.85 23.956 1124.53 24.476C1124.23 24.996 1123.81 25.4 1123.29 25.688C1122.77 25.968 1122.18 26.108 1121.53 26.108ZM1121.53 24.644C1121.84 24.644 1122.12 24.572 1122.39 24.428C1122.66 24.276 1122.87 24.052 1123.03 23.756C1123.19 23.46 1123.27 23.1 1123.27 22.676C1123.27 22.044 1123.11 21.56 1122.77 21.224C1122.44 20.88 1122.04 20.708 1121.56 20.708C1121.08 20.708 1120.67 20.88 1120.35 21.224C1120.03 21.56 1119.87 22.044 1119.87 22.676C1119.87 23.308 1120.02 23.796 1120.33 24.14C1120.65 24.476 1121.05 24.644 1121.53 24.644ZM1129.92 19.256C1130.71 19.256 1131.35 19.508 1131.84 20.012C1132.33 20.508 1132.57 21.204 1132.57 22.1V26H1130.89V22.328C1130.89 21.8 1130.76 21.396 1130.49 21.116C1130.23 20.828 1129.87 20.684 1129.41 20.684C1128.95 20.684 1128.58 20.828 1128.31 21.116C1128.05 21.396 1127.91 21.8 1127.91 22.328V26H1126.23V19.352H1127.91V20.18C1128.14 19.892 1128.42 19.668 1128.77 19.508C1129.12 19.34 1129.5 19.256 1129.92 19.256ZM1136.12 20.732V23.948C1136.12 24.172 1136.18 24.336 1136.28 24.44C1136.39 24.536 1136.58 24.584 1136.83 24.584H1137.61V26H1136.56C1135.14 26 1134.43 25.312 1134.43 23.936V20.732H1133.64V19.352H1134.43V17.708H1136.12V19.352H1137.61V20.732H1136.12ZM1138.39 22.652C1138.39 21.98 1138.52 21.384 1138.78 20.864C1139.06 20.344 1139.42 19.944 1139.88 19.664C1140.34 19.384 1140.86 19.244 1141.42 19.244C1141.92 19.244 1142.35 19.344 1142.72 19.544C1143.1 19.744 1143.4 19.996 1143.62 20.3V19.352H1145.31V26H1143.62V25.028C1143.4 25.34 1143.1 25.6 1142.72 25.808C1142.34 26.008 1141.91 26.108 1141.41 26.108C1140.85 26.108 1140.34 25.964 1139.88 25.676C1139.42 25.388 1139.06 24.984 1138.78 24.464C1138.52 23.936 1138.39 23.332 1138.39 22.652ZM1143.62 22.676C1143.62 22.268 1143.54 21.92 1143.38 21.632C1143.22 21.336 1143 21.112 1142.73 20.96C1142.46 20.8 1142.17 20.72 1141.86 20.72C1141.54 20.72 1141.26 20.796 1140.99 20.948C1140.73 21.1 1140.51 21.324 1140.34 21.62C1140.18 21.908 1140.1 22.252 1140.1 22.652C1140.1 23.052 1140.18 23.404 1140.34 23.708C1140.51 24.004 1140.73 24.232 1140.99 24.392C1141.26 24.552 1141.55 24.632 1141.86 24.632C1142.17 24.632 1142.46 24.556 1142.73 24.404C1143 24.244 1143.22 24.02 1143.38 23.732C1143.54 23.436 1143.62 23.084 1143.62 22.676ZM1146.52 22.676C1146.52 21.988 1146.66 21.388 1146.94 20.876C1147.22 20.356 1147.61 19.956 1148.11 19.676C1148.6 19.388 1149.17 19.244 1149.81 19.244C1150.63 19.244 1151.31 19.452 1151.85 19.868C1152.39 20.276 1152.76 20.852 1152.94 21.596H1151.13C1151.03 21.308 1150.87 21.084 1150.64 20.924C1150.41 20.756 1150.13 20.672 1149.8 20.672C1149.32 20.672 1148.94 20.848 1148.66 21.2C1148.38 21.544 1148.24 22.036 1148.24 22.676C1148.24 23.308 1148.38 23.8 1148.66 24.152C1148.94 24.496 1149.32 24.668 1149.8 24.668C1150.48 24.668 1150.92 24.364 1151.13 23.756H1152.94C1152.76 24.476 1152.39 25.048 1151.85 25.472C1151.31 25.896 1150.63 26.108 1149.81 26.108C1149.17 26.108 1148.6 25.968 1148.11 25.688C1147.61 25.4 1147.22 25 1146.94 24.488C1146.66 23.968 1146.52 23.364 1146.52 22.676ZM1156.13 20.732V23.948C1156.13 24.172 1156.18 24.336 1156.28 24.44C1156.4 24.536 1156.58 24.584 1156.84 24.584H1157.62V26H1156.56C1155.14 26 1154.44 25.312 1154.44 23.936V20.732H1153.64V19.352H1154.44V17.708H1156.13V19.352H1157.62V20.732H1156.13ZM1163.34 17.624V22.808C1163.34 23.376 1163.49 23.812 1163.78 24.116C1164.08 24.412 1164.5 24.56 1165.03 24.56C1165.58 24.56 1166 24.412 1166.29 24.116C1166.59 23.812 1166.74 23.376 1166.74 22.808V17.624H1168.43V22.796C1168.43 23.508 1168.27 24.112 1167.96 24.608C1167.66 25.096 1167.24 25.464 1166.72 25.712C1166.21 25.96 1165.64 26.084 1165.01 26.084C1164.38 26.084 1163.82 25.96 1163.3 25.712C1162.8 25.464 1162.4 25.096 1162.1 24.608C1161.81 24.112 1161.66 23.508 1161.66 22.796V17.624H1163.34ZM1172.59 26.108C1172.05 26.108 1171.56 26.012 1171.13 25.82C1170.7 25.62 1170.35 25.352 1170.1 25.016C1169.85 24.68 1169.71 24.308 1169.69 23.9H1171.38C1171.41 24.156 1171.54 24.368 1171.75 24.536C1171.98 24.704 1172.25 24.788 1172.58 24.788C1172.9 24.788 1173.15 24.724 1173.33 24.596C1173.51 24.468 1173.6 24.304 1173.6 24.104C1173.6 23.888 1173.49 23.728 1173.27 23.624C1173.05 23.512 1172.7 23.392 1172.22 23.264C1171.73 23.144 1171.32 23.02 1171 22.892C1170.69 22.764 1170.41 22.568 1170.18 22.304C1169.96 22.04 1169.85 21.684 1169.85 21.236C1169.85 20.868 1169.95 20.532 1170.16 20.228C1170.37 19.924 1170.68 19.684 1171.07 19.508C1171.47 19.332 1171.94 19.244 1172.47 19.244C1173.27 19.244 1173.9 19.444 1174.37 19.844C1174.84 20.236 1175.1 20.768 1175.15 21.44H1173.54C1173.52 21.176 1173.41 20.968 1173.21 20.816C1173.01 20.656 1172.75 20.576 1172.43 20.576C1172.12 20.576 1171.89 20.632 1171.72 20.744C1171.56 20.856 1171.48 21.012 1171.48 21.212C1171.48 21.436 1171.59 21.608 1171.81 21.728C1172.04 21.84 1172.39 21.956 1172.86 22.076C1173.34 22.196 1173.73 22.32 1174.05 22.448C1174.36 22.576 1174.63 22.776 1174.85 23.048C1175.08 23.312 1175.2 23.664 1175.21 24.104C1175.21 24.488 1175.1 24.832 1174.89 25.136C1174.68 25.44 1174.37 25.68 1173.97 25.856C1173.58 26.024 1173.12 26.108 1172.59 26.108Z" fill="white"/>
<path d="M1106 33L1179 33" stroke="white" stroke-width="2" stroke-linecap="round"/>
<path d="M267.96 17.624V26H266.28V20.552L264.036 26H262.764L260.508 20.552V26H258.828V17.624H260.736L263.4 23.852L266.064 17.624H267.96ZM272.573 26.108C271.933 26.108 271.357 25.968 270.845 25.688C270.333 25.4 269.929 24.996 269.633 24.476C269.345 23.956 269.201 23.356 269.201 22.676C269.201 21.996 269.349 21.396 269.645 20.876C269.949 20.356 270.361 19.956 270.881 19.676C271.401 19.388 271.981 19.244 272.621 19.244C273.261 19.244 273.841 19.388 274.361 19.676C274.881 19.956 275.289 20.356 275.585 20.876C275.889 21.396 276.041 21.996 276.041 22.676C276.041 23.356 275.885 23.956 275.573 24.476C275.269 24.996 274.853 25.4 274.325 25.688C273.805 25.968 273.221 26.108 272.573 26.108ZM272.573 24.644C272.877 24.644 273.161 24.572 273.425 24.428C273.697 24.276 273.913 24.052 274.073 23.756C274.233 23.46 274.313 23.1 274.313 22.676C274.313 22.044 274.145 21.56 273.809 21.224C273.481 20.88 273.077 20.708 272.597 20.708C272.117 20.708 271.713 20.88 271.385 21.224C271.065 21.56 270.905 22.044 270.905 22.676C270.905 23.308 271.061 23.796 271.373 24.14C271.693 24.476 272.093 24.644 272.573 24.644ZM280.957 19.256C281.749 19.256 282.389 19.508 282.877 20.012C283.365 20.508 283.609 21.204 283.609 22.1V26H281.929V22.328C281.929 21.8 281.797 21.396 281.533 21.116C281.269 20.828 280.909 20.684 280.453 20.684C279.989 20.684 279.621 20.828 279.349 21.116C279.085 21.396 278.953 21.8 278.953 22.328V26H277.273V19.352H278.953V20.18C279.177 19.892 279.461 19.668 279.805 19.508C280.157 19.34 280.541 19.256 280.957 19.256ZM290.319 21.008V22.424H285.231V21.008H290.319ZM297.903 17.624V18.98H295.671V26H293.991V18.98H291.759V17.624H297.903ZM302.873 19.256C303.377 19.256 303.825 19.368 304.217 19.592C304.609 19.808 304.913 20.132 305.129 20.564C305.353 20.988 305.465 21.5 305.465 22.1V26H303.785V22.328C303.785 21.8 303.653 21.396 303.389 21.116C303.125 20.828 302.765 20.684 302.309 20.684C301.845 20.684 301.477 20.828 301.205 21.116C300.941 21.396 300.809 21.8 300.809 22.328V26H299.129V17.12H300.809V20.18C301.025 19.892 301.313 19.668 301.673 19.508C302.033 19.34 302.433 19.256 302.873 19.256ZM313.338 19.352V26H311.646V25.16C311.43 25.448 311.146 25.676 310.794 25.844C310.45 26.004 310.074 26.084 309.666 26.084C309.146 26.084 308.686 25.976 308.286 25.76C307.886 25.536 307.57 25.212 307.338 24.788C307.114 24.356 307.002 23.844 307.002 23.252V19.352H308.682V23.012C308.682 23.54 308.814 23.948 309.078 24.236C309.342 24.516 309.702 24.656 310.158 24.656C310.622 24.656 310.986 24.516 311.25 24.236C311.514 23.948 311.646 23.54 311.646 23.012V19.352H313.338ZM315.74 26.084C315.436 26.084 315.184 25.992 314.984 25.808C314.792 25.616 314.696 25.38 314.696 25.1C314.696 24.82 314.792 24.588 314.984 24.404C315.184 24.212 315.436 24.116 315.74 24.116C316.036 24.116 316.28 24.212 316.472 24.404C316.664 24.588 316.76 24.82 316.76 25.1C316.76 25.38 316.664 25.616 316.472 25.808C316.28 25.992 316.036 26.084 315.74 26.084ZM315.74 21.116C315.436 21.116 315.184 21.024 314.984 20.84C314.792 20.648 314.696 20.412 314.696 20.132C314.696 19.852 314.792 19.62 314.984 19.436C315.184 19.244 315.436 19.148 315.74 19.148C316.036 19.148 316.28 19.244 316.472 19.436C316.664 19.62 316.76 19.852 316.76 20.132C316.76 20.412 316.664 20.648 316.472 20.84C316.28 21.024 316.036 21.116 315.74 21.116Z" fill="#A2A6B0"/>
<path d="M325.619 23.54C325.683 23.892 325.827 24.164 326.051 24.356C326.283 24.54 326.591 24.632 326.975 24.632C327.471 24.632 327.831 24.428 328.055 24.02C328.279 23.604 328.391 22.908 328.391 21.932C328.207 22.188 327.947 22.388 327.611 22.532C327.283 22.676 326.927 22.748 326.543 22.748C326.031 22.748 325.567 22.644 325.151 22.436C324.743 22.22 324.419 21.904 324.179 21.488C323.939 21.064 323.819 20.552 323.819 19.952C323.819 19.064 324.083 18.36 324.611 17.84C325.139 17.312 325.859 17.048 326.771 17.048C327.907 17.048 328.707 17.412 329.171 18.14C329.643 18.868 329.879 19.964 329.879 21.428C329.879 22.468 329.787 23.32 329.603 23.984C329.427 24.648 329.119 25.152 328.679 25.496C328.247 25.84 327.655 26.012 326.903 26.012C326.311 26.012 325.807 25.9 325.391 25.676C324.975 25.444 324.655 25.144 324.431 24.776C324.215 24.4 324.091 23.988 324.059 23.54H325.619ZM326.891 21.38C327.307 21.38 327.635 21.252 327.875 20.996C328.115 20.74 328.235 20.396 328.235 19.964C328.235 19.492 328.107 19.128 327.851 18.872C327.603 18.608 327.263 18.476 326.831 18.476C326.399 18.476 326.055 18.612 325.799 18.884C325.551 19.148 325.427 19.5 325.427 19.94C325.427 20.364 325.547 20.712 325.787 20.984C326.035 21.248 326.403 21.38 326.891 21.38ZM332.123 26.084C331.819 26.084 331.567 25.992 331.367 25.808C331.175 25.616 331.079 25.38 331.079 25.1C331.079 24.82 331.175 24.588 331.367 24.404C331.567 24.212 331.819 24.116 332.123 24.116C332.419 24.116 332.663 24.212 332.855 24.404C333.047 24.588 333.143 24.82 333.143 25.1C333.143 25.38 333.047 25.616 332.855 25.808C332.663 25.992 332.419 26.084 332.123 26.084ZM332.123 21.116C331.819 21.116 331.567 21.024 331.367 20.84C331.175 20.648 331.079 20.412 331.079 20.132C331.079 19.852 331.175 19.62 331.367 19.436C331.567 19.244 331.819 19.148 332.123 19.148C332.419 19.148 332.663 19.244 332.855 19.436C333.047 19.62 333.143 19.852 333.143 20.132C333.143 20.412 333.047 20.648 332.855 20.84C332.663 21.024 332.419 21.116 332.123 21.116ZM334.339 21.512C334.339 20.128 334.587 19.044 335.083 18.26C335.587 17.476 336.419 17.084 337.579 17.084C338.739 17.084 339.567 17.476 340.063 18.26C340.567 19.044 340.819 20.128 340.819 21.512C340.819 22.904 340.567 23.996 340.063 24.788C339.567 25.58 338.739 25.976 337.579 25.976C336.419 25.976 335.587 25.58 335.083 24.788C334.587 23.996 334.339 22.904 334.339 21.512ZM339.163 21.512C339.163 20.92 339.123 20.424 339.043 20.024C338.971 19.616 338.819 19.284 338.587 19.028C338.363 18.772 338.027 18.644 337.579 18.644C337.131 18.644 336.791 18.772 336.559 19.028C336.335 19.284 336.183 19.616 336.103 20.024C336.031 20.424 335.995 20.92 335.995 21.512C335.995 22.12 336.031 22.632 336.103 23.048C336.175 23.456 336.327 23.788 336.559 24.044C336.791 24.292 337.131 24.416 337.579 24.416C338.027 24.416 338.367 24.292 338.599 24.044C338.831 23.788 338.983 23.456 339.055 23.048C339.127 22.632 339.163 22.12 339.163 21.512ZM342.097 21.512C342.097 20.128 342.345 19.044 342.841 18.26C343.345 17.476 344.177 17.084 345.337 17.084C346.497 17.084 347.325 17.476 347.821 18.26C348.325 19.044 348.577 20.128 348.577 21.512C348.577 22.904 348.325 23.996 347.821 24.788C347.325 25.58 346.497 25.976 345.337 25.976C344.177 25.976 343.345 25.58 342.841 24.788C342.345 23.996 342.097 22.904 342.097 21.512ZM346.921 21.512C346.921 20.92 346.881 20.424 346.801 20.024C346.729 19.616 346.577 19.284 346.345 19.028C346.121 18.772 345.785 18.644 345.337 18.644C344.889 18.644 344.549 18.772 344.317 19.028C344.093 19.284 343.941 19.616 343.861 20.024C343.789 20.424 343.753 20.92 343.753 21.512C343.753 22.12 343.789 22.632 343.861 23.048C343.933 23.456 344.085 23.788 344.317 24.044C344.549 24.292 344.889 24.416 345.337 24.416C345.785 24.416 346.125 24.292 346.357 24.044C346.589 23.788 346.741 23.456 346.813 23.048C346.885 22.632 346.921 22.12 346.921 21.512ZM358.042 24.404H354.706L354.154 26H352.39L355.402 17.612H357.358L360.37 26H358.594L358.042 24.404ZM357.586 23.06L356.374 19.556L355.162 23.06H357.586ZM370.628 17.624V26H368.948V20.552L366.704 26H365.432L363.176 20.552V26H361.496V17.624H363.404L366.068 23.852L368.732 17.624H370.628ZM380.26 21.008V22.424H375.172V21.008H380.26ZM390.692 18.704H386.804V20.756C386.972 20.548 387.212 20.38 387.524 20.252C387.836 20.116 388.168 20.048 388.52 20.048C389.16 20.048 389.684 20.188 390.092 20.468C390.5 20.748 390.796 21.108 390.98 21.548C391.164 21.98 391.256 22.444 391.256 22.94C391.256 23.86 390.992 24.6 390.464 25.16C389.944 25.72 389.2 26 388.232 26C387.32 26 386.592 25.772 386.048 25.316C385.504 24.86 385.196 24.264 385.124 23.528H386.756C386.828 23.848 386.988 24.104 387.236 24.296C387.492 24.488 387.816 24.584 388.208 24.584C388.68 24.584 389.036 24.436 389.276 24.14C389.516 23.844 389.636 23.452 389.636 22.964C389.636 22.468 389.512 22.092 389.264 21.836C389.024 21.572 388.668 21.44 388.196 21.44C387.86 21.44 387.58 21.524 387.356 21.692C387.132 21.86 386.972 22.084 386.876 22.364H385.268V17.228H390.692V18.704ZM393.47 26.084C393.166 26.084 392.914 25.992 392.714 25.808C392.522 25.616 392.426 25.38 392.426 25.1C392.426 24.82 392.522 24.588 392.714 24.404C392.914 24.212 393.166 24.116 393.47 24.116C393.766 24.116 394.01 24.212 394.202 24.404C394.394 24.588 394.49 24.82 394.49 25.1C394.49 25.38 394.394 25.616 394.202 25.808C394.01 25.992 393.766 26.084 393.47 26.084ZM393.47 21.116C393.166 21.116 392.914 21.024 392.714 20.84C392.522 20.648 392.426 20.412 392.426 20.132C392.426 19.852 392.522 19.62 392.714 19.436C392.914 19.244 393.166 19.148 393.47 19.148C393.766 19.148 394.01 19.244 394.202 19.436C394.394 19.62 394.49 19.852 394.49 20.132C394.49 20.412 394.394 20.648 394.202 20.84C394.01 21.024 393.766 21.116 393.47 21.116ZM395.711 19.556C395.751 18.756 396.031 18.14 396.551 17.708C397.079 17.268 397.771 17.048 398.627 17.048C399.211 17.048 399.711 17.152 400.127 17.36C400.543 17.56 400.855 17.836 401.063 18.188C401.279 18.532 401.387 18.924 401.387 19.364C401.387 19.868 401.255 20.296 400.991 20.648C400.735 20.992 400.427 21.224 400.067 21.344V21.392C400.531 21.536 400.891 21.792 401.147 22.16C401.411 22.528 401.543 23 401.543 23.576C401.543 24.056 401.431 24.484 401.207 24.86C400.991 25.236 400.667 25.532 400.235 25.748C399.811 25.956 399.299 26.06 398.699 26.06C397.795 26.06 397.059 25.832 396.491 25.376C395.923 24.92 395.623 24.248 395.591 23.36H397.223C397.239 23.752 397.371 24.068 397.619 24.308C397.875 24.54 398.223 24.656 398.663 24.656C399.071 24.656 399.383 24.544 399.599 24.32C399.823 24.088 399.935 23.792 399.935 23.432C399.935 22.952 399.783 22.608 399.479 22.4C399.175 22.192 398.703 22.088 398.063 22.088H397.715V20.708H398.063C399.199 20.708 399.767 20.328 399.767 19.568C399.767 19.224 399.663 18.956 399.455 18.764C399.255 18.572 398.963 18.476 398.579 18.476C398.203 18.476 397.911 18.58 397.703 18.788C397.503 18.988 397.387 19.244 397.355 19.556H395.711ZM402.87 21.512C402.87 20.128 403.118 19.044 403.614 18.26C404.118 17.476 404.95 17.084 406.11 17.084C407.27 17.084 408.098 17.476 408.594 18.26C409.098 19.044 409.35 20.128 409.35 21.512C409.35 22.904 409.098 23.996 408.594 24.788C408.098 25.58 407.27 25.976 406.11 25.976C404.95 25.976 404.118 25.58 403.614 24.788C403.118 23.996 402.87 22.904 402.87 21.512ZM407.694 21.512C407.694 20.92 407.654 20.424 407.574 20.024C407.502 19.616 407.35 19.284 407.118 19.028C406.894 18.772 406.558 18.644 406.11 18.644C405.662 18.644 405.322 18.772 405.09 19.028C404.866 19.284 404.714 19.616 404.634 20.024C404.562 20.424 404.526 20.92 404.526 21.512C404.526 22.12 404.562 22.632 404.634 23.048C404.706 23.456 404.858 23.788 405.09 24.044C405.322 24.292 405.662 24.416 406.11 24.416C406.558 24.416 406.898 24.292 407.13 24.044C407.362 23.788 407.514 23.456 407.586 23.048C407.658 22.632 407.694 22.12 407.694 21.512ZM419.788 20.216C419.788 20.664 419.68 21.084 419.464 21.476C419.256 21.868 418.924 22.184 418.468 22.424C418.02 22.664 417.452 22.784 416.764 22.784H415.36V26H413.68V17.624H416.764C417.412 17.624 417.964 17.736 418.42 17.96C418.876 18.184 419.216 18.492 419.44 18.884C419.672 19.276 419.788 19.72 419.788 20.216ZM416.692 21.428C417.156 21.428 417.5 21.324 417.724 21.116C417.948 20.9 418.06 20.6 418.06 20.216C418.06 19.4 417.604 18.992 416.692 18.992H415.36V21.428H416.692ZM430.112 17.624V26H428.432V20.552L426.188 26H424.916L422.66 20.552V26H420.98V17.624H422.888L425.552 23.852L428.216 17.624H430.112Z" fill="white"/>
<path d="M446 20.7693L444 22.7693L442 20.7693" stroke="white" stroke-width="1.6" stroke-linecap="round"/>
</svg>
