<svg width="328" height="384" viewBox="0 0 328 384" fill="none" xmlns="http://www.w3.org/2000/svg">
<g clip-path="url(#clip0_158_19)">
<path d="M33.2469 195.379L13.0101 202.219L19.0823 220.207L39.3191 213.368L33.2469 195.379Z" fill="#23202F"/>
<path d="M276.251 137.345L326.113 285.042C329.731 295.755 323.984 307.373 313.277 310.994L101.649 382.525C90.9425 386.146 79.3279 380.399 75.7091 369.681L25.8479 221.989L276.251 137.345Z" fill="#323B4B"/>
<path d="M254.371 144.742C251.859 242.564 139.393 321.787 72.5487 360.322L25.8479 221.988L254.371 144.742Z" fill="#334055"/>
<path d="M278.653 129.525L284.26 146.127C285.247 149.046 283.678 152.213 280.769 153.197L30.868 237.668C27.9501 238.656 24.7897 237.086 23.8067 234.166L18.2 217.565C17.2126 214.645 18.7774 211.487 21.6954 210.499L271.592 126.028C272.43 125.745 273.285 125.67 274.104 125.785C276.145 126.054 277.948 127.443 278.653 129.525Z" fill="#CBD3DB"/>
<path d="M47.7897 201.682L33.7375 236.702L30.868 237.673C27.9501 238.661 24.7897 237.09 23.8067 234.171L18.2 217.569C17.2126 214.649 18.7774 211.491 21.6954 210.503L47.7897 201.682Z" fill="#363545"/>
<path d="M104.439 182.532L90.3869 217.552L54.2693 229.76L68.317 194.74L104.439 182.532Z" fill="#363545"/>
<path d="M161.092 163.381L147.036 198.401L110.914 210.613L124.966 175.593L161.092 163.381Z" fill="#363545"/>
<path d="M217.742 144.234L203.69 179.254L167.563 191.463L181.62 156.443L217.742 144.234Z" fill="#363545"/>
<path d="M274.105 125.785L260.335 160.104L224.217 172.312L238.269 137.292L271.592 126.028C272.43 125.745 273.285 125.67 274.105 125.785Z" fill="#363545"/>
<path d="M263.076 137.592L28.0953 217.022C26.8479 217.446 25.4903 216.775 25.0671 215.523C24.644 214.274 25.314 212.916 26.5658 212.493L261.546 133.063C262.794 132.639 264.151 133.31 264.575 134.562C264.998 135.815 264.328 137.173 263.076 137.592Z" fill="#272631"/>
<path d="M196.457 1.64039L208.812 14.0606C210.985 16.2438 210.976 19.7767 208.799 21.9467L21.8634 208.157C19.6815 210.331 16.1553 210.318 13.9822 208.135L1.6271 195.714C-0.54595 193.531 -0.537135 190.007 1.64473 187.833L188.58 1.62275C189.206 1.00086 189.942 0.55098 190.727 0.290756C192.675 -0.36642 194.91 0.0834591 196.457 1.64039Z" fill="#CBD3DB"/>
<path d="M21.1624 168.391L24.0055 206.022L21.8589 208.161C19.677 210.336 16.1507 210.323 13.9777 208.139L1.62698 195.715C-0.546072 193.532 -0.537257 190.007 1.64461 187.833L21.1624 168.391Z" fill="#363545"/>
<path d="M63.5388 126.178L66.3863 163.809L39.3664 190.718L36.5189 153.091L63.5388 126.178Z" fill="#363545"/>
<path d="M105.92 83.964L108.763 121.595L81.7434 148.508L78.896 110.882L105.92 83.964Z" fill="#363545"/>
<path d="M148.297 41.7505L151.14 79.3815L124.12 106.299L121.272 68.6682L148.297 41.7505Z" fill="#363545"/>
<path d="M190.726 0.295532L193.512 37.1723L166.492 64.0857L163.649 26.4546L188.575 1.62312C189.205 1.00122 189.942 0.555756 190.726 0.295532Z" fill="#363545"/>
<path d="M9.34466 191.423C8.51158 191.706 7.55068 191.511 6.8851 190.845C5.95505 189.91 5.95946 188.398 6.89391 187.467L182.673 12.376C183.608 11.4454 185.12 11.4498 186.05 12.3848C186.98 13.3199 186.975 14.8327 186.041 15.7633L10.2659 190.854C9.99702 191.123 9.68406 191.313 9.34466 191.423Z" fill="#272631"/>
<path d="M21.8677 199.45C22.5773 201.92 21.1536 204.501 18.6852 205.211C16.2169 205.921 13.6383 204.496 12.9286 202.026C12.219 199.556 13.6427 196.976 16.1111 196.266C18.5794 195.556 21.158 196.981 21.8677 199.45Z" fill="#23202F"/>
<path d="M285.838 205.012L62.0444 280.658C60.797 281.081 59.4394 280.411 59.0162 279.158C58.5931 277.91 59.2631 276.552 60.5149 276.128L284.308 200.483C285.556 200.059 286.914 200.73 287.337 201.982C287.76 203.235 287.085 204.589 285.838 205.012Z" fill="#CBD3DB"/>
<path d="M124.94 259.399C123.692 259.822 122.335 259.152 121.912 257.899L110.703 224.692C110.279 223.444 110.949 222.086 112.201 221.662C113.449 221.239 114.806 221.909 115.229 223.162L126.439 256.369C126.857 257.622 126.187 258.98 124.94 259.399Z" fill="#CBD3DB"/>
<path d="M238.573 220.987C237.326 221.411 235.968 220.74 235.545 219.488L224.336 186.281C223.913 185.032 224.583 183.674 225.834 183.25C227.082 182.827 228.439 183.497 228.863 184.75L240.072 217.957C240.495 219.21 239.825 220.568 238.573 220.987Z" fill="#CBD3DB"/>
<path d="M303.275 256.669L79.4818 332.315C78.2344 332.738 76.8768 332.068 76.4536 330.815C76.0305 329.567 76.7005 328.208 77.9523 327.785L301.746 252.139C302.993 251.716 304.351 252.386 304.774 253.639C305.197 254.891 304.527 256.245 303.275 256.669Z" fill="#CBD3DB"/>
<path d="M48.9442 244.535C49.5172 244.196 50.3768 243.825 51.2186 243.543C52.5234 243.102 53.449 243.062 54.2204 243.415C54.8419 243.688 55.3355 244.262 55.5868 245.016C56.0232 246.304 55.5251 247.42 54.6435 248.103L54.6567 248.147C55.4722 248.161 56.1422 248.708 56.7108 249.643C57.4777 250.9 58.0199 251.764 58.3417 252.073L57.081 252.501C56.8342 252.28 56.3405 251.508 55.6661 250.388C54.93 249.14 54.2556 248.805 53.1316 249.135L51.9812 249.524L53.4049 253.744L52.184 254.155L48.9442 244.535ZM51.6594 248.562L52.9068 248.139C54.2116 247.698 54.789 246.679 54.4143 245.567C53.9912 244.31 52.9201 244.059 51.6242 244.482C51.0335 244.681 50.6324 244.884 50.4561 245.007L51.6594 248.562Z" fill="#CBD3DB"/>
<path d="M67.5763 243.41C68.7092 246.767 67.3339 249.215 64.9184 250.026C62.4236 250.869 59.9949 249.466 58.9987 246.515C57.9541 243.419 59.1354 240.764 61.6611 239.913C64.244 239.044 66.6022 240.517 67.5763 243.41ZM60.2946 246.048C60.9999 248.13 62.7233 249.625 64.6407 248.977C66.5758 248.324 67.0518 246.114 66.3025 243.904C65.6501 241.968 63.984 240.274 61.9476 240.963C59.9332 241.642 59.5762 243.909 60.2946 246.048Z" fill="#CBD3DB"/>
<path d="M68.9558 237.628L70.1768 237.218L73.1124 245.907L77.1499 244.544L77.507 245.598L72.2484 247.376L68.9558 237.628Z" fill="#CBD3DB"/>
<path d="M76.978 234.916L78.199 234.505L81.1346 243.194L85.1722 241.827L85.5292 242.881L80.2707 244.659L76.978 234.916Z" fill="#CBD3DB"/>
<path d="M68.2201 291.636C69.084 291.019 70.1551 290.41 71.4069 289.986C73.677 289.219 75.6517 289.735 77.406 291.385C79.1735 293.03 80.7735 295.667 82.1223 299.659C83.4799 303.686 83.978 307.188 83.599 309.843C83.2331 312.538 81.7653 314.421 79.3851 315.224C78.2567 315.603 77.2782 315.815 76.4142 315.903L68.2201 291.636ZM77.168 312.917C77.6176 312.93 78.2126 312.767 78.8297 312.56C82.2105 311.417 82.7571 306.989 80.5091 300.329C78.5608 294.503 75.6781 291.358 72.337 292.487C71.5215 292.765 70.9529 293.118 70.5959 293.444L77.168 312.917Z" fill="#CBD3DB"/>
<path d="M82.6998 286.374L91.0306 311.047L89.4482 311.581L81.1174 286.908L82.6998 286.374Z" fill="#CBD3DB"/>
<path d="M86.4817 285.461C87.1693 284.861 88.2536 284.292 89.3424 283.922C91.0306 283.353 92.3309 283.604 93.5651 284.738C94.5524 285.629 95.4692 287.194 96.1084 289.1C97.2103 292.359 96.9194 294.86 95.9276 296.174L95.9629 296.285C97.131 296.624 98.2858 298.19 99.4407 300.656C101.001 303.963 102.094 306.244 102.672 307.108L101.036 307.66C100.6 307.033 99.6126 305 98.2285 302.04C96.7166 298.759 95.6279 297.7 94.1557 298.075L92.6659 298.578L96.2759 309.265L94.6935 309.799L86.4817 285.461ZM91.8548 296.166L93.4725 295.619C95.1607 295.05 95.6015 292.818 94.6538 290C93.5783 286.815 91.965 285.81 90.2812 286.339C89.5187 286.599 89.0206 286.925 88.8178 287.159L91.8548 296.166Z" fill="#CBD3DB"/>
<path d="M107.816 292.483L103.055 294.093L106.057 302.989L111.359 301.194L112.263 303.866L105.378 306.195L97.0472 281.522L103.659 279.286L104.563 281.959L99.5288 283.662L102.16 291.459L106.921 289.85L107.816 292.483Z" fill="#CBD3DB"/>
<path d="M123.516 299.169C123.133 299.95 122.167 300.929 120.677 301.432C117.226 302.601 113.144 299.086 110.416 290.992C107.807 283.269 108.64 277.156 112.435 275.873C113.96 275.357 115.146 275.692 115.714 275.987L116.212 278.713C115.414 278.329 114.414 278.179 113.396 278.523C110.526 279.494 109.865 283.834 112.051 290.313C114.092 296.351 117.125 299.65 120.104 298.644C121.065 298.318 121.912 297.586 122.339 296.748L123.516 299.169Z" fill="#CBD3DB"/>
<path d="M122.097 276.075L118.372 277.332L117.46 274.624L126.527 271.559L127.439 274.267L123.697 275.533L131.111 297.498L129.511 298.04L122.097 276.075Z" fill="#CBD3DB"/>
<path d="M142.844 279.502C145.709 287.993 144.669 293.365 141.544 294.419C138.309 295.513 134.333 291.23 131.812 283.759C129.167 275.925 129.854 269.984 133.125 268.877C136.471 267.748 140.376 272.181 142.844 279.502ZM133.482 283.115C135.263 288.385 138.273 292.628 140.759 291.786C143.267 290.939 143.113 285.81 141.222 280.208C139.565 275.304 136.563 270.606 133.932 271.497C131.318 272.388 131.653 277.698 133.482 283.115Z" fill="#CBD3DB"/>
<path d="M141.844 266.752C142.531 266.152 143.616 265.583 144.704 265.212C146.393 264.643 147.693 264.895 148.927 266.028C149.914 266.919 150.831 268.485 151.47 270.386C152.572 273.645 152.281 276.146 151.29 277.46L151.325 277.571C152.493 277.91 153.648 279.476 154.803 281.942C156.363 285.249 157.456 287.53 158.034 288.394L156.398 288.946C155.962 288.319 154.975 286.286 153.591 283.326C152.079 280.045 150.99 278.986 149.518 279.361L148.028 279.864L151.638 290.551L150.056 291.085L141.844 266.752ZM147.217 277.456L148.835 276.909C150.523 276.34 150.964 274.108 150.016 271.29C148.94 268.106 147.327 267.1 145.643 267.629C144.881 267.885 144.383 268.216 144.18 268.45L147.217 277.456Z" fill="#CBD3DB"/>
<path d="M126.293 227.396C126.959 227.559 127.854 227.576 128.696 227.294C129.943 226.871 130.445 225.945 130.11 224.961C129.802 224.052 129.123 223.7 127.677 223.625C125.945 223.58 124.711 223.082 124.248 221.706C123.737 220.189 124.574 218.649 126.412 218.028C127.382 217.701 128.158 217.697 128.665 217.798L128.674 218.936C128.308 218.866 127.576 218.791 126.721 219.082C125.429 219.518 125.209 220.48 125.434 221.146C125.742 222.059 126.47 222.31 127.946 222.39C129.758 222.487 130.842 223.007 131.327 224.436C131.834 225.94 131.195 227.607 128.964 228.362C128.052 228.67 126.963 228.732 126.342 228.556L126.293 227.396Z" fill="#CBD3DB"/>
<path d="M141.791 223.51C141.421 223.894 140.601 224.427 139.451 224.816C136.784 225.715 134.196 224.657 133.117 221.464C132.085 218.411 133.394 215.668 136.325 214.676C137.502 214.279 138.335 214.288 138.715 214.349L138.767 215.474C138.225 215.399 137.507 215.448 136.722 215.712C134.505 216.462 133.527 218.42 134.39 220.978C135.197 223.364 137.044 224.445 139.345 223.669C140.09 223.417 140.791 223.003 141.201 222.593L141.791 223.51Z" fill="#CBD3DB"/>
<path d="M148.183 216.612L144.507 217.856L145.692 221.371L149.787 219.986L150.144 221.04L144.828 222.835L141.54 213.088L146.644 211.363L147.001 212.417L143.118 213.732L144.158 216.81L147.834 215.567L148.183 216.612Z" fill="#CBD3DB"/>
<path d="M153.133 220.03L149.844 210.283L151.176 209.833L155.87 213.741C156.959 214.645 157.849 215.487 158.638 216.334L158.66 216.312C158.109 215.051 157.681 213.873 157.166 212.351L155.79 208.276L156.941 207.888L160.229 217.635L158.995 218.054L154.323 214.124C153.296 213.264 152.291 212.36 151.458 211.469L151.422 211.496C151.907 212.7 152.33 213.864 152.877 215.483L154.283 219.646L153.133 220.03Z" fill="#CBD3DB"/>
<path d="M167.118 210.212L163.442 211.456L164.628 214.971L168.723 213.586L169.08 214.64L163.764 216.435L160.476 206.688L165.58 204.964L165.937 206.018L162.054 207.332L163.094 210.411L166.77 209.167L167.118 210.212Z" fill="#CBD3DB"/>
<path d="M214.797 305.71C214.427 306.094 213.607 306.628 212.457 307.016C209.79 307.916 207.203 306.861 206.123 303.664C205.091 300.612 206.4 297.868 209.332 296.876C210.509 296.479 211.342 296.488 211.721 296.549L211.774 297.674C211.231 297.599 210.513 297.648 209.728 297.912C207.511 298.662 206.533 300.62 207.397 303.179C208.203 305.565 210.05 306.645 212.351 305.869C213.096 305.618 213.797 305.203 214.207 304.793L214.797 305.71Z" fill="#CBD3DB"/>
<path d="M218.386 301.436L218.438 304.832L217.178 305.26L217.099 294.428L218.571 293.929L225.085 302.587L223.781 303.028L221.736 300.303L218.386 301.436ZM221.154 299.403L219.28 296.911C218.857 296.346 218.518 295.813 218.187 295.297L218.161 295.306C218.214 295.932 218.262 296.576 218.28 297.229L218.306 300.36L221.154 299.403Z" fill="#CBD3DB"/>
<path d="M234.346 294.688C233.817 293.352 233.182 291.746 232.786 290.529L232.742 290.542C232.803 291.795 232.821 293.14 232.799 294.648L232.728 299.941L231.803 300.254L228.708 296.13C227.796 294.909 226.994 293.78 226.337 292.712L226.31 292.721C226.694 293.947 227.174 295.601 227.584 297.092L228.744 301.357L227.58 301.749L224.948 291.782L226.504 291.257L229.709 295.425C230.507 296.492 231.19 297.454 231.772 298.384L231.816 298.371C231.723 297.308 231.697 296.122 231.706 294.75L231.798 289.466L233.354 288.941L237.233 298.49L236.043 298.891L234.346 294.688Z" fill="#CBD3DB"/>
<path d="M243.854 291.151L240.178 292.395L241.363 295.91L245.458 294.525L245.815 295.579L240.499 297.374L237.207 287.627L242.311 285.902L242.668 286.956L238.785 288.271L239.825 291.349L243.501 290.106L243.854 291.151Z" fill="#CBD3DB"/>
<path d="M245.56 284.954C246.133 284.614 246.992 284.244 247.834 283.962C249.139 283.521 250.064 283.481 250.836 283.834C251.457 284.107 251.951 284.681 252.202 285.435C252.639 286.723 252.14 287.839 251.259 288.522L251.272 288.566C252.088 288.58 252.758 289.126 253.326 290.066C254.093 291.318 254.635 292.183 254.957 292.496L253.696 292.924C253.45 292.703 252.956 291.932 252.281 290.811C251.545 289.563 250.871 289.228 249.747 289.559L248.597 289.947L250.02 294.168L248.799 294.578L245.56 284.954ZM248.275 288.981L249.522 288.557C250.827 288.116 251.404 287.098 251.03 285.986C250.607 284.729 249.535 284.478 248.24 284.901C247.649 285.1 247.248 285.302 247.071 285.426L248.275 288.981Z" fill="#CBD3DB"/>
<path d="M258.316 287.94L258.369 291.336L257.108 291.764L257.029 280.932L258.501 280.433L265.016 289.091L263.711 289.532L261.666 286.806L258.316 287.94ZM261.084 285.907L259.21 283.415C258.787 282.85 258.448 282.316 258.117 281.8L258.091 281.809C258.144 282.436 258.192 283.079 258.21 283.732L258.236 286.864L261.084 285.907Z" fill="#CBD3DB"/>
<path d="M245.172 188.565C244.802 188.949 243.982 189.483 242.831 189.871C240.164 190.771 237.577 189.712 236.497 186.519C235.466 183.467 236.775 180.723 239.706 179.731C240.883 179.334 241.716 179.343 242.095 179.405L242.148 180.529C241.606 180.454 240.887 180.503 240.103 180.767C237.886 181.517 236.907 183.476 237.771 186.034C238.578 188.42 240.425 189.5 242.725 188.724C243.47 188.473 244.171 188.058 244.581 187.648L245.172 188.565Z" fill="#CBD3DB"/>
<path d="M246.141 177.737L248.09 183.506C248.826 185.69 250.077 186.298 251.343 185.87C252.744 185.394 253.322 184.137 252.594 181.985L250.646 176.216L251.88 175.797L253.798 181.477C254.807 184.472 253.696 186.219 251.647 186.911C249.712 187.564 247.869 186.916 246.847 183.894L244.907 178.152L246.141 177.737Z" fill="#CBD3DB"/>
<path d="M257.553 175.069L254.68 176.039L254.318 174.967L261.318 172.603L261.679 173.675L258.792 174.65L261.723 183.325L260.489 183.745L257.553 175.069Z" fill="#CBD3DB"/>
<path d="M81.3156 340.47C82.0208 340.104 82.8759 339.716 83.8412 339.389C85.5955 338.798 86.984 338.794 88.0816 339.31C89.1923 339.822 90.0651 340.783 90.594 342.358C91.1318 343.95 91.0921 345.41 90.5147 346.605C89.9372 347.814 88.6458 348.802 86.8077 349.419C85.9394 349.715 85.1944 349.917 84.5509 350.054L81.3156 340.47ZM85.4457 348.678C85.7719 348.634 86.2259 348.493 86.7063 348.334C89.3157 347.452 90.2237 345.472 89.3334 342.838C88.5708 340.536 86.8165 339.5 84.2335 340.373C83.6032 340.585 83.1448 340.805 82.8451 340.986L85.4457 348.678Z" fill="#CBD3DB"/>
<path d="M95.6012 342.94L95.6541 346.336L94.3934 346.764L94.3141 335.931L95.7863 335.433L102.301 344.091L100.996 344.532L98.9511 341.806L95.6012 342.94ZM98.3693 340.911L96.496 338.419C96.0728 337.854 95.7334 337.321 95.4028 336.805L95.3764 336.813C95.4293 337.44 95.4777 338.084 95.4954 338.736L95.5218 341.868L98.3693 340.911Z" fill="#CBD3DB"/>
<path d="M102.879 334.229L100.005 335.199L99.6433 334.127L106.643 331.763L107.004 332.835L104.117 333.81L107.048 342.485L105.814 342.904L102.879 334.229Z" fill="#CBD3DB"/>
<path d="M115.736 334.458L112.06 335.702L113.246 339.217L117.341 337.832L117.698 338.886L112.382 340.682L109.094 330.934L114.198 329.21L114.555 330.264L110.672 331.578L111.712 334.657L115.388 333.413L115.736 334.458Z" fill="#CBD3DB"/>
<path d="M204.761 340.417C203.513 340.84 202.156 340.17 201.733 338.917L186.446 293.634C186.023 292.386 186.693 291.027 187.945 290.604C189.192 290.18 190.55 290.851 190.973 292.103L206.259 337.387C206.683 338.639 206.013 339.993 204.761 340.417Z" fill="#CBD3DB"/>
<path d="M81.201 364.362C80.2622 364.679 79.2484 364.177 78.931 363.237L38.1631 242.489C37.8458 241.549 38.3482 240.535 39.2871 240.217C40.226 239.9 41.2398 240.403 41.5571 241.342L82.3206 362.09C82.638 363.03 82.1355 364.044 81.201 364.362Z" fill="#556987"/>
<path d="M308.212 306.685L237.084 330.727C236.145 331.044 235.131 330.541 234.814 329.602C234.496 328.663 234.999 327.648 235.938 327.331L307.066 303.289C308.005 302.971 309.019 303.474 309.336 304.413C309.649 305.353 309.147 306.367 308.212 306.685Z" fill="#302F3D"/>
<path d="M320.202 283.573C319.263 283.891 318.249 283.388 317.931 282.449L277.168 161.7C276.851 160.761 277.353 159.746 278.292 159.429C279.231 159.111 280.245 159.614 280.562 160.554L321.325 281.302C321.643 282.241 321.14 283.256 320.202 283.573Z" fill="#302F3D"/>
<path d="M185.525 348.157L102.045 376.376C101.107 376.694 100.093 376.191 99.7754 375.252C99.4581 374.312 99.9606 373.298 100.899 372.98L184.379 344.761C185.318 344.444 186.332 344.947 186.649 345.886C186.966 346.821 186.464 347.84 185.525 348.157Z" fill="#302F3D"/>
</g>
<defs>
<clipPath id="clip0_158_19">
<rect width="327.197" height="383.61" fill="white"/>
</clipPath>
</defs>
</svg>
