<svg width="1126" height="60" viewBox="0 0 1126 60" fill="none" xmlns="http://www.w3.org/2000/svg">
<rect width="1126" height="60" rx="30" fill="#F5F7FF"/>
<path d="M34.172 34.098C33.528 34.098 32.9493 33.986 32.436 33.762C31.932 33.5287 31.5353 33.2113 31.246 32.81C30.9567 32.3993 30.8073 31.928 30.798 31.396H32.156C32.2027 31.8533 32.3893 32.2407 32.716 32.558C33.052 32.866 33.5373 33.02 34.172 33.02C34.7787 33.02 35.2547 32.8707 35.6 32.572C35.9547 32.264 36.132 31.872 36.132 31.396C36.132 31.0227 36.0293 30.7193 35.824 30.486C35.6187 30.2527 35.362 30.0753 35.054 29.954C34.746 29.8327 34.3307 29.702 33.808 29.562C33.164 29.394 32.646 29.226 32.254 29.058C31.8713 28.89 31.54 28.6287 31.26 28.274C30.9893 27.91 30.854 27.4247 30.854 26.818C30.854 26.286 30.9893 25.8147 31.26 25.404C31.5307 24.9933 31.9087 24.676 32.394 24.452C32.8887 24.228 33.4533 24.116 34.088 24.116C35.0027 24.116 35.7493 24.3447 36.328 24.802C36.916 25.2593 37.2473 25.866 37.322 26.622H35.922C35.8753 26.2487 35.6793 25.922 35.334 25.642C34.9887 25.3527 34.5313 25.208 33.962 25.208C33.43 25.208 32.996 25.348 32.66 25.628C32.324 25.8987 32.156 26.2813 32.156 26.776C32.156 27.1307 32.254 27.42 32.45 27.644C32.6553 27.868 32.9027 28.0407 33.192 28.162C33.4907 28.274 33.906 28.4047 34.438 28.554C35.082 28.7313 35.6 28.9087 35.992 29.086C36.384 29.254 36.72 29.52 37 29.884C37.28 30.2387 37.42 30.724 37.42 31.34C37.42 31.816 37.294 32.264 37.042 32.684C36.79 33.104 36.4167 33.4447 35.922 33.706C35.4273 33.9673 34.844 34.098 34.172 34.098ZM46.2948 29.87C46.2948 30.1127 46.2808 30.3693 46.2528 30.64H40.1208C40.1675 31.396 40.4241 31.9887 40.8908 32.418C41.3668 32.838 41.9408 33.048 42.6128 33.048C43.1635 33.048 43.6208 32.922 43.9848 32.67C44.3581 32.4087 44.6195 32.0633 44.7688 31.634H46.1408C45.9355 32.3713 45.5248 32.9733 44.9088 33.44C44.2928 33.8973 43.5275 34.126 42.6128 34.126C41.8848 34.126 41.2315 33.9627 40.6528 33.636C40.0835 33.3093 39.6355 32.8473 39.3088 32.25C38.9821 31.6433 38.8188 30.9433 38.8188 30.15C38.8188 29.3567 38.9775 28.6613 39.2948 28.064C39.6121 27.4667 40.0555 27.0093 40.6248 26.692C41.2035 26.3653 41.8661 26.202 42.6128 26.202C43.3408 26.202 43.9848 26.3607 44.5448 26.678C45.1048 26.9953 45.5341 27.434 45.8328 27.994C46.1408 28.5447 46.2948 29.17 46.2948 29.87ZM44.9788 29.604C44.9788 29.1187 44.8715 28.7033 44.6568 28.358C44.4421 28.0033 44.1481 27.7373 43.7748 27.56C43.4108 27.3733 43.0048 27.28 42.5568 27.28C41.9128 27.28 41.3621 27.4853 40.9048 27.896C40.4568 28.3067 40.2001 28.876 40.1348 29.604H44.9788ZM47.5004 30.136C47.5004 29.352 47.6591 28.666 47.9764 28.078C48.2938 27.4807 48.7278 27.0187 49.2784 26.692C49.8384 26.3653 50.4591 26.202 51.1404 26.202C51.8124 26.202 52.3958 26.3467 52.8904 26.636C53.3851 26.9253 53.7538 27.2893 53.9964 27.728V26.328H55.2844V34H53.9964V32.572C53.7444 33.02 53.3664 33.3933 52.8624 33.692C52.3678 33.9813 51.7891 34.126 51.1264 34.126C50.4451 34.126 49.8291 33.958 49.2784 33.622C48.7278 33.286 48.2938 32.8147 47.9764 32.208C47.6591 31.6013 47.5004 30.9107 47.5004 30.136ZM53.9964 30.15C53.9964 29.5713 53.8798 29.0673 53.6464 28.638C53.4131 28.2087 53.0958 27.882 52.6944 27.658C52.3024 27.4247 51.8684 27.308 51.3924 27.308C50.9164 27.308 50.4824 27.42 50.0904 27.644C49.6984 27.868 49.3858 28.1947 49.1524 28.624C48.9191 29.0533 48.8024 29.5573 48.8024 30.136C48.8024 30.724 48.9191 31.2373 49.1524 31.676C49.3858 32.1053 49.6984 32.4367 50.0904 32.67C50.4824 32.894 50.9164 33.006 51.3924 33.006C51.8684 33.006 52.3024 32.894 52.6944 32.67C53.0958 32.4367 53.4131 32.1053 53.6464 31.676C53.8798 31.2373 53.9964 30.7287 53.9964 30.15ZM58.7114 27.574C58.9354 27.1353 59.2527 26.7947 59.6634 26.552C60.0834 26.3093 60.592 26.188 61.1894 26.188V27.504H60.8534C59.4254 27.504 58.7114 28.2787 58.7114 29.828V34H57.4374V26.328H58.7114V27.574ZM62.184 30.15C62.184 29.3567 62.3427 28.666 62.66 28.078C62.9774 27.4807 63.416 27.0187 63.976 26.692C64.5454 26.3653 65.194 26.202 65.922 26.202C66.8647 26.202 67.6394 26.4307 68.246 26.888C68.862 27.3453 69.268 27.98 69.464 28.792H68.092C67.9614 28.3253 67.7047 27.9567 67.322 27.686C66.9487 27.4153 66.482 27.28 65.922 27.28C65.194 27.28 64.606 27.532 64.158 28.036C63.71 28.5307 63.486 29.2353 63.486 30.15C63.486 31.074 63.71 31.788 64.158 32.292C64.606 32.796 65.194 33.048 65.922 33.048C66.482 33.048 66.9487 32.9173 67.322 32.656C67.6954 32.3947 67.952 32.0213 68.092 31.536H69.464C69.2587 32.32 68.848 32.95 68.232 33.426C67.616 33.8927 66.846 34.126 65.922 34.126C65.194 34.126 64.5454 33.9627 63.976 33.636C63.416 33.3093 62.9774 32.8473 62.66 32.25C62.3427 31.6527 62.184 30.9527 62.184 30.15ZM74.9719 26.188C75.5506 26.188 76.0733 26.314 76.5399 26.566C77.0066 26.8087 77.3706 27.1773 77.6319 27.672C77.9026 28.1667 78.0379 28.7687 78.0379 29.478V34H76.7779V29.66C76.7779 28.8947 76.5866 28.3113 76.2039 27.91C75.8213 27.4993 75.2986 27.294 74.6359 27.294C73.9639 27.294 73.4273 27.504 73.0259 27.924C72.6339 28.344 72.4379 28.9553 72.4379 29.758V34H71.1639V23.64H72.4379V27.42C72.6899 27.028 73.0353 26.7247 73.4739 26.51C73.9219 26.2953 74.4213 26.188 74.9719 26.188ZM90.8514 29.87C90.8514 30.1127 90.8374 30.3693 90.8094 30.64H84.6774C84.7241 31.396 84.9808 31.9887 85.4474 32.418C85.9234 32.838 86.4974 33.048 87.1694 33.048C87.7201 33.048 88.1774 32.922 88.5414 32.67C88.9148 32.4087 89.1761 32.0633 89.3254 31.634H90.6974C90.4921 32.3713 90.0814 32.9733 89.4654 33.44C88.8494 33.8973 88.0841 34.126 87.1694 34.126C86.4414 34.126 85.7881 33.9627 85.2094 33.636C84.6401 33.3093 84.1921 32.8473 83.8654 32.25C83.5388 31.6433 83.3754 30.9433 83.3754 30.15C83.3754 29.3567 83.5341 28.6613 83.8514 28.064C84.1688 27.4667 84.6121 27.0093 85.1814 26.692C85.7601 26.3653 86.4228 26.202 87.1694 26.202C87.8974 26.202 88.5414 26.3607 89.1014 26.678C89.6614 26.9953 90.0908 27.434 90.3894 27.994C90.6974 28.5447 90.8514 29.17 90.8514 29.87ZM89.5354 29.604C89.5354 29.1187 89.4281 28.7033 89.2134 28.358C88.9988 28.0033 88.7048 27.7373 88.3314 27.56C87.9674 27.3733 87.5614 27.28 87.1134 27.28C86.4694 27.28 85.9188 27.4853 85.4614 27.896C85.0134 28.3067 84.7568 28.876 84.6914 29.604H89.5354ZM96.2711 26.188C97.2044 26.188 97.9604 26.4727 98.5391 27.042C99.1177 27.602 99.4071 28.414 99.4071 29.478V34H98.1471V29.66C98.1471 28.8947 97.9557 28.3113 97.5731 27.91C97.1904 27.4993 96.6677 27.294 96.0051 27.294C95.3331 27.294 94.7964 27.504 94.3951 27.924C94.0031 28.344 93.8071 28.9553 93.8071 29.758V34H92.5331V26.328H93.8071V27.42C94.0591 27.028 94.3997 26.7247 94.8291 26.51C95.2677 26.2953 95.7484 26.188 96.2711 26.188ZM103.042 27.378V31.9C103.042 32.2733 103.121 32.5393 103.28 32.698C103.439 32.8473 103.714 32.922 104.106 32.922H105.044V34H103.896C103.187 34 102.655 33.8367 102.3 33.51C101.945 33.1833 101.768 32.6467 101.768 31.9V27.378H100.774V26.328H101.768V24.396H103.042V26.328H105.044V27.378H103.042ZM107.246 25.082C107.003 25.082 106.798 24.998 106.63 24.83C106.462 24.662 106.378 24.4567 106.378 24.214C106.378 23.9713 106.462 23.766 106.63 23.598C106.798 23.43 107.003 23.346 107.246 23.346C107.479 23.346 107.675 23.43 107.834 23.598C108.002 23.766 108.086 23.9713 108.086 24.214C108.086 24.4567 108.002 24.662 107.834 24.83C107.675 24.998 107.479 25.082 107.246 25.082ZM107.862 26.328V34H106.588V26.328H107.862ZM117.033 29.87C117.033 30.1127 117.019 30.3693 116.991 30.64H110.859C110.906 31.396 111.162 31.9887 111.629 32.418C112.105 32.838 112.679 33.048 113.351 33.048C113.902 33.048 114.359 32.922 114.723 32.67C115.096 32.4087 115.358 32.0633 115.507 31.634H116.879C116.674 32.3713 116.263 32.9733 115.647 33.44C115.031 33.8973 114.266 34.126 113.351 34.126C112.623 34.126 111.97 33.9627 111.391 33.636C110.822 33.3093 110.374 32.8473 110.047 32.25C109.72 31.6433 109.557 30.9433 109.557 30.15C109.557 29.3567 109.716 28.6613 110.033 28.064C110.35 27.4667 110.794 27.0093 111.363 26.692C111.942 26.3653 112.604 26.202 113.351 26.202C114.079 26.202 114.723 26.3607 115.283 26.678C115.843 26.9953 116.272 27.434 116.571 27.994C116.879 28.5447 117.033 29.17 117.033 29.87ZM115.717 29.604C115.717 29.1187 115.61 28.7033 115.395 28.358C115.18 28.0033 114.886 27.7373 114.513 27.56C114.149 27.3733 113.743 27.28 113.295 27.28C112.651 27.28 112.1 27.4853 111.643 27.896C111.195 28.3067 110.938 28.876 110.873 29.604H115.717ZM119.989 27.574C120.213 27.1353 120.53 26.7947 120.941 26.552C121.361 26.3093 121.869 26.188 122.467 26.188V27.504H122.131C120.703 27.504 119.989 28.2787 119.989 29.828V34H118.715V26.328H119.989V27.574ZM130.937 29.87C130.937 30.1127 130.923 30.3693 130.895 30.64H124.763C124.81 31.396 125.067 31.9887 125.533 32.418C126.009 32.838 126.583 33.048 127.255 33.048C127.806 33.048 128.263 32.922 128.627 32.67C129.001 32.4087 129.262 32.0633 129.411 31.634H130.783C130.578 32.3713 130.167 32.9733 129.551 33.44C128.935 33.8973 128.17 34.126 127.255 34.126C126.527 34.126 125.874 33.9627 125.295 33.636C124.726 33.3093 124.278 32.8473 123.951 32.25C123.625 31.6433 123.461 30.9433 123.461 30.15C123.461 29.3567 123.62 28.6613 123.937 28.064C124.255 27.4667 124.698 27.0093 125.267 26.692C125.846 26.3653 126.509 26.202 127.255 26.202C127.983 26.202 128.627 26.3607 129.187 26.678C129.747 26.9953 130.177 27.434 130.475 27.994C130.783 28.5447 130.937 29.17 130.937 29.87ZM129.621 29.604C129.621 29.1187 129.514 28.7033 129.299 28.358C129.085 28.0033 128.791 27.7373 128.417 27.56C128.053 27.3733 127.647 27.28 127.199 27.28C126.555 27.28 126.005 27.4853 125.547 27.896C125.099 28.3067 124.843 28.876 124.777 29.604H129.621ZM139.067 34.126C138.479 34.126 137.952 34.028 137.485 33.832C137.019 33.6267 136.65 33.3467 136.379 32.992C136.109 32.628 135.959 32.2127 135.931 31.746H137.247C137.285 32.1287 137.462 32.4413 137.779 32.684C138.106 32.9267 138.531 33.048 139.053 33.048C139.539 33.048 139.921 32.9407 140.201 32.726C140.481 32.5113 140.621 32.2407 140.621 31.914C140.621 31.578 140.472 31.3307 140.173 31.172C139.875 31.004 139.413 30.8407 138.787 30.682C138.218 30.5327 137.751 30.3833 137.387 30.234C137.033 30.0753 136.725 29.8467 136.463 29.548C136.211 29.24 136.085 28.8387 136.085 28.344C136.085 27.952 136.202 27.5927 136.435 27.266C136.669 26.9393 137 26.6827 137.429 26.496C137.859 26.3 138.349 26.202 138.899 26.202C139.749 26.202 140.435 26.4167 140.957 26.846C141.48 27.2753 141.76 27.8633 141.797 28.61H140.523C140.495 28.2087 140.332 27.8867 140.033 27.644C139.744 27.4013 139.352 27.28 138.857 27.28C138.4 27.28 138.036 27.378 137.765 27.574C137.495 27.77 137.359 28.0267 137.359 28.344C137.359 28.596 137.439 28.806 137.597 28.974C137.765 29.1327 137.971 29.2633 138.213 29.366C138.465 29.4593 138.811 29.5667 139.249 29.688C139.8 29.8373 140.248 29.9867 140.593 30.136C140.939 30.276 141.233 30.4907 141.475 30.78C141.727 31.0693 141.858 31.4473 141.867 31.914C141.867 32.334 141.751 32.712 141.517 33.048C141.284 33.384 140.953 33.65 140.523 33.846C140.103 34.0327 139.618 34.126 139.067 34.126ZM145.22 27.378V31.9C145.22 32.2733 145.299 32.5393 145.458 32.698C145.617 32.8473 145.892 32.922 146.284 32.922H147.222V34H146.074C145.365 34 144.833 33.8367 144.478 33.51C144.123 33.1833 143.946 32.6467 143.946 31.9V27.378H142.952V26.328H143.946V24.396H145.22V26.328H147.222V27.378H145.22ZM152.112 34.126C151.393 34.126 150.74 33.9627 150.152 33.636C149.573 33.3093 149.116 32.8473 148.78 32.25C148.453 31.6433 148.29 30.9433 148.29 30.15C148.29 29.366 148.458 28.6753 148.794 28.078C149.139 27.4713 149.606 27.0093 150.194 26.692C150.782 26.3653 151.44 26.202 152.168 26.202C152.896 26.202 153.554 26.3653 154.142 26.692C154.73 27.0093 155.192 27.4667 155.528 28.064C155.873 28.6613 156.046 29.3567 156.046 30.15C156.046 30.9433 155.868 31.6433 155.514 32.25C155.168 32.8473 154.697 33.3093 154.1 33.636C153.502 33.9627 152.84 34.126 152.112 34.126ZM152.112 33.006C152.569 33.006 152.998 32.8987 153.4 32.684C153.801 32.4693 154.123 32.1473 154.366 31.718C154.618 31.2887 154.744 30.766 154.744 30.15C154.744 29.534 154.622 29.0113 154.38 28.582C154.137 28.1527 153.82 27.8353 153.428 27.63C153.036 27.4153 152.611 27.308 152.154 27.308C151.687 27.308 151.258 27.4153 150.866 27.63C150.483 27.8353 150.175 28.1527 149.942 28.582C149.708 29.0113 149.592 29.534 149.592 30.15C149.592 30.7753 149.704 31.3027 149.928 31.732C150.161 32.1613 150.469 32.4833 150.852 32.698C151.234 32.9033 151.654 33.006 152.112 33.006ZM158.995 27.574C159.219 27.1353 159.536 26.7947 159.947 26.552C160.367 26.3093 160.875 26.188 161.473 26.188V27.504H161.137C159.709 27.504 158.995 28.2787 158.995 29.828V34H157.721V26.328H158.995V27.574ZM169.943 29.87C169.943 30.1127 169.929 30.3693 169.901 30.64H163.769C163.816 31.396 164.073 31.9887 164.539 32.418C165.015 32.838 165.589 33.048 166.261 33.048C166.812 33.048 167.269 32.922 167.633 32.67C168.007 32.4087 168.268 32.0633 168.417 31.634H169.789C169.584 32.3713 169.173 32.9733 168.557 33.44C167.941 33.8973 167.176 34.126 166.261 34.126C165.533 34.126 164.88 33.9627 164.301 33.636C163.732 33.3093 163.284 32.8473 162.957 32.25C162.631 31.6433 162.467 30.9433 162.467 30.15C162.467 29.3567 162.626 28.6613 162.943 28.064C163.261 27.4667 163.704 27.0093 164.273 26.692C164.852 26.3653 165.515 26.202 166.261 26.202C166.989 26.202 167.633 26.3607 168.193 26.678C168.753 26.9953 169.183 27.434 169.481 27.994C169.789 28.5447 169.943 29.17 169.943 29.87ZM168.627 29.604C168.627 29.1187 168.52 28.7033 168.305 28.358C168.091 28.0033 167.797 27.7373 167.423 27.56C167.059 27.3733 166.653 27.28 166.205 27.28C165.561 27.28 165.011 27.4853 164.553 27.896C164.105 28.3067 163.849 28.876 163.783 29.604H168.627ZM179.165 26.188C179.744 26.188 180.267 26.314 180.733 26.566C181.2 26.8087 181.564 27.1773 181.825 27.672C182.096 28.1667 182.231 28.7687 182.231 29.478V34H180.971V29.66C180.971 28.8947 180.78 28.3113 180.397 27.91C180.015 27.4993 179.492 27.294 178.829 27.294C178.157 27.294 177.621 27.504 177.219 27.924C176.827 28.344 176.631 28.9553 176.631 29.758V34H175.357V23.64H176.631V27.42C176.883 27.028 177.229 26.7247 177.667 26.51C178.115 26.2953 178.615 26.188 179.165 26.188ZM191.312 29.87C191.312 30.1127 191.298 30.3693 191.27 30.64H185.138C185.185 31.396 185.442 31.9887 185.908 32.418C186.384 32.838 186.958 33.048 187.63 33.048C188.181 33.048 188.638 32.922 189.002 32.67C189.376 32.4087 189.637 32.0633 189.786 31.634H191.158C190.953 32.3713 190.542 32.9733 189.926 33.44C189.31 33.8973 188.545 34.126 187.63 34.126C186.902 34.126 186.249 33.9627 185.67 33.636C185.101 33.3093 184.653 32.8473 184.326 32.25C184 31.6433 183.836 30.9433 183.836 30.15C183.836 29.3567 183.995 28.6613 184.312 28.064C184.63 27.4667 185.073 27.0093 185.642 26.692C186.221 26.3653 186.884 26.202 187.63 26.202C188.358 26.202 189.002 26.3607 189.562 26.678C190.122 26.9953 190.552 27.434 190.85 27.994C191.158 28.5447 191.312 29.17 191.312 29.87ZM189.996 29.604C189.996 29.1187 189.889 28.7033 189.674 28.358C189.46 28.0033 189.166 27.7373 188.792 27.56C188.428 27.3733 188.022 27.28 187.574 27.28C186.93 27.28 186.38 27.4853 185.922 27.896C185.474 28.3067 185.218 28.876 185.152 29.604H189.996ZM194.268 27.574C194.492 27.1353 194.809 26.7947 195.22 26.552C195.64 26.3093 196.149 26.188 196.746 26.188V27.504H196.41C194.982 27.504 194.268 28.2787 194.268 29.828V34H192.994V26.328H194.268V27.574ZM205.217 29.87C205.217 30.1127 205.203 30.3693 205.175 30.64H199.043C199.089 31.396 199.346 31.9887 199.813 32.418C200.289 32.838 200.863 33.048 201.535 33.048C202.085 33.048 202.543 32.922 202.907 32.67C203.28 32.4087 203.541 32.0633 203.691 31.634H205.063C204.857 32.3713 204.447 32.9733 203.831 33.44C203.215 33.8973 202.449 34.126 201.535 34.126C200.807 34.126 200.153 33.9627 199.575 33.636C199.005 33.3093 198.557 32.8473 198.231 32.25C197.904 31.6433 197.741 30.9433 197.741 30.15C197.741 29.3567 197.899 28.6613 198.217 28.064C198.534 27.4667 198.977 27.0093 199.547 26.692C200.125 26.3653 200.788 26.202 201.535 26.202C202.263 26.202 202.907 26.3607 203.467 26.678C204.027 26.9953 204.456 27.434 204.755 27.994C205.063 28.5447 205.217 29.17 205.217 29.87ZM203.901 29.604C203.901 29.1187 203.793 28.7033 203.579 28.358C203.364 28.0033 203.07 27.7373 202.697 27.56C202.333 27.3733 201.927 27.28 201.479 27.28C200.835 27.28 200.284 27.4853 199.827 27.896C199.379 28.3067 199.122 28.876 199.057 29.604H203.901ZM207.304 34.084C207.062 34.084 206.856 34 206.688 33.832C206.52 33.664 206.436 33.4587 206.436 33.216C206.436 32.9733 206.52 32.768 206.688 32.6C206.856 32.432 207.062 32.348 207.304 32.348C207.538 32.348 207.734 32.432 207.892 32.6C208.06 32.768 208.144 32.9733 208.144 33.216C208.144 33.4587 208.06 33.664 207.892 33.832C207.734 34 207.538 34.084 207.304 34.084ZM210.244 34.084C210.001 34.084 209.796 34 209.628 33.832C209.46 33.664 209.376 33.4587 209.376 33.216C209.376 32.9733 209.46 32.768 209.628 32.6C209.796 32.432 210.001 32.348 210.244 32.348C210.477 32.348 210.673 32.432 210.832 32.6C211 32.768 211.084 32.9733 211.084 33.216C211.084 33.4587 211 33.664 210.832 33.832C210.673 34 210.477 34.084 210.244 34.084ZM213.183 34.084C212.941 34.084 212.735 34 212.567 33.832C212.399 33.664 212.315 33.4587 212.315 33.216C212.315 32.9733 212.399 32.768 212.567 32.6C212.735 32.432 212.941 32.348 213.183 32.348C213.417 32.348 213.613 32.432 213.771 32.6C213.939 32.768 214.023 32.9733 214.023 33.216C214.023 33.4587 213.939 33.664 213.771 33.832C213.613 34 213.417 34.084 213.183 34.084Z" fill="#A2A6B0"/>
<path d="M1085.95 23.9914C1084.79 25.1484 1084.12 26.7036 1084.07 28.3402C1084.01 29.9768 1084.59 31.5716 1085.67 32.7995C1086.76 34.0275 1088.27 34.7962 1089.9 34.9491C1091.5 35.0991 1093.09 34.6444 1094.38 33.6766L1097.71 37.0085L1097.71 37.0085C1097.79 37.0914 1097.89 37.1571 1098 37.2019C1098.1 37.2468 1098.22 37.2698 1098.34 37.2698C1098.45 37.2698 1098.57 37.2468 1098.68 37.2019C1098.79 37.1571 1098.89 37.0914 1098.97 37.0085C1099.05 36.9257 1099.12 36.8274 1099.16 36.7191C1099.21 36.6109 1099.23 36.4949 1099.23 36.3777C1099.23 36.2606 1099.21 36.1446 1099.16 36.0363C1099.12 35.9281 1099.05 35.8298 1098.97 35.7469L1098.97 35.7469L1095.64 32.416C1096.6 31.135 1097.05 29.5385 1096.9 27.9394C1096.75 26.3105 1095.98 24.8014 1094.75 23.719C1093.53 22.6366 1091.93 22.0623 1090.3 22.1129C1088.66 22.1635 1087.11 22.8352 1085.95 23.9914ZM1085.95 23.9914L1086.02 24.0622L1085.95 23.9914ZM1093.79 25.2537C1094.23 25.6842 1094.57 26.197 1094.81 26.7627C1095.05 27.3284 1095.18 27.9356 1095.18 28.5494C1095.18 29.1633 1095.06 29.7715 1094.83 30.3391C1094.59 30.9067 1094.25 31.4224 1093.82 31.8564C1093.38 32.2905 1092.87 32.6343 1092.3 32.868C1091.73 33.1018 1091.12 33.2208 1090.51 33.2183C1089.89 33.2158 1089.29 33.0918 1088.72 32.8535C1088.16 32.6151 1087.64 32.2671 1087.21 31.8295C1086.35 30.9551 1085.87 29.7761 1085.88 28.5494C1085.88 27.3228 1086.37 26.1477 1087.24 25.2803C1088.11 24.4129 1089.28 23.9234 1090.51 23.9184C1091.74 23.9134 1092.91 24.3933 1093.79 25.2537Z" fill="black" stroke="black" stroke-width="0.2"/>
</svg>
