<svg id="Capa_1" data-name="Capa 1" xmlns="http://www.w3.org/2000/svg" viewBox="0 0 37.22 69.83"><defs><style>.cls-1{fill:#fff;}.cls-2{fill:#252525;}.cls-3{fill:#070707;}.cls-4{fill:#020202;}</style></defs><title>logoCultural</title><path class="cls-1" d="M1908.93,35.32c.56-1.48,1.26-2.66,3.21-2.54a2.85,2.85,0,0,0,2.17-1c1-1.15,3.61-.68,4.42.67.14.47.53.33.84.33q9.45,0,18.9,0c.35,0,.82.2,1-.35,0-.39-.06-.78-.06-1.17s.14-.94.7-.91.77.42.69,1c-.17,1.13.4,1.23,1.36,1.23a3.59,3.59,0,0,1,3.69,2.84,3.58,3.58,0,0,0-.09,1.18V90.42a3.19,3.19,0,0,0,.12,1.34c-.78,2.12-2,3-4.14,3q-14.35,0-28.7,0c-2.19,0-3.36-.92-4.13-3a2.77,2.77,0,0,0,.11-1.18V36.33A2.87,2.87,0,0,0,1908.93,35.32Z" transform="translate(-1908.78 -30.31)"/><path class="cls-1" d="M1942.43,95.8c.73-.27,1.48-.51,2.19-.84,1.11-.51,1.39,0,1.38,1a3.87,3.87,0,0,1-2.81,3.92q-15.8.14-31.61,0a3.9,3.9,0,0,1-2.8-4.08c0-1.1.48-1.24,1.39-.84.71.32,1.45.57,2.18.84.32.36.74.22,1.12.22q13.92,0,27.85,0C1941.69,96,1942.12,96.16,1942.43,95.8Z" transform="translate(-1908.78 -30.31)"/><path class="cls-1" d="M1911.58,99.88a4.28,4.28,0,0,1,2-.28h27.62a4.1,4.1,0,0,1,2,.28,15,15,0,0,1-2,.25q-13.8,0-27.6,0A15.33,15.33,0,0,1,1911.58,99.88Z" transform="translate(-1908.78 -30.31)"/><path class="cls-1" d="M1908.93,35.32a4.87,4.87,0,0,1,.26,2.17v52.1a4.47,4.47,0,0,1-.28,2.17c0-.57-.11-1.13-.11-1.69V37.18C1908.8,36.56,1908.89,35.94,1908.93,35.32Z" transform="translate(-1908.78 -30.31)"/><path class="cls-1" d="M1945.88,91.76a4.42,4.42,0,0,1-.29-2.16V37.5a4.85,4.85,0,0,1,.26-2.17c.05.62.13,1.24.13,1.86q0,26.36,0,52.71C1946,90.52,1945.91,91.14,1945.88,91.76Z" transform="translate(-1908.78 -30.31)"/><path class="cls-1" d="M1942.43,95.8c.2.67-.37.38-.55.38q-14.49,0-29,0a3,3,0,0,1-.65-.12.21.21,0,0,1,0-.14c0-.05.06-.08.1-.13Z" transform="translate(-1908.78 -30.31)"/><path class="cls-1" d="M1939.47,32.39a2.62,2.62,0,0,1-2.07.53h-16.59a2.72,2.72,0,0,1-2.08-.5Z" transform="translate(-1908.78 -30.31)"/><path class="cls-2" d="M1942.26,73.1a14.87,14.87,0,1,1-14.85-14.94A14.86,14.86,0,0,1,1942.26,73.1Z" transform="translate(-1908.78 -30.31)"/><path class="cls-3" d="M1935.77,47a9,9,0,0,1-8.9,8.7c-3.9-.06-7.88-4.52-7.86-8.81a8.38,8.38,0,1,1,16.76.11Z" transform="translate(-1908.78 -30.31)"/><path d="M1914.23,38.43c1.17.18,1.89.75,1.88,1.87a1.66,1.66,0,0,1-1.79,1.8,1.64,1.64,0,0,1-1.77-1.8A1.81,1.81,0,0,1,1914.23,38.43Z" transform="translate(-1908.78 -30.31)"/><path class="cls-4" d="M1942.26,40.24c-.08,1.13-.62,1.84-1.77,1.86a1.67,1.67,0,0,1-1.82-1.77,1.69,1.69,0,0,1,1.75-1.85A1.73,1.73,0,0,1,1942.26,40.24Z" transform="translate(-1908.78 -30.31)"/><path d="M1914.23,92.14a1.8,1.8,0,0,1,0-3.59,1.8,1.8,0,1,1,0,3.59Z" transform="translate(-1908.78 -30.31)"/><path d="M1942.25,90.39a1.66,1.66,0,0,1-1.83,1.74,1.63,1.63,0,0,1-1.75-1.69,1.68,1.68,0,0,1,1.74-1.89A1.71,1.71,0,0,1,1942.25,90.39Z" transform="translate(-1908.78 -30.31)"/><path class="cls-1" d="M1927.35,84.4A11.25,11.25,0,0,1,1916,73.06c.1-6.7,5.18-11,9.68-11.1,8.06-.24,13.07,4.31,13,11.18A11.32,11.32,0,0,1,1927.35,84.4Z" transform="translate(-1908.78 -30.31)"/><path class="cls-1" d="M1927.34,52.78a5.91,5.91,0,0,1-5.9-6c0-2.74,2.48-5.64,4.7-5.59,4.79.11,7.23,2,7.21,5.7A5.91,5.91,0,0,1,1927.34,52.78Z" transform="translate(-1908.78 -30.31)"/><path class="cls-3" d="M1935.41,73.18c-.27,5.17-3.6,7.63-8.47,8.22-3.53.43-7.61-4.28-7.57-8.38a8,8,0,1,1,16,.16Z" transform="translate(-1908.78 -30.31)"/><path d="M1930.61,46.88a3.22,3.22,0,1,1-6.44,0,3.22,3.22,0,1,1,6.44,0Z" transform="translate(-1908.78 -30.31)"/><path class="cls-1" d="M1931.69,73a4.3,4.3,0,1,1-8.6.07A3.86,3.86,0,0,1,1927,69C1930,69,1931.69,70.41,1931.69,73Z" transform="translate(-1908.78 -30.31)"/></svg>