<svg width="194" height="27" viewBox="0 0 194 27" fill="none" xmlns="http://www.w3.org/2000/svg">
<path d="M9.96 9.624V18H8.28V12.552L6.036 18H4.764L2.508 12.552V18H0.828V9.624H2.736L5.4 15.852L8.064 9.624H9.96ZM14.573 18.108C13.933 18.108 13.357 17.968 12.845 17.688C12.333 17.4 11.929 16.996 11.633 16.476C11.345 15.956 11.201 15.356 11.201 14.676C11.201 13.996 11.349 13.396 11.645 12.876C11.949 12.356 12.361 11.956 12.881 11.676C13.401 11.388 13.981 11.244 14.621 11.244C15.261 11.244 15.841 11.388 16.361 11.676C16.881 11.956 17.289 12.356 17.585 12.876C17.889 13.396 18.041 13.996 18.041 14.676C18.041 15.356 17.885 15.956 17.573 16.476C17.269 16.996 16.853 17.4 16.325 17.688C15.805 17.968 15.221 18.108 14.573 18.108ZM14.573 16.644C14.877 16.644 15.161 16.572 15.425 16.428C15.697 16.276 15.913 16.052 16.073 15.756C16.233 15.46 16.313 15.1 16.313 14.676C16.313 14.044 16.145 13.56 15.809 13.224C15.481 12.88 15.077 12.708 14.597 12.708C14.117 12.708 13.713 12.88 13.385 13.224C13.065 13.56 12.905 14.044 12.905 14.676C12.905 15.308 13.061 15.796 13.373 16.14C13.693 16.476 14.093 16.644 14.573 16.644ZM22.9573 11.256C23.7493 11.256 24.3893 11.508 24.8773 12.012C25.3653 12.508 25.6093 13.204 25.6093 14.1V18H23.9293V14.328C23.9293 13.8 23.7973 13.396 23.5333 13.116C23.2693 12.828 22.9093 12.684 22.4533 12.684C21.9893 12.684 21.6213 12.828 21.3493 13.116C21.0853 13.396 20.9533 13.8 20.9533 14.328V18H19.2733V11.352H20.9533V12.18C21.1773 11.892 21.4613 11.668 21.8053 11.508C22.1573 11.34 22.5413 11.256 22.9573 11.256ZM32.3189 13.008V14.424H27.2309V13.008H32.3189ZM39.903 9.624V10.98H37.671V18H35.991V10.98H33.759V9.624H39.903ZM44.8728 11.256C45.3768 11.256 45.8248 11.368 46.2168 11.592C46.6088 11.808 46.9128 12.132 47.1288 12.564C47.3528 12.988 47.4648 13.5 47.4648 14.1V18H45.7848V14.328C45.7848 13.8 45.6528 13.396 45.3888 13.116C45.1248 12.828 44.7648 12.684 44.3088 12.684C43.8448 12.684 43.4768 12.828 43.2048 13.116C42.9408 13.396 42.8088 13.8 42.8088 14.328V18H41.1288V9.12H42.8088V12.18C43.0248 11.892 43.3128 11.668 43.6728 11.508C44.0328 11.34 44.4328 11.256 44.8728 11.256ZM55.3384 11.352V18H53.6464V17.16C53.4304 17.448 53.1464 17.676 52.7944 17.844C52.4504 18.004 52.0744 18.084 51.6664 18.084C51.1464 18.084 50.6864 17.976 50.2864 17.76C49.8864 17.536 49.5704 17.212 49.3384 16.788C49.1144 16.356 49.0024 15.844 49.0024 15.252V11.352H50.6824V15.012C50.6824 15.54 50.8144 15.948 51.0784 16.236C51.3424 16.516 51.7024 16.656 52.1584 16.656C52.6224 16.656 52.9864 16.516 53.2504 16.236C53.5144 15.948 53.6464 15.54 53.6464 15.012V11.352H55.3384ZM57.74 18.084C57.436 18.084 57.184 17.992 56.984 17.808C56.792 17.616 56.696 17.38 56.696 17.1C56.696 16.82 56.792 16.588 56.984 16.404C57.184 16.212 57.436 16.116 57.74 16.116C58.036 16.116 58.28 16.212 58.472 16.404C58.664 16.588 58.76 16.82 58.76 17.1C58.76 17.38 58.664 17.616 58.472 17.808C58.28 17.992 58.036 18.084 57.74 18.084ZM57.74 13.116C57.436 13.116 57.184 13.024 56.984 12.84C56.792 12.648 56.696 12.412 56.696 12.132C56.696 11.852 56.792 11.62 56.984 11.436C57.184 11.244 57.436 11.148 57.74 11.148C58.036 11.148 58.28 11.244 58.472 11.436C58.664 11.62 58.76 11.852 58.76 12.132C58.76 12.412 58.664 12.648 58.472 12.84C58.28 13.024 58.036 13.116 57.74 13.116Z" fill="#A2A6B0"/>
<path d="M67.6191 15.54C67.6831 15.892 67.8271 16.164 68.0511 16.356C68.2831 16.54 68.5911 16.632 68.9751 16.632C69.4711 16.632 69.8311 16.428 70.0551 16.02C70.2791 15.604 70.3911 14.908 70.3911 13.932C70.2071 14.188 69.9471 14.388 69.6111 14.532C69.2831 14.676 68.9271 14.748 68.5431 14.748C68.0311 14.748 67.5671 14.644 67.1511 14.436C66.7431 14.22 66.4191 13.904 66.1791 13.488C65.9391 13.064 65.8191 12.552 65.8191 11.952C65.8191 11.064 66.0831 10.36 66.6111 9.84C67.1391 9.312 67.8591 9.048 68.7711 9.048C69.9071 9.048 70.7071 9.412 71.1711 10.14C71.6431 10.868 71.8791 11.964 71.8791 13.428C71.8791 14.468 71.7871 15.32 71.6031 15.984C71.4271 16.648 71.1191 17.152 70.6791 17.496C70.2471 17.84 69.6551 18.012 68.9031 18.012C68.3111 18.012 67.8071 17.9 67.3911 17.676C66.9751 17.444 66.6551 17.144 66.4311 16.776C66.2151 16.4 66.0911 15.988 66.0591 15.54H67.6191ZM68.8911 13.38C69.3071 13.38 69.6351 13.252 69.8751 12.996C70.1151 12.74 70.2351 12.396 70.2351 11.964C70.2351 11.492 70.1071 11.128 69.8511 10.872C69.6031 10.608 69.2631 10.476 68.8311 10.476C68.3991 10.476 68.0551 10.612 67.7991 10.884C67.5511 11.148 67.4271 11.5 67.4271 11.94C67.4271 12.364 67.5471 12.712 67.7871 12.984C68.0351 13.248 68.4031 13.38 68.8911 13.38ZM74.1228 18.084C73.8188 18.084 73.5668 17.992 73.3668 17.808C73.1748 17.616 73.0788 17.38 73.0788 17.1C73.0788 16.82 73.1748 16.588 73.3668 16.404C73.5668 16.212 73.8188 16.116 74.1228 16.116C74.4188 16.116 74.6628 16.212 74.8548 16.404C75.0468 16.588 75.1428 16.82 75.1428 17.1C75.1428 17.38 75.0468 17.616 74.8548 17.808C74.6628 17.992 74.4188 18.084 74.1228 18.084ZM74.1228 13.116C73.8188 13.116 73.5668 13.024 73.3668 12.84C73.1748 12.648 73.0788 12.412 73.0788 12.132C73.0788 11.852 73.1748 11.62 73.3668 11.436C73.5668 11.244 73.8188 11.148 74.1228 11.148C74.4188 11.148 74.6628 11.244 74.8548 11.436C75.0468 11.62 75.1428 11.852 75.1428 12.132C75.1428 12.412 75.0468 12.648 74.8548 12.84C74.6628 13.024 74.4188 13.116 74.1228 13.116ZM76.3391 13.512C76.3391 12.128 76.5871 11.044 77.0831 10.26C77.5871 9.476 78.4191 9.084 79.5791 9.084C80.7391 9.084 81.5671 9.476 82.0631 10.26C82.5671 11.044 82.8191 12.128 82.8191 13.512C82.8191 14.904 82.5671 15.996 82.0631 16.788C81.5671 17.58 80.7391 17.976 79.5791 17.976C78.4191 17.976 77.5871 17.58 77.0831 16.788C76.5871 15.996 76.3391 14.904 76.3391 13.512ZM81.1631 13.512C81.1631 12.92 81.1231 12.424 81.0431 12.024C80.9711 11.616 80.8191 11.284 80.5871 11.028C80.3631 10.772 80.0271 10.644 79.5791 10.644C79.1311 10.644 78.7911 10.772 78.5591 11.028C78.3351 11.284 78.1831 11.616 78.1031 12.024C78.0311 12.424 77.9951 12.92 77.9951 13.512C77.9951 14.12 78.0311 14.632 78.1031 15.048C78.1751 15.456 78.3271 15.788 78.5591 16.044C78.7911 16.292 79.1311 16.416 79.5791 16.416C80.0271 16.416 80.3671 16.292 80.5991 16.044C80.8311 15.788 80.9831 15.456 81.0551 15.048C81.1271 14.632 81.1631 14.12 81.1631 13.512ZM84.0969 13.512C84.0969 12.128 84.3449 11.044 84.8409 10.26C85.3449 9.476 86.1769 9.084 87.3369 9.084C88.4969 9.084 89.3249 9.476 89.8209 10.26C90.3249 11.044 90.5769 12.128 90.5769 13.512C90.5769 14.904 90.3249 15.996 89.8209 16.788C89.3249 17.58 88.4969 17.976 87.3369 17.976C86.1769 17.976 85.3449 17.58 84.8409 16.788C84.3449 15.996 84.0969 14.904 84.0969 13.512ZM88.9209 13.512C88.9209 12.92 88.8809 12.424 88.8009 12.024C88.7289 11.616 88.5769 11.284 88.3449 11.028C88.1209 10.772 87.7849 10.644 87.3369 10.644C86.8889 10.644 86.5489 10.772 86.3169 11.028C86.0929 11.284 85.9409 11.616 85.8609 12.024C85.7889 12.424 85.7529 12.92 85.7529 13.512C85.7529 14.12 85.7889 14.632 85.8609 15.048C85.9329 15.456 86.0849 15.788 86.3169 16.044C86.5489 16.292 86.8889 16.416 87.3369 16.416C87.7849 16.416 88.1249 16.292 88.3569 16.044C88.5889 15.788 88.7409 15.456 88.8129 15.048C88.8849 14.632 88.9209 14.12 88.9209 13.512ZM100.042 16.404H96.7061L96.1541 18H94.3901L97.4021 9.612H99.3581L102.37 18H100.594L100.042 16.404ZM99.5861 15.06L98.3741 11.556L97.1621 15.06H99.5861ZM112.628 9.624V18H110.948V12.552L108.704 18H107.432L105.176 12.552V18H103.496V9.624H105.404L108.068 15.852L110.732 9.624H112.628ZM122.26 13.008V14.424H117.172V13.008H122.26ZM132.692 10.704H128.804V12.756C128.972 12.548 129.212 12.38 129.524 12.252C129.836 12.116 130.168 12.048 130.52 12.048C131.16 12.048 131.684 12.188 132.092 12.468C132.5 12.748 132.796 13.108 132.98 13.548C133.164 13.98 133.256 14.444 133.256 14.94C133.256 15.86 132.992 16.6 132.464 17.16C131.944 17.72 131.2 18 130.232 18C129.32 18 128.592 17.772 128.048 17.316C127.504 16.86 127.196 16.264 127.124 15.528H128.756C128.828 15.848 128.988 16.104 129.236 16.296C129.492 16.488 129.816 16.584 130.208 16.584C130.68 16.584 131.036 16.436 131.276 16.14C131.516 15.844 131.636 15.452 131.636 14.964C131.636 14.468 131.512 14.092 131.264 13.836C131.024 13.572 130.668 13.44 130.196 13.44C129.86 13.44 129.58 13.524 129.356 13.692C129.132 13.86 128.972 14.084 128.876 14.364H127.268V9.228H132.692V10.704ZM135.47 18.084C135.166 18.084 134.914 17.992 134.714 17.808C134.522 17.616 134.426 17.38 134.426 17.1C134.426 16.82 134.522 16.588 134.714 16.404C134.914 16.212 135.166 16.116 135.47 16.116C135.766 16.116 136.01 16.212 136.202 16.404C136.394 16.588 136.49 16.82 136.49 17.1C136.49 17.38 136.394 17.616 136.202 17.808C136.01 17.992 135.766 18.084 135.47 18.084ZM135.47 13.116C135.166 13.116 134.914 13.024 134.714 12.84C134.522 12.648 134.426 12.412 134.426 12.132C134.426 11.852 134.522 11.62 134.714 11.436C134.914 11.244 135.166 11.148 135.47 11.148C135.766 11.148 136.01 11.244 136.202 11.436C136.394 11.62 136.49 11.852 136.49 12.132C136.49 12.412 136.394 12.648 136.202 12.84C136.01 13.024 135.766 13.116 135.47 13.116ZM137.711 11.556C137.751 10.756 138.031 10.14 138.551 9.708C139.079 9.268 139.771 9.048 140.627 9.048C141.211 9.048 141.711 9.152 142.127 9.36C142.543 9.56 142.855 9.836 143.063 10.188C143.279 10.532 143.387 10.924 143.387 11.364C143.387 11.868 143.255 12.296 142.991 12.648C142.735 12.992 142.427 13.224 142.067 13.344V13.392C142.531 13.536 142.891 13.792 143.147 14.16C143.411 14.528 143.543 15 143.543 15.576C143.543 16.056 143.431 16.484 143.207 16.86C142.991 17.236 142.667 17.532 142.235 17.748C141.811 17.956 141.299 18.06 140.699 18.06C139.795 18.06 139.059 17.832 138.491 17.376C137.923 16.92 137.623 16.248 137.591 15.36H139.223C139.239 15.752 139.371 16.068 139.619 16.308C139.875 16.54 140.223 16.656 140.663 16.656C141.071 16.656 141.383 16.544 141.599 16.32C141.823 16.088 141.935 15.792 141.935 15.432C141.935 14.952 141.783 14.608 141.479 14.4C141.175 14.192 140.703 14.088 140.063 14.088H139.715V12.708H140.063C141.199 12.708 141.767 12.328 141.767 11.568C141.767 11.224 141.663 10.956 141.455 10.764C141.255 10.572 140.963 10.476 140.579 10.476C140.203 10.476 139.911 10.58 139.703 10.788C139.503 10.988 139.387 11.244 139.355 11.556H137.711ZM144.87 13.512C144.87 12.128 145.118 11.044 145.614 10.26C146.118 9.476 146.95 9.084 148.11 9.084C149.27 9.084 150.098 9.476 150.594 10.26C151.098 11.044 151.35 12.128 151.35 13.512C151.35 14.904 151.098 15.996 150.594 16.788C150.098 17.58 149.27 17.976 148.11 17.976C146.95 17.976 146.118 17.58 145.614 16.788C145.118 15.996 144.87 14.904 144.87 13.512ZM149.694 13.512C149.694 12.92 149.654 12.424 149.574 12.024C149.502 11.616 149.35 11.284 149.118 11.028C148.894 10.772 148.558 10.644 148.11 10.644C147.662 10.644 147.322 10.772 147.09 11.028C146.866 11.284 146.714 11.616 146.634 12.024C146.562 12.424 146.526 12.92 146.526 13.512C146.526 14.12 146.562 14.632 146.634 15.048C146.706 15.456 146.858 15.788 147.09 16.044C147.322 16.292 147.662 16.416 148.11 16.416C148.558 16.416 148.898 16.292 149.13 16.044C149.362 15.788 149.514 15.456 149.586 15.048C149.658 14.632 149.694 14.12 149.694 13.512ZM161.788 12.216C161.788 12.664 161.68 13.084 161.464 13.476C161.256 13.868 160.924 14.184 160.468 14.424C160.02 14.664 159.452 14.784 158.764 14.784H157.36V18H155.68V9.624H158.764C159.412 9.624 159.964 9.736 160.42 9.96C160.876 10.184 161.216 10.492 161.44 10.884C161.672 11.276 161.788 11.72 161.788 12.216ZM158.692 13.428C159.156 13.428 159.5 13.324 159.724 13.116C159.948 12.9 160.06 12.6 160.06 12.216C160.06 11.4 159.604 10.992 158.692 10.992H157.36V13.428H158.692ZM172.112 9.624V18H170.432V12.552L168.188 18H166.916L164.66 12.552V18H162.98V9.624H164.888L167.552 15.852L170.216 9.624H172.112Z" fill="white"/>
<path d="M188 12.7693L186 14.7693L184 12.7693" stroke="white" stroke-width="1.6" stroke-linecap="round"/>
</svg>
