<svg width="456" height="36" viewBox="0 0 456 36" fill="none" xmlns="http://www.w3.org/2000/svg">
<path d="M22.7 22.396L18.476 10.852C18.268 10.34 18.052 9.732 17.828 9.028C17.604 8.324 17.38 7.564 17.156 6.748C16.948 7.564 16.732 8.332 16.508 9.052C16.284 9.756 16.068 10.372 15.86 10.9L11.66 22.396H22.7ZM34.1 35.5H29.108C28.548 35.5 28.092 35.364 27.74 35.092C27.388 34.804 27.124 34.452 26.948 34.036L24.356 26.956H9.98L7.388 34.036C7.26 34.404 7.012 34.74 6.644 35.044C6.276 35.348 5.82 35.5 5.276 35.5H0.236L13.892 0.795998H20.468L34.1 35.5ZM65.2689 18.1V32.14C63.5089 33.436 61.6289 34.388 59.6289 34.996C57.6449 35.588 55.5169 35.884 53.2449 35.884C50.4129 35.884 47.8449 35.444 45.5409 34.564C43.2529 33.684 41.2929 32.46 39.6609 30.892C38.0449 29.324 36.7969 27.452 35.9169 25.276C35.0369 23.1 34.5969 20.724 34.5969 18.148C34.5969 15.54 35.0209 13.148 35.8689 10.972C36.7169 8.796 37.9169 6.924 39.4689 5.356C41.0369 3.788 42.9329 2.572 45.1569 1.708C47.3809 0.843999 49.8769 0.412 52.6449 0.412C54.0529 0.412 55.3649 0.523999 56.5809 0.747998C57.8129 0.971999 58.9489 1.284 59.9889 1.684C61.0449 2.068 62.0049 2.54 62.8689 3.1C63.7329 3.66 64.5249 4.276 65.2449 4.948L63.3969 7.876C63.1089 8.34 62.7329 8.628 62.2689 8.74C61.8049 8.836 61.3009 8.716 60.7569 8.38C60.2289 8.076 59.7009 7.772 59.1729 7.468C58.6449 7.164 58.0529 6.9 57.3969 6.676C56.7569 6.452 56.0289 6.268 55.2129 6.124C54.4129 5.98 53.4849 5.908 52.4289 5.908C50.7169 5.908 49.1649 6.196 47.7729 6.772C46.3969 7.348 45.2209 8.172 44.2449 9.244C43.2689 10.316 42.5169 11.604 41.9889 13.108C41.4609 14.612 41.1969 16.292 41.1969 18.148C41.1969 20.132 41.4769 21.908 42.0369 23.476C42.6129 25.028 43.4129 26.348 44.4369 27.436C45.4769 28.508 46.7249 29.332 48.1809 29.908C49.6369 30.468 51.2609 30.748 53.0529 30.748C54.3329 30.748 55.4769 30.612 56.4849 30.34C57.4929 30.068 58.4769 29.7 59.4369 29.236V22.948H55.0689C54.6529 22.948 54.3249 22.836 54.0849 22.612C53.8609 22.372 53.7489 22.084 53.7489 21.748V18.1H65.2689ZM77.969 5.932V15.556H90.113V20.524H77.969V30.34H93.377V35.5H71.489V0.795998H93.377V5.932H77.969ZM128.354 0.795998V35.5H125.042C124.53 35.5 124.098 35.42 123.746 35.26C123.41 35.084 123.082 34.796 122.762 34.396L104.642 11.26C104.738 12.316 104.786 13.292 104.786 14.188V35.5H99.0984V0.795998H102.482C102.754 0.795998 102.986 0.811997 103.178 0.843997C103.386 0.859998 103.562 0.907998 103.706 0.987998C103.866 1.052 104.018 1.156 104.162 1.3C104.306 1.428 104.466 1.604 104.642 1.828L122.834 25.06C122.786 24.5 122.746 23.948 122.714 23.404C122.682 22.86 122.666 22.356 122.666 21.892V0.795998H128.354ZM241.009 27.316C241.361 27.316 241.673 27.452 241.945 27.724L244.489 30.484C243.081 32.228 241.345 33.564 239.281 34.492C237.233 35.42 234.769 35.884 231.889 35.884C229.313 35.884 226.993 35.444 224.929 34.564C222.881 33.684 221.129 32.46 219.673 30.892C218.217 29.324 217.097 27.452 216.312 25.276C215.545 23.1 215.161 20.724 215.161 18.148C215.161 15.54 215.577 13.156 216.409 10.996C217.241 8.82 218.409 6.948 219.913 5.38C221.433 3.812 223.241 2.596 225.337 1.732C227.433 0.851999 229.753 0.412 232.297 0.412C234.825 0.412 237.065 0.827999 239.017 1.66C240.985 2.492 242.657 3.58 244.033 4.924L241.873 7.924C241.745 8.116 241.577 8.284 241.369 8.428C241.177 8.572 240.905 8.644 240.553 8.644C240.313 8.644 240.065 8.58 239.809 8.452C239.553 8.308 239.273 8.14 238.969 7.948C238.665 7.74 238.313 7.516 237.913 7.276C237.513 7.036 237.049 6.82 236.521 6.628C235.993 6.42 235.377 6.252 234.673 6.124C233.985 5.98 233.185 5.908 232.273 5.908C230.721 5.908 229.297 6.188 228.001 6.748C226.721 7.292 225.617 8.092 224.689 9.148C223.761 10.188 223.041 11.468 222.529 12.988C222.017 14.492 221.761 16.212 221.761 18.148C221.761 20.1 222.033 21.836 222.577 23.356C223.137 24.876 223.889 26.156 224.833 27.196C225.777 28.236 226.889 29.036 228.169 29.596C229.449 30.14 230.825 30.412 232.297 30.412C233.177 30.412 233.969 30.364 234.673 30.268C235.393 30.172 236.049 30.02 236.641 29.812C237.249 29.604 237.817 29.34 238.345 29.02C238.889 28.684 239.425 28.276 239.953 27.796C240.113 27.652 240.281 27.54 240.457 27.46C240.633 27.364 240.817 27.316 241.009 27.316ZM262.879 30.292C264.127 30.292 265.239 30.084 266.215 29.668C267.207 29.252 268.039 28.668 268.711 27.916C269.383 27.164 269.895 26.252 270.247 25.18C270.615 24.108 270.799 22.908 270.799 21.58V0.795998H277.255V21.58C277.255 23.644 276.919 25.556 276.247 27.316C275.591 29.06 274.639 30.572 273.391 31.852C272.159 33.116 270.655 34.108 268.879 34.828C267.103 35.532 265.103 35.884 262.879 35.884C260.639 35.884 258.631 35.532 256.855 34.828C255.079 34.108 253.567 33.116 252.319 31.852C251.087 30.572 250.135 29.06 249.463 27.316C248.807 25.556 248.479 23.644 248.479 21.58V0.795998H254.935V21.556C254.935 22.884 255.111 24.084 255.463 25.156C255.831 26.228 256.351 27.148 257.023 27.916C257.711 28.668 258.543 29.252 259.519 29.668C260.511 30.084 261.631 30.292 262.879 30.292ZM304.864 30.172V35.5H284.536V0.795998H290.992V30.172H304.864ZM329.401 6.1H318.937V35.5H312.481V6.1H302.017V0.795998H329.401V6.1ZM347.91 30.292C349.158 30.292 350.27 30.084 351.246 29.668C352.238 29.252 353.07 28.668 353.742 27.916C354.414 27.164 354.926 26.252 355.278 25.18C355.646 24.108 355.83 22.908 355.83 21.58V0.795998H362.286V21.58C362.286 23.644 361.95 25.556 361.278 27.316C360.622 29.06 359.67 30.572 358.422 31.852C357.19 33.116 355.686 34.108 353.91 34.828C352.134 35.532 350.134 35.884 347.91 35.884C345.67 35.884 343.662 35.532 341.886 34.828C340.11 34.108 338.598 33.116 337.35 31.852C336.118 30.572 335.166 29.06 334.494 27.316C333.838 25.556 333.51 23.644 333.51 21.58V0.795998H339.966V21.556C339.966 22.884 340.142 24.084 340.494 25.156C340.862 26.228 341.382 27.148 342.054 27.916C342.742 28.668 343.574 29.252 344.55 29.668C345.542 30.084 346.662 30.292 347.91 30.292Z" fill="white"/>
<path d="M167.331 18.004C167.331 20.532 166.891 22.868 166.011 25.012C165.147 27.14 163.923 28.988 162.339 30.556C160.755 32.108 158.843 33.324 156.603 34.204C154.379 35.068 151.907 35.5 149.187 35.5H135.603V0.532H149.187C151.907 0.532 154.379 0.971999 156.603 1.852C158.843 2.732 160.755 3.948 162.339 5.5C163.923 7.052 165.147 8.9 166.011 11.044C166.891 13.172 167.331 15.492 167.331 18.004ZM159.027 18.004C159.027 16.276 158.803 14.716 158.355 13.324C157.907 11.932 157.259 10.756 156.411 9.796C155.579 8.82 154.555 8.076 153.339 7.564C152.123 7.036 150.739 6.772 149.187 6.772H143.763V29.26H149.187C150.739 29.26 152.123 29.004 153.339 28.492C154.555 27.964 155.579 27.22 156.411 26.26C157.259 25.284 157.907 24.1 158.355 22.708C158.803 21.316 159.027 19.748 159.027 18.004ZM189.38 22.132L186.14 12.556C185.9 11.948 185.644 11.236 185.372 10.42C185.1 9.588 184.828 8.692 184.556 7.732C184.316 8.708 184.06 9.612 183.788 10.444C183.516 11.276 183.26 11.996 183.02 12.604L179.804 22.132H189.38ZM202.268 35.5H195.98C195.276 35.5 194.708 35.34 194.276 35.02C193.844 34.684 193.516 34.26 193.292 33.748L191.228 27.652H177.932L175.868 33.748C175.692 34.196 175.372 34.604 174.908 34.972C174.46 35.324 173.9 35.5 173.228 35.5H166.892L180.428 0.532H188.732L202.268 35.5ZM380.463 16.972C381.567 16.972 382.503 16.836 383.271 16.564C384.055 16.276 384.695 15.884 385.191 15.388C385.687 14.892 386.047 14.316 386.271 13.66C386.495 12.988 386.607 12.268 386.607 11.5C386.607 9.964 386.103 8.764 385.095 7.9C384.103 7.036 382.559 6.604 380.463 6.604H377.199V16.972H380.463ZM397.695 35.5H390.351C388.991 35.5 388.015 34.988 387.423 33.964L381.615 23.812C381.343 23.38 381.039 23.068 380.703 22.876C380.367 22.668 379.887 22.564 379.263 22.564H377.199V35.5H369.087V0.532H380.463C382.991 0.532 385.143 0.796 386.919 1.324C388.711 1.836 390.167 2.556 391.287 3.484C392.423 4.412 393.247 5.508 393.759 6.772C394.271 8.036 394.527 9.412 394.527 10.9C394.527 12.036 394.375 13.108 394.071 14.116C393.767 15.124 393.319 16.06 392.727 16.924C392.135 17.772 391.399 18.532 390.519 19.204C389.655 19.876 388.655 20.428 387.519 20.86C388.047 21.132 388.543 21.476 389.007 21.892C389.471 22.292 389.887 22.772 390.255 23.332L397.695 35.5ZM419.114 22.132L415.874 12.556C415.634 11.948 415.378 11.236 415.106 10.42C414.834 9.588 414.562 8.692 414.29 7.732C414.05 8.708 413.794 9.612 413.522 10.444C413.25 11.276 412.994 11.996 412.754 12.604L409.538 22.132H419.114ZM432.002 35.5H425.714C425.01 35.5 424.442 35.34 424.01 35.02C423.578 34.684 423.25 34.26 423.026 33.748L420.962 27.652H407.666L405.602 33.748C405.426 34.196 405.106 34.604 404.642 34.972C404.194 35.324 403.634 35.5 402.962 35.5H396.626L410.162 0.532H418.466L432.002 35.5ZM455.831 29.02V35.5H434.759V0.532H442.871V29.02H455.831Z" fill="white"/>
<path d="M167.331 18.004C167.331 20.532 166.891 22.868 166.011 25.012C165.147 27.14 163.923 28.988 162.339 30.556C160.755 32.108 158.843 33.324 156.603 34.204C154.379 35.068 151.907 35.5 149.187 35.5H135.603V0.532H149.187C151.907 0.532 154.379 0.971999 156.603 1.852C158.843 2.732 160.755 3.948 162.339 5.5C163.923 7.052 165.147 8.9 166.011 11.044C166.891 13.172 167.331 15.492 167.331 18.004ZM159.027 18.004C159.027 16.276 158.803 14.716 158.355 13.324C157.907 11.932 157.259 10.756 156.411 9.796C155.579 8.82 154.555 8.076 153.339 7.564C152.123 7.036 150.739 6.772 149.187 6.772H143.763V29.26H149.187C150.739 29.26 152.123 29.004 153.339 28.492C154.555 27.964 155.579 27.22 156.411 26.26C157.259 25.284 157.907 24.1 158.355 22.708C158.803 21.316 159.027 19.748 159.027 18.004ZM189.38 22.132L186.14 12.556C185.9 11.948 185.644 11.236 185.372 10.42C185.1 9.588 184.828 8.692 184.556 7.732C184.316 8.708 184.06 9.612 183.788 10.444C183.516 11.276 183.26 11.996 183.02 12.604L179.804 22.132H189.38ZM202.268 35.5H195.98C195.276 35.5 194.708 35.34 194.276 35.02C193.844 34.684 193.516 34.26 193.292 33.748L191.228 27.652H177.932L175.868 33.748C175.692 34.196 175.372 34.604 174.908 34.972C174.46 35.324 173.9 35.5 173.228 35.5H166.892L180.428 0.532H188.732L202.268 35.5ZM380.463 16.972C381.567 16.972 382.503 16.836 383.271 16.564C384.055 16.276 384.695 15.884 385.191 15.388C385.687 14.892 386.047 14.316 386.271 13.66C386.495 12.988 386.607 12.268 386.607 11.5C386.607 9.964 386.103 8.764 385.095 7.9C384.103 7.036 382.559 6.604 380.463 6.604H377.199V16.972H380.463ZM397.695 35.5H390.351C388.991 35.5 388.015 34.988 387.423 33.964L381.615 23.812C381.343 23.38 381.039 23.068 380.703 22.876C380.367 22.668 379.887 22.564 379.263 22.564H377.199V35.5H369.087V0.532H380.463C382.991 0.532 385.143 0.796 386.919 1.324C388.711 1.836 390.167 2.556 391.287 3.484C392.423 4.412 393.247 5.508 393.759 6.772C394.271 8.036 394.527 9.412 394.527 10.9C394.527 12.036 394.375 13.108 394.071 14.116C393.767 15.124 393.319 16.06 392.727 16.924C392.135 17.772 391.399 18.532 390.519 19.204C389.655 19.876 388.655 20.428 387.519 20.86C388.047 21.132 388.543 21.476 389.007 21.892C389.471 22.292 389.887 22.772 390.255 23.332L397.695 35.5ZM419.114 22.132L415.874 12.556C415.634 11.948 415.378 11.236 415.106 10.42C414.834 9.588 414.562 8.692 414.29 7.732C414.05 8.708 413.794 9.612 413.522 10.444C413.25 11.276 412.994 11.996 412.754 12.604L409.538 22.132H419.114ZM432.002 35.5H425.714C425.01 35.5 424.442 35.34 424.01 35.02C423.578 34.684 423.25 34.26 423.026 33.748L420.962 27.652H407.666L405.602 33.748C405.426 34.196 405.106 34.604 404.642 34.972C404.194 35.324 403.634 35.5 402.962 35.5H396.626L410.162 0.532H418.466L432.002 35.5ZM455.831 29.02V35.5H434.759V0.532H442.871V29.02H455.831Z" fill="#9867C5"/>
</svg>
