<svg id="Capa_1" data-name="Capa 1" xmlns="http://www.w3.org/2000/svg" viewBox="0 0 473.1 1061.23"><defs><style>.cls-1{fill:#464d59;}.cls-2{fill:#8f989a;}.cls-3{fill:#798488;}.cls-4{fill:#9ca5a9;}.cls-5{fill:#ee6b75;}.cls-6{fill:#c0c2b9;}.cls-7{fill:#3a3948;}.cls-8{fill:#b3b9be;}</style></defs><title>peliculaDark</title><rect class="cls-1" x="133" y="93.5" width="213.55" height="123.42"/><path class="cls-2" d="M514,920.78h0A10.46,10.46,0,0,1,506.61,908L651.9,361.34a10.46,10.46,0,0,1,12.79-7.42h0a10.46,10.46,0,0,1,7.42,12.79L526.82,913.36A10.46,10.46,0,0,1,514,920.78Z" transform="translate(-446.95 140.1)"/><path class="cls-2" d="M885.27,917.38h0a10.46,10.46,0,0,0,7.42-12.79L747.39,357.94a10.45,10.45,0,0,0-12.79-7.42h0a10.45,10.45,0,0,0-7.41,12.79L872.48,910A10.46,10.46,0,0,0,885.27,917.38Z" transform="translate(-446.95 140.1)"/><path class="cls-3" d="M699.54,909.42h0A10.45,10.45,0,0,0,710,899V333.34a10.45,10.45,0,0,0-10.45-10.45h0a10.45,10.45,0,0,0-10.46,10.45V899A10.45,10.45,0,0,0,699.54,909.42Z" transform="translate(-446.95 140.1)"/><path class="cls-2" d="M185.67,457.76H319.5a0,0,0,0,1,0,0V491a19.18,19.18,0,0,1-19.18,19.18H204.85A19.18,19.18,0,0,1,185.67,491V457.76A0,0,0,0,1,185.67,457.76Z"/><path class="cls-1" d="M124.94,426.35h255.3a0,0,0,0,1,0,0v15A21.62,21.62,0,0,1,358.62,463H146.55a21.62,21.62,0,0,1-21.62-21.62v-15A0,0,0,0,1,124.94,426.35Z"/><polygon class="cls-1" points="124.76 289.47 124.76 354.3 41.12 354.3 7.32 392.42 7.32 251.8 41.12 289.47 124.76 289.47"/><path class="cls-2" d="M873.87,91.31V272.25a30.38,30.38,0,0,1-30.38,30.38H540.41A30.39,30.39,0,0,1,510,272.25V91.31a30.39,30.39,0,0,1,30.38-30.38H843.49a30.37,30.37,0,0,1,30.38,30.38Z" transform="translate(-446.95 140.1)"/><path class="cls-4" d="M733.29,60.93,579.62,302.63H540.41A30.39,30.39,0,0,1,510,272.25V234l110-173Z" transform="translate(-446.95 140.1)"/><path class="cls-4" d="M858.21,64.73,706.94,302.63H635.37L789.05,60.93h54.44A30.21,30.21,0,0,1,858.21,64.73Z" transform="translate(-446.95 140.1)"/><rect class="cls-2" y="251.8" width="7.32" height="140.62"/><circle class="cls-5" cx="557.6" cy="266.43" r="14.11" transform="translate(-241.66 914.26) rotate(-80.78)"/><path class="cls-6" d="M644.9,280H594.2a13.53,13.53,0,0,1,0-27.06h50.7a13.53,13.53,0,0,1,0,27.06Z" transform="translate(-446.95 140.1)"/><path class="cls-1" d="M896.18,122.67H674.87a10.81,10.81,0,0,1-10.8-10.8h0a10.81,10.81,0,0,1,10.8-10.81H896.18Z" transform="translate(-446.95 140.1)"/><polygon class="cls-1" points="449.23 262.77 465.61 278.11 465.61 225.13 449.23 241.17 449.23 262.77"/><rect class="cls-2" x="465.6" y="225.13" width="7.49" height="52.97"/><circle class="cls-1" cx="586.87" cy="-39.36" r="85.24" transform="translate(-247.23 543.55) rotate(-45)"/><circle class="cls-7" cx="586.87" cy="-39.36" r="54.46" transform="translate(-58.16 654.57) rotate(-66.48)"/><path class="cls-2" d="M686.73-26.26a100.23,100.23,0,0,0-.5-29.69,100.61,100.61,0,0,0-12.17-33.83,101.31,101.31,0,0,0-8-11.8,100.52,100.52,0,0,0-43.22-31.87,102,102,0,0,0-19.32-5.24A100.72,100.72,0,0,0,487.55-56a103.18,103.18,0,0,0-1.19,10.25h0a100.16,100.16,0,0,0,11,52.57,101.61,101.61,0,0,0,7.4,12.16,101.13,101.13,0,0,0,25.71,25.15A99.82,99.82,0,0,0,557.24,56.9h0a103.21,103.21,0,0,0,13,3.06,101.34,101.34,0,0,0,23.36,1.19A100.91,100.91,0,0,0,675.5,8.52h0a100.46,100.46,0,0,0,10.69-31.21Q686.49-24.47,686.73-26.26Zm-86.21-94.39c.62.1,1.23.22,1.83.37a27.2,27.2,0,0,1,20.49,31A27.2,27.2,0,0,1,591.51-67a27.21,27.21,0,0,1-22.33-31.34c0-.24.09-.49.13-.73A27.21,27.21,0,0,1,600.52-120.65ZM513.78-77.46A27.21,27.21,0,0,1,550.48-89c.57.3,1.14.62,1.69,1A27.21,27.21,0,0,1,562-52.31a27.22,27.22,0,0,1-36.7,11.55A27.18,27.18,0,0,1,510.9-61.55,27.09,27.09,0,0,1,513.78-77.46Zm52.74,96.2a27.19,27.19,0,0,1-38.47-.36A27,27,0,0,1,521.7,8.06a27.37,27.37,0,0,1-.24-16.77,27,27,0,0,1,6.95-11.38A27.16,27.16,0,0,1,551-27.66a27.06,27.06,0,0,1,15.16,7.19l.75.73A27.21,27.21,0,0,1,566.52,18.74Zm57.09,15.68a27.21,27.21,0,1,1-24.25-48.71,27.21,27.21,0,1,1,24.25,48.71Zm21.89-55a27.22,27.22,0,0,1-12.62-1.09,27.21,27.21,0,0,1-18.3-21.81,27.15,27.15,0,0,1,0-8.1,27.23,27.23,0,0,1,22.9-22.82,27.26,27.26,0,0,1,11.49.74A27.22,27.22,0,0,1,668.4-51.51a27.26,27.26,0,0,1,.15,6.92h0A27.21,27.21,0,0,1,645.5-20.59Z" transform="translate(-446.95 140.1)"/><path class="cls-4" d="M666.08-101.58,551-27.66a27.16,27.16,0,0,0-22.56,7.57,27,27,0,0,0-6.95,11.38L497.35,6.78a100.16,100.16,0,0,1-11-52.57h0L510.9-61.55a27.18,27.18,0,0,0,14.43,20.79A27.22,27.22,0,0,0,562-52.31,27.21,27.21,0,0,0,552.17-88l17.14-11c0,.24-.09.49-.13.73A27.21,27.21,0,0,0,591.51-67a27.2,27.2,0,0,0,31.33-22.33,27.2,27.2,0,0,0-20.49-31l20.51-13.17A100.52,100.52,0,0,1,666.08-101.58Z" transform="translate(-446.95 140.1)"/><path class="cls-4" d="M632.88-21.68,622.3-14.89a27.2,27.2,0,0,0-38,24.42L530.46,44.09a101.13,101.13,0,0,1-25.71-25.15l17-10.88a27,27,0,0,0,6.35,10.32,27.19,27.19,0,0,0,38.47.36,27.21,27.21,0,0,0,.36-38.48l-.75-.73,48.45-31.12a27.15,27.15,0,0,0,0,8.1A27.21,27.21,0,0,0,632.88-21.68Z" transform="translate(-446.95 140.1)"/><path class="cls-4" d="M686.23-55.95,668.55-44.59a27.26,27.26,0,0,0-.15-6.92A27.22,27.22,0,0,0,649-73.67l25.09-16.11A100.61,100.61,0,0,1,686.23-55.95Z" transform="translate(-446.95 140.1)"/><path class="cls-4" d="M686.19-22.69A100.46,100.46,0,0,1,675.5,8.52h0L593.56,61.15A101.34,101.34,0,0,1,570.2,60a103.21,103.21,0,0,1-13-3.06l38.44-24.69A27.21,27.21,0,0,0,638.2,4.91l48.53-31.17Q686.49-24.47,686.19-22.69Z" transform="translate(-446.95 140.1)"/><path class="cls-7" d="M596.64-37.72a9.9,9.9,0,0,1-11.41,8.12A9.91,9.91,0,0,1,577.1-41a9.91,9.91,0,0,1,11.41-8.13A9.9,9.9,0,0,1,596.64-37.72Z" transform="translate(-446.95 140.1)"/><path class="cls-1" d="M571.21,53.92A94.69,94.69,0,0,1,493.59-55a94.69,94.69,0,0,1,108.94-77.63A94.7,94.7,0,0,1,680.16-23.71,94.7,94.7,0,0,1,571.21,53.92ZM601.56-126.9A88.85,88.85,0,0,0,499.33-54.06,88.87,88.87,0,0,0,572.18,48.18,88.86,88.86,0,0,0,674.41-24.67,88.86,88.86,0,0,0,601.56-126.9Z" transform="translate(-446.95 140.1)"/><path class="cls-7" d="M594.3-59a4.06,4.06,0,0,1-4.68,3.33,4.07,4.07,0,0,1-3.34-4.68A4.06,4.06,0,0,1,591-63.73,4.06,4.06,0,0,1,594.3-59Z" transform="translate(-446.95 140.1)"/><path class="cls-7" d="M570.44-52.51A4.06,4.06,0,0,1,572.16-47a4.06,4.06,0,0,1-5.48,1.72A4.06,4.06,0,0,1,565-50.79,4.06,4.06,0,0,1,570.44-52.51Z" transform="translate(-446.95 140.1)"/><path class="cls-7" d="M569.29-27.8a4.06,4.06,0,0,1,5.74.05A4.06,4.06,0,0,1,575-22a4.06,4.06,0,0,1-5.74-.05A4.06,4.06,0,0,1,569.29-27.8Z" transform="translate(-446.95 140.1)"/><path class="cls-7" d="M592.44-19.07a4.06,4.06,0,0,1,1.82-5.45,4.07,4.07,0,0,1,5.45,1.83,4.07,4.07,0,0,1-1.82,5.45A4.07,4.07,0,0,1,592.44-19.07Z" transform="translate(-446.95 140.1)"/><path class="cls-7" d="M607.89-38.39a4,4,0,0,1-4.61-3.42,4.06,4.06,0,0,1,3.42-4.61A4.06,4.06,0,0,1,611.31-43,4.06,4.06,0,0,1,607.89-38.39Z" transform="translate(-446.95 140.1)"/><circle class="cls-1" cx="788.31" cy="-39.36" r="85.56" transform="translate(-188.23 685.99) rotate(-45)"/><circle class="cls-7" cx="788.31" cy="-39.36" r="57.26" transform="translate(-188.23 685.99) rotate(-45)"/><path class="cls-2" d="M883.68-7A100.67,100.67,0,0,0,889-36.21a100.77,100.77,0,0,0-5.33-35.57,100.63,100.63,0,0,0-5.53-13.12A100.41,100.41,0,0,0,842-124.6a101.38,101.38,0,0,0-17.91-8.91A100.71,100.71,0,0,0,694.16-75.12,102.65,102.65,0,0,0,691-65.31h0a100.12,100.12,0,0,0,.51,53.7,100.3,100.3,0,0,0,4.88,13.37,101.08,101.08,0,0,0,20.3,29.69,99.9,99.9,0,0,0,23.76,17.79h0a102.62,102.62,0,0,0,12.12,5.53,101.21,101.21,0,0,0,22.67,5.72,100.9,100.9,0,0,0,90.64-35.59h0A100.8,100.8,0,0,0,882.46-3.61C882.89-4.73,883.3-5.87,883.68-7ZM817.57-116.42c.59.22,1.17.46,1.73.72a27.21,27.21,0,0,1,14.05,34.37,27.21,27.21,0,0,1-35.09,15.78,27.22,27.22,0,0,1-15.78-35.1l.27-.69A27.2,27.2,0,0,1,817.57-116.42ZM724.07-91a27.21,27.21,0,0,1,38.25-4.16c.5.41,1,.84,1.47,1.28a27.2,27.2,0,0,1,2.68,37,27.21,27.21,0,0,1-38.25,4.15A27.19,27.19,0,0,1,718.13-76,27.07,27.07,0,0,1,724.07-91ZM757,13.64a27.2,27.2,0,0,1-37.66-7.86,27.09,27.09,0,0,1-4.22-11.37,27.36,27.36,0,0,1,3-16.49,27.1,27.1,0,0,1,9-9.81,27.22,27.22,0,0,1,23.62-3,27.07,27.07,0,0,1,13.45,10c.21.28.4.57.6.87A27.21,27.21,0,0,1,757,13.64Zm52.93,26.54A27.17,27.17,0,1,1,830,14.08,27.19,27.19,0,0,1,809.93,40.18ZM842.14-9.49A27.2,27.2,0,0,1,830-13a27.25,27.25,0,0,1-13.68-25,26.75,26.75,0,0,1,1.59-7.94,27.24,27.24,0,0,1,26.91-17.91,27.25,27.25,0,0,1,11.12,3,27.24,27.24,0,0,1,14.73,25.54,27.38,27.38,0,0,1-1.2,6.81h0A27.22,27.22,0,0,1,842.14-9.49Z" transform="translate(-446.95 140.1)"/><path class="cls-4" d="M878.14-84.9l-127.32,50a27.22,27.22,0,0,0-23.62,3,27.1,27.1,0,0,0-9,9.81L691.5-11.6A100.12,100.12,0,0,1,691-65.3h0L718.13-76a27.19,27.19,0,0,0,10.09,23.2,27.21,27.21,0,0,0,38.25-4.15,27.2,27.2,0,0,0-2.68-37l19-7.45-.27.69a27.22,27.22,0,0,0,15.78,35.1,27.21,27.21,0,0,0,35.09-15.78A27.21,27.21,0,0,0,819.3-115.7L842-124.6A100.41,100.41,0,0,1,878.14-84.9Z" transform="translate(-446.95 140.1)"/><path class="cls-4" d="M830-13,818.28-8.44A27.21,27.21,0,0,0,776.21,8.08L716.68,31.46a101.08,101.08,0,0,1-20.3-29.69l18.74-7.36a27.09,27.09,0,0,0,4.22,11.37A27.2,27.2,0,0,0,757,13.64,27.21,27.21,0,0,0,764.87-24c-.2-.3-.39-.59-.6-.87l53.61-21A26.75,26.75,0,0,0,816.29-38,27.25,27.25,0,0,0,830-13Z" transform="translate(-446.95 140.1)"/><path class="cls-4" d="M889-36.21l-19.56,7.68a27.38,27.38,0,0,0,1.2-6.81,27.24,27.24,0,0,0-14.73-25.54l27.76-10.9A100.77,100.77,0,0,1,889-36.21Z" transform="translate(-446.95 140.1)"/><path class="cls-4" d="M882.46-3.61a100.8,100.8,0,0,1-16.58,28.52h0L775.23,60.51a101.21,101.21,0,0,1-22.67-5.72,102.62,102.62,0,0,1-12.12-5.53L783,32.55a27.21,27.21,0,0,0,47-18.47L883.68-7C883.3-5.87,882.89-4.73,882.46-3.61Z" transform="translate(-446.95 140.1)"/><path class="cls-7" d="M797.57-35.85a9.91,9.91,0,0,1-12.78,5.75,9.92,9.92,0,0,1-5.74-12.78,9.89,9.89,0,0,1,12.77-5.74A9.9,9.9,0,0,1,797.57-35.85Z" transform="translate(-446.95 140.1)"/><path class="cls-1" d="M754.73,49.06a94.69,94.69,0,0,1-54.85-122,94.7,94.7,0,0,1,122-54.84,94.71,94.71,0,0,1,54.85,122A94.69,94.69,0,0,1,754.73,49.06Zm65.09-171.41A88.87,88.87,0,0,0,705.33-70.88a88.87,88.87,0,0,0,51.46,114.5A88.86,88.86,0,0,0,871.29-7.85,88.86,88.86,0,0,0,819.82-122.35Z" transform="translate(-446.95 140.1)"/><path class="cls-7" d="M799.44-57.22a4.06,4.06,0,0,1-5.24,2.35,4.07,4.07,0,0,1-2.36-5.24,4.07,4.07,0,0,1,5.24-2.36A4.07,4.07,0,0,1,799.44-57.22Z" transform="translate(-446.95 140.1)"/><path class="cls-7" d="M774.76-55.47a4.06,4.06,0,0,1,.62,5.71,4.05,4.05,0,0,1-5.71.62,4.05,4.05,0,0,1-.62-5.71A4.06,4.06,0,0,1,774.76-55.47Z" transform="translate(-446.95 140.1)"/><path class="cls-7" d="M768.81-31.46a4.06,4.06,0,0,1,5.62,1.18,4.06,4.06,0,0,1-1.17,5.62,4.06,4.06,0,0,1-5.63-1.17A4.07,4.07,0,0,1,768.81-31.46Z" transform="translate(-446.95 140.1)"/><path class="cls-7" d="M789.8-18.37a4.06,4.06,0,0,1,2.86-5,4.06,4.06,0,0,1,5,2.86,4.05,4.05,0,0,1-2.85,5A4.07,4.07,0,0,1,789.8-18.37Z" transform="translate(-446.95 140.1)"/><path class="cls-7" d="M808.73-34.3a4.06,4.06,0,0,1-3.86-4.25,4.07,4.07,0,0,1,4.26-3.86A4.06,4.06,0,0,1,813-38.16,4.06,4.06,0,0,1,808.73-34.3Z" transform="translate(-446.95 140.1)"/><path class="cls-8" d="M809.94,82.55h-272a5.88,5.88,0,0,1,0-11.76h272a5.88,5.88,0,0,1,0,11.76Z" transform="translate(-446.95 140.1)"/><path class="cls-8" d="M746.79,337.39H644.9a3.53,3.53,0,1,1,0-7.05H746.79a3.53,3.53,0,1,1,0,7.05Z" transform="translate(-446.95 140.1)"/><rect class="cls-1" x="798.65" y="300.96" width="10.46" height="88.83" rx="4.38" transform="translate(-479.79 741.24) rotate(-40.25)"/><path class="cls-2" d="M896.61,389.63H838.78a13.94,13.94,0,0,1-13.94-13.94h0a13.94,13.94,0,0,1,13.94-13.94h57.83a13.94,13.94,0,0,1,13.94,13.94h0A13.94,13.94,0,0,1,896.61,389.63Z" transform="translate(-446.95 140.1)"/><path class="cls-8" d="M867.69,374.25H838.55a3.53,3.53,0,1,1,0-7.06h29.14a3.53,3.53,0,0,1,0,7.06Z" transform="translate(-446.95 140.1)"/></svg>