<svg width="271" height="34" viewBox="0 0 271 34" fill="none" xmlns="http://www.w3.org/2000/svg">
<rect x="0.616895" y="1.16353" width="269.625" height="32.1979" rx="6.1919" stroke="#050E12" stroke-width="0.825586"/>
<path d="M249.26 23.9449L246.142 20.8362C247.148 19.5546 247.693 17.972 247.691 16.3428C247.691 14.8918 247.261 13.4734 246.455 12.267C245.649 11.0606 244.503 10.1203 243.163 9.56503C241.822 9.00977 240.347 8.86449 238.924 9.14756C237.501 9.43063 236.194 10.1293 235.168 11.1553C234.142 12.1813 233.443 13.4885 233.16 14.9116C232.877 16.3346 233.022 17.8097 233.577 19.1502C234.133 20.4907 235.073 21.6365 236.279 22.4426C237.486 23.2487 238.904 23.679 240.355 23.679C241.984 23.681 243.567 23.1351 244.849 22.1292L247.957 25.2471C248.043 25.333 248.144 25.4012 248.256 25.4478C248.368 25.4943 248.487 25.5183 248.608 25.5183C248.729 25.5183 248.849 25.4943 248.961 25.4478C249.073 25.4012 249.174 25.333 249.26 25.2471C249.345 25.1618 249.414 25.0604 249.46 24.9486C249.507 24.8369 249.531 24.717 249.531 24.596C249.531 24.4749 249.507 24.3551 249.46 24.2433C249.414 24.1316 249.345 24.0301 249.26 23.9449ZM234.853 16.3428C234.853 15.2546 235.176 14.1908 235.78 13.286C236.385 12.3811 237.244 11.6759 238.25 11.2595C239.255 10.843 240.361 10.7341 241.429 10.9464C242.496 11.1587 243.476 11.6827 244.246 12.4522C245.015 13.2217 245.539 14.2021 245.752 15.2694C245.964 16.3367 245.855 17.443 245.439 18.4484C245.022 19.4537 244.317 20.3131 243.412 20.9176C242.507 21.5222 241.443 21.8449 240.355 21.8449C238.896 21.8449 237.496 21.2652 236.465 20.2334C235.433 19.2015 234.853 17.802 234.853 16.3428Z" fill="#050E12"/>
</svg>
