<svg xmlns="http://www.w3.org/2000/svg" viewBox="0 0 625.06 540.31"><defs><style>.cls-1{isolation:isolate;}.cls-2{fill:#fcfaf7;}.cls-3{fill:#f7f6f5;}.cls-4{fill:#9867c5;}.cls-5{fill:#fff;mix-blend-mode:multiply;}</style></defs><title>tiketsLight</title><g class="cls-1"><g id="Capa_1" data-name="Capa 1"><path class="cls-2" d="M907.56,314l-9.45,6.94-28,20.52L529.25,591.57c-11.91-16.23-36.33-18.54-54.56-5.16l-59.48-81.06-3.86-5.27-40.38-55c18.23-13.38,23.34-37.37,11.44-53.59L760.72,113.85c11.91,16.22,36.34,18.54,54.57,5.16L919,260.36C900.78,273.73,895.65,297.73,907.56,314Z" transform="translate(-370.97 -113.84)"/><polygon class="cls-3" points="211.24 131.01 294.68 377.63 179.75 461.97 96.3 215.35 211.24 131.01"/><polygon class="cls-3" points="345.03 32.83 424.93 282.05 347.58 338.81 267.69 89.58 345.03 32.83"/><path class="cls-4" d="M411.39,370.2,558.23,570.3l-29,21.27c-11.91-16.23-36.33-18.54-54.56-5.16L371,445.06c18.23-13.38,23.34-37.37,11.44-53.59Z" transform="translate(-370.97 -113.84)"/><path class="cls-4" d="M731.76,135.11,878.6,335.21l29-21.26c-11.9-16.23-6.78-40.22,11.44-53.6L815.29,119c-18.23,13.37-42.65,11-54.56-5.17Z" transform="translate(-370.97 -113.84)"/><path class="cls-4" d="M563.54,552.23,431.68,372.54l2.41-1.78L726.63,156.09,858.5,335.79l-2.42,1.77ZM440.06,373.82l124.77,170L850.11,334.5l-124.76-170Z" transform="translate(-370.97 -113.84)"/><path class="cls-4" d="M524.81,367.27l9.78-7.17q5.11,7.89,4.15,15t-7.86,12.2q-7.73,5.67-16.13,3.52T499.46,379.3q-6.88-9.37-6.47-18t8-14.2q7-5.11,13.94-4t12.93,8.2L518,358.52a8.88,8.88,0,0,0-4.85-3.27,6.15,6.15,0,0,0-5,1.34,6.09,6.09,0,0,0-2.61,6q.42,3.75,4.34,9.09t7.42,6.74a6.45,6.45,0,0,0,6.71-.8,5.87,5.87,0,0,0,2.6-4.43A9.91,9.91,0,0,0,524.81,367.27Z" transform="translate(-370.97 -113.84)"/><path class="cls-4" d="M554.49,368.37,526.33,330l10.52-7.72L565,360.66Z" transform="translate(-370.97 -113.84)"/><path class="cls-4" d="M575.76,352.76,547.61,314.4l9.8-7.19,22.1,11.22a16.7,16.7,0,0,1,2.45,1.49q1.49,1,3.45,2.61c-.59-.62-1.2-1.32-1.85-2.1s-1.39-1.76-2.24-2.92L568,299.41l9.84-7.23L606,330.55l-9.84,7.22-22-11.1a19.27,19.27,0,0,1-2.53-1.54c-1-.72-2.16-1.57-3.4-2.56a26.46,26.46,0,0,1,1.77,2c.59.7,1.37,1.72,2.35,3.06l13.19,18Z" transform="translate(-370.97 -113.84)"/><path class="cls-4" d="M616.61,322.79l-28.15-38.37,25.69-18.85,6.74,9.19L605.53,286l3.74,5.1,13-9.53,6.46,8.81-13,9.53,4.35,5.94,16-11.74,6.84,9.32Z" transform="translate(-370.97 -113.84)"/><path class="cls-4" d="M661.57,289.8l-9.34,6.85-28.16-38.36,12.57-9.23,18.5,15.88c.25.22.81.73,1.66,1.53s2,1.9,3.56,3.29c-.74-1.43-1.37-2.69-1.91-3.79s-.91-1.92-1.13-2.51l-9.55-22.57,12.55-9.21,28.16,38.37-9.35,6.86-13.76-19c-.85-1.15-1.66-2.27-2.45-3.36l-2.44-3.39c1.1,2.23,2.27,4.7,3.49,7.41l.18.39L674,280.7l-7.2,5.29-17.49-15.42c-.8-.69-1.69-1.51-2.67-2.45s-2.3-2.21-4-3.83l3.21,4.17c.89,1.17,1.6,2.11,2.12,2.82Z" transform="translate(-370.97 -113.84)"/><path class="cls-4" d="M695.85,264.64,679,218l10.45-7.67,39.46,30.07-10.23,7.51-4.93-4.2-10.24,7.51,2.49,6Zm3.63-22.86L706,237l-13-10.93Z" transform="translate(-370.97 -113.84)"/><path class="cls-4" d="M574.72,414.78l-17.24-23.5-7.69,5.65-6.17-8.4,24-17.59,6.16,8.4L566.06,385l17.24,23.49Z" transform="translate(-370.97 -113.84)"/><path class="cls-4" d="M597.63,398l-23.41-31.9,8.75-6.41,23.4,31.89Z" transform="translate(-370.97 -113.84)"/><path class="cls-4" d="M623.56,359.91l8.13-6q4.26,6.57,3.45,12.5t-6.53,10.15q-6.43,4.71-13.41,2.92t-12.71-9.6q-5.72-7.8-5.38-15a15,15,0,0,1,6.64-11.8q5.81-4.26,11.59-3.36t10.74,6.83l-8.22,6a7.42,7.42,0,0,0-4-2.72A5.16,5.16,0,0,0,609.7,351a5.08,5.08,0,0,0-2.17,5c.24,2.09,1.44,4.6,3.61,7.57s4.19,4.76,6.18,5.59a5.36,5.36,0,0,0,5.57-.66,4.87,4.87,0,0,0,2.16-3.68A8.19,8.19,0,0,0,623.56,359.91Z" transform="translate(-370.97 -113.84)"/><path class="cls-4" d="M648.09,360.94,624.68,329l8.51-6.24L641,333.37l-.07-16.21,10-7.31-.91,18.76,25.55,12.23-10.23,7.5-15.91-8-.2,4.18,7.46,10.15Z" transform="translate(-370.97 -113.84)"/><path class="cls-4" d="M680.77,337l-23.4-31.89,21.35-15.67,5.61,7.64-12.77,9.38,3.11,4.24,10.8-7.92,5.37,7.31L680,318l3.63,4.93L697,313.15l5.69,7.75Z" transform="translate(-370.97 -113.84)"/><path class="cls-4" d="M716,311.1l-17.24-23.49-7.69,5.64-6.16-8.4,24-17.58,6.16,8.4-7.69,5.64,17.24,23.49Z" transform="translate(-370.97 -113.84)"/><rect class="cls-4" x="478.22" y="369.07" width="358.76" height="4" transform="translate(-463.07 347.1) rotate(-36.27)"/><path class="cls-4" d="M637.21,420.49l-3-2.14L630,421.46l1.2,3.44-2.44,1.79L623.4,409l1-.71,15.28,10.39ZM627,412.91l2.27,6.21,3-2.18Z" transform="translate(-370.97 -113.84)"/><path class="cls-4" d="M643.69,415.74l-2.74,2-10.16-13.84c1.7-1.35,2.77-2.19,3.22-2.52A6.78,6.78,0,0,1,639.6,400a8.42,8.42,0,0,1,5,3.55Q650.12,411,643.69,415.74Zm-9.13-11.29,6.94,9.45a13.36,13.36,0,0,0,1.19-.78,3.76,3.76,0,0,0,1.61-3.27,8.22,8.22,0,0,0-1.83-4.47q-3.27-4.44-7-1.73C635.28,403.82,635,404.09,634.56,404.45Z" transform="translate(-370.97 -113.84)"/><path class="cls-4" d="M663.59,401.15l-2.12,1.56-6.77-6.53,3.13,9.48-.79.57-8.1-5.82,4.15,8.45L651,410.42l-7.68-15.69,1.16-.86,9.52,7.37L649.74,390l1.16-.85Z" transform="translate(-370.97 -113.84)"/><path class="cls-4" d="M665,400.12l-10.16-13.85,2.19-1.61,10.17,13.85Z" transform="translate(-370.97 -113.84)"/><path class="cls-4" d="M666.22,381.26l8.56,11.66-2.19,1.61L664,382.87l-3.94,2.89-1.6-2.19,10.24-7.51,1.6,2.18Z" transform="translate(-370.97 -113.84)"/><path class="cls-4" d="M679.47,378.65a10.47,10.47,0,0,1-2.23-6.07,5.62,5.62,0,0,1,2.37-4.89,6,6,0,0,1,5.44-1.13,10.44,10.44,0,0,1,5.22,4.16,10.73,10.73,0,0,1,2.43,6.4,6.1,6.1,0,0,1-2.74,5,5.38,5.38,0,0,1-5.25.86A11.55,11.55,0,0,1,679.47,378.65Zm2.28-1.67a9.72,9.72,0,0,0,3.49,3.22,2.9,2.9,0,0,0,3.12-.23,3.54,3.54,0,0,0,1.55-3.15,8.52,8.52,0,0,0-1.92-4.43q-3.57-4.86-6.78-2.51a3.06,3.06,0,0,0-1.28,3A8.61,8.61,0,0,0,681.75,377Z" transform="translate(-370.97 -113.84)"/><path class="cls-4" d="M705.63,370.58l-12.43-4.36,6.3,8.58-2.11,1.55-10.17-13.86,1-.78,12,4.07-6.13-8.35,2.11-1.55,10.3,14Z" transform="translate(-370.97 -113.84)"/><path class="cls-4" d="M702.56,354.59l2.38,3.25,4.08-3,1.54,2.09-4.09,3,3,4.16,5.6-4.12,1.6,2.19-7.8,5.72L698.76,354l7.89-5.79,1.61,2.18Z" transform="translate(-370.97 -113.84)"/><rect class="cls-4" x="512.25" y="456.66" width="113.6" height="4" transform="translate(-532.05 311.68) rotate(-36.27)"/><rect class="cls-4" x="710.78" y="310.97" width="113.6" height="4" transform="translate(-407.39 400.91) rotate(-36.27)"/><polygon class="cls-4" points="133.2 289.05 149.6 301.04 165.89 288.89 159.56 308.19 176.14 319.93 155.82 319.87 149.79 339.27 143.56 319.93 123.25 320.18 139.72 308.29 133.2 289.05"/><polygon class="cls-4" points="365.39 118.66 381.8 130.65 398.08 118.5 391.75 137.81 408.33 149.55 388.01 149.49 381.98 168.89 375.75 149.54 355.44 149.8 371.91 137.9 365.39 118.66"/><rect class="cls-4" x="500.75" y="399.77" width="358.76" height="4" transform="translate(-476.87 366.38) rotate(-36.27)"/><path class="cls-4" d="M608.18,483.06q-3.42-4.67-3.19-8.53t4.1-6.72q3.88-2.85,7.67-1.92t7.21,5.59q3.42,4.68,3.19,8.57c-.17,2.59-1.54,4.84-4.14,6.75s-5.12,2.52-7.64,1.88S610.46,486.17,608.18,483.06Zm10.32-7.57a13.14,13.14,0,0,0-3.59-3.71,2.39,2.39,0,0,0-2.77.18,2.43,2.43,0,0,0-1,2.59,13.28,13.28,0,0,0,2.48,4.55,12.85,12.85,0,0,0,3.59,3.71A2.62,2.62,0,0,0,621,480,13.19,13.19,0,0,0,618.5,475.49Z" transform="translate(-370.97 -113.84)"/><path class="cls-4" d="M640.27,473.35l-7.68-10.45-4,3-2.73-3.72a8.3,8.3,0,0,0,3-3.64,5.2,5.2,0,0,0-.58-4l4.06-3,13.18,18Z" transform="translate(-370.97 -113.84)"/><path class="cls-4" d="M649.22,457l4.91-3.6a3.63,3.63,0,0,0,2.13,1.49,3.06,3.06,0,0,0,2.35-.72,3,3,0,0,0,1.28-1.77,2.51,2.51,0,0,0-.57-2,2.09,2.09,0,0,0-1.79-1,5.07,5.07,0,0,0-2.58,1.17l-.44.33-2.27-3.09.36-.27a5,5,0,0,0,1.82-2.05,2.13,2.13,0,0,0-1.72-2.77,2.81,2.81,0,0,0-1.8.66,3.13,3.13,0,0,0-1.31,1.73,2.53,2.53,0,0,0,.45,1.95l-4.83,3.54a6.89,6.89,0,0,1-1.19-5.89,11.42,11.42,0,0,1,10-7.72,5.68,5.68,0,0,1,4.65,2.43,5.15,5.15,0,0,1,1,2.46,4.41,4.41,0,0,1-.44,2.51,4.39,4.39,0,0,1,2.92.12,6,6,0,0,1,2.47,2.1,6.92,6.92,0,0,1,1.32,6.08,10.9,10.9,0,0,1-4.47,5.81,9.52,9.52,0,0,1-6.61,2.15,7.5,7.5,0,0,1-5.45-3.3Z" transform="translate(-370.97 -113.84)"/><path class="cls-4" d="M666.37,440.36q-3.42-4.65-3.2-8.53t4.11-6.72q3.88-2.85,7.67-1.92t7.2,5.59q3.44,4.68,3.19,8.57t-4.13,6.75c-2.58,1.89-5.12,2.52-7.64,1.88S668.65,443.48,666.37,440.36Zm10.32-7.57a13.14,13.14,0,0,0-3.59-3.71,2.6,2.6,0,0,0-3.8,2.77,13.12,13.12,0,0,0,2.47,4.55,12.85,12.85,0,0,0,3.6,3.71,2.61,2.61,0,0,0,3.78-2.79A13.19,13.19,0,0,0,676.69,432.79Z" transform="translate(-370.97 -113.84)"/><path class="cls-4" d="M697.06,420.25a5.6,5.6,0,0,1-1,2.24,9,9,0,0,1-2,2,7.77,7.77,0,0,1-5.69,1.71,7,7,0,0,1-4.85-3.06A7.36,7.36,0,0,1,682,417a9.87,9.87,0,0,1,4.16-5.71c2.68-2,5.28-2.66,7.81-2.08s4.93,2.42,7.21,5.53,3.19,5.85,3,8.58a9.2,9.2,0,0,1-4.12,6.88,9.81,9.81,0,0,1-5.67,2.14,7.15,7.15,0,0,1-5.06-1.94l4.78-3.8a2.49,2.49,0,0,0,1.56.53,2.81,2.81,0,0,0,1.61-.61,2.84,2.84,0,0,0,1.27-2.53A7.59,7.59,0,0,0,697.06,420.25Zm-3.52-4.42a3,3,0,0,0-1.95-1.32,2.93,2.93,0,0,0-2.23.63,2.84,2.84,0,0,0-1.24,1.91,3,3,0,0,0,.65,2.22,3.1,3.1,0,0,0,1.94,1.34,2.8,2.8,0,0,0,2.18-.61,3,3,0,0,0,1.28-1.94A2.91,2.91,0,0,0,693.54,415.83Z" transform="translate(-370.97 -113.84)"/><path class="cls-4" d="M717.85,416.42,710.18,406l-4,3-2.74-3.73a8.1,8.1,0,0,0,3-3.63,5.15,5.15,0,0,0-.58-4l4.06-3,13.18,18Z" transform="translate(-370.97 -113.84)"/><path class="cls-4" d="M728.91,392.06a6.06,6.06,0,0,1,1-2.23,8.78,8.78,0,0,1,2-2,7.73,7.73,0,0,1,5.68-1.71,7,7,0,0,1,4.84,3.05,7.39,7.39,0,0,1,1.48,6.17,9.82,9.82,0,0,1-4.14,5.71c-2.68,2-5.28,2.66-7.8,2.07s-4.94-2.43-7.23-5.55-3.19-5.85-3-8.57a9.18,9.18,0,0,1,4.12-6.88,10,10,0,0,1,5.69-2.15,7.19,7.19,0,0,1,5.08,1.95l-4.84,3.81a2.45,2.45,0,0,0-1.54-.54,2.8,2.8,0,0,0-1.61.6,2.88,2.88,0,0,0-1.28,2.54A7.56,7.56,0,0,0,728.91,392.06Zm3.52,4.45a3,3,0,0,0,1.94,1.3,3.3,3.3,0,0,0,3.49-2.55,3,3,0,0,0-.65-2.22,3.07,3.07,0,0,0-1.94-1.33,2.78,2.78,0,0,0-2.19.61,2.79,2.79,0,0,0-.65,4.19Z" transform="translate(-370.97 -113.84)"/><path class="cls-4" d="M744,383.43q-3.42-4.67-3.19-8.53c.15-2.59,1.52-4.82,4.1-6.72s5.15-2.55,7.67-1.92,4.93,2.48,7.21,5.59,3.35,6,3.19,8.57-1.54,4.84-4.13,6.74-5.13,2.52-7.65,1.89S746.24,386.54,744,383.43Zm10.32-7.57a13.14,13.14,0,0,0-3.59-3.71,2.39,2.39,0,0,0-2.77.18,2.44,2.44,0,0,0-1,2.59,13.28,13.28,0,0,0,2.48,4.55,13.13,13.13,0,0,0,3.59,3.71,2.62,2.62,0,0,0,3.78-2.79A13.19,13.19,0,0,0,754.27,375.86Z" transform="translate(-370.97 -113.84)"/><path class="cls-4" d="M765.6,371.61l4.9-3.6a3.6,3.6,0,0,0,2.14,1.49,3.07,3.07,0,0,0,2.35-.72,2.92,2.92,0,0,0,1.27-1.77,2.5,2.5,0,0,0-.56-2,2.12,2.12,0,0,0-1.79-1,5.22,5.22,0,0,0-2.59,1.17l-.44.33-2.26-3.09.36-.27a5,5,0,0,0,1.82-2,1.93,1.93,0,0,0-.3-1.92,1.88,1.88,0,0,0-1.42-.86,2.83,2.83,0,0,0-1.8.67,3.1,3.1,0,0,0-1.32,1.72,2.53,2.53,0,0,0,.45,1.95l-4.82,3.54a6.93,6.93,0,0,1-1.2-5.89,9.78,9.78,0,0,1,4-5.49,9.89,9.89,0,0,1,6-2.23,5.69,5.69,0,0,1,4.65,2.43,5.25,5.25,0,0,1,1,2.46,4.5,4.5,0,0,1-.44,2.51,4.39,4.39,0,0,1,2.92.12,6.11,6.11,0,0,1,2.47,2.1,6.92,6.92,0,0,1,1.32,6.08,11,11,0,0,1-4.47,5.81,9.55,9.55,0,0,1-6.61,2.15,7.47,7.47,0,0,1-5.45-3.3Z" transform="translate(-370.97 -113.84)"/><path class="cls-5" d="M898.11,320.9l-28,20.52L529.25,591.57c-11.91-16.23-36.33-18.54-54.56-5.16l-59.48-81.06-3.86-5.27-10.11-78.41c22.43-2.89,38.51-21.41,35.94-41.37Z" transform="translate(-370.97 -113.84)"/><path class="cls-2" d="M973.62,378.92,996,552.8c-22.43,2.89-38.52,21.41-35.95,41.38l-465.4,60c-2.57-20-22.82-33.8-45.25-30.91L427,449.36C449.45,446.48,465.53,428,463,408l465.4-60C930.93,368,951.19,381.81,973.62,378.92Z" transform="translate(-370.97 -113.84)"/><polygon class="cls-3" points="337.78 262.47 291.51 518.69 150.12 536.91 196.38 280.69 337.78 262.47"/><polygon class="cls-3" points="502.37 241.26 451.75 498.04 356.59 510.3 407.22 253.52 502.37 241.26"/><path class="cls-4" d="M498.61,403.4l31.72,246.16-35.65,4.6c-2.57-20-22.82-33.8-45.25-30.91L427,449.36C449.45,446.48,465.53,428,463,408Z" transform="translate(-370.97 -113.84)"/><path class="cls-4" d="M892.72,352.61l31.73,246.16,35.64-4.59c-2.57-20,13.51-38.49,35.94-41.38L973.62,378.92C951.19,381.81,930.94,368,928.37,348Z" transform="translate(-370.97 -113.84)"/><path class="cls-4" d="M543.72,636.32,515.23,415.26l362.86-46.77,28.49,221.06ZM522,420.44l27,209.16,351-45.23-27-209.16Z" transform="translate(-370.97 -113.84)"/><path class="cls-4" d="M599.33,455.68l12-1.55q.66,9.4-3.64,15.18t-12.79,6.88q-9.51,1.21-15.81-4.72T571.32,454q-1.49-11.54,3-18.89t13.86-8.57q8.58-1.1,14.15,3.21t7.34,13.44l-12.16,1.57a8.93,8.93,0,0,0-2.66-5.21,6.73,6.73,0,0,0-10.17,2.74q-1.46,3.5-.6,10.06t3.24,9.49a6.45,6.45,0,0,0,6.25,2.55,5.94,5.94,0,0,0,4.43-2.63A10,10,0,0,0,599.33,455.68Z" transform="translate(-370.97 -113.84)"/><path class="cls-4" d="M624.77,471l-6.08-47.2,12.94-1.67,6.08,47.2Z" transform="translate(-370.97 -113.84)"/><path class="cls-4" d="M650.94,467.63l-6.08-47.2,12-1.55,13.92,20.52a17.63,17.63,0,0,1,1.43,2.49c.53,1.08,1.11,2.4,1.75,3.94-.22-.82-.42-1.73-.6-2.72s-.37-2.22-.55-3.65L670,417.19l12.11-1.56,6.08,47.2-12.11,1.56L662.18,444a17.73,17.73,0,0,1-1.47-2.58c-.55-1.12-1.13-2.41-1.74-3.88q.35,1.23.6,2.58c.17.9.37,2.18.58,3.82L663,466.08Z" transform="translate(-370.97 -113.84)"/><path class="cls-4" d="M701.2,461.16,695.11,414l31.6-4.08,1.46,11.31-18.9,2.44.81,6.28,16-2.06,1.39,10.83-16,2.06.94,7.31,19.68-2.54L733.57,457Z" transform="translate(-370.97 -113.84)"/><path class="cls-4" d="M756.5,454,745,455.51l-6.09-47.2,15.47-2,8.51,22.84c.11.31.35,1,.71,2.14s.87,2.65,1.52,4.61c0-1.61.1-3,.17-4.24s.13-2.13.22-2.75l2.56-24.37,15.44-2,6.08,47.2-11.49,1.48L775.22,428c-.18-1.41-.35-2.78-.51-4.12s-.33-2.72-.5-4.16c-.11,2.5-.29,5.22-.53,8.18l0,.43-1.91,23.73-8.86,1.15-7.85-22c-.37-1-.75-2.14-1.16-3.43s-.94-3.05-1.6-5.27c.31,2,.58,3.76.79,5.21s.38,2.61.49,3.49Z" transform="translate(-370.97 -113.84)"/><path class="cls-4" d="M798.67,448.59l7.82-49,12.86-1.66,20,45.41L826.75,445l-2.28-6.05-12.59,1.62-.73,6.44Zm14.24-18.25,8-1-6.06-15.83Z" transform="translate(-370.97 -113.84)"/><path class="cls-4" d="M620,521.4l-3.72-28.9-9.47,1.22-1.33-10.33,29.48-3.8,1.33,10.33-9.46,1.22,3.73,28.9Z" transform="translate(-370.97 -113.84)"/><path class="cls-4" d="M648.21,517.77l-5.05-39.23,10.75-1.39L659,516.38Z" transform="translate(-370.97 -113.84)"/><path class="cls-4" d="M689.32,497l10-1.29q.55,7.81-3,12.62t-10.63,5.71q-7.89,1-13.14-3.92T666,495.57q-1.24-9.58,2.53-15.7a15,15,0,0,1,11.52-7.12q7.14-.93,11.77,2.67t6.1,11.16l-10.11,1.31a7.41,7.41,0,0,0-2.22-4.33,5.59,5.59,0,0,0-8.45,2.28q-1.2,2.9-.5,8.36t2.7,7.88a5.33,5.33,0,0,0,5.19,2.12,4.9,4.9,0,0,0,3.68-2.18A8.24,8.24,0,0,0,689.32,497Z" transform="translate(-370.97 -113.84)"/><path class="cls-4" d="M710.29,509.77l-5.06-39.23,10.47-1.35,1.67,13L725.16,468l12.25-1.58-9.87,16L744,505.43l-12.59,1.62-10.06-14.68-2.19,3.56,1.61,12.49Z" transform="translate(-370.97 -113.84)"/><path class="cls-4" d="M750.5,504.59l-5.06-39.24L771.71,462l1.21,9.4-15.71,2,.67,5.22,13.29-1.72,1.16,9L759,487.62l.79,6.07,16.35-2.11,1.23,9.54Z" transform="translate(-370.97 -113.84)"/><path class="cls-4" d="M793.83,499l-3.72-28.9-9.46,1.22L779.32,461l29.48-3.8,1.33,10.33-9.46,1.22,3.72,28.9Z" transform="translate(-370.97 -113.84)"/><rect class="cls-4" x="534.3" y="521.26" width="358.76" height="4" transform="translate(-432.05 -18.24) rotate(-7.35)"/><path class="cls-4" d="M672,556.63l-1.55-3.31-5.22.68-.61,3.59-3,.38,3.84-18.05,1.18-.15L675,556.25Zm-5.28-11.58-1,6.53,3.65-.47Z" transform="translate(-370.97 -113.84)"/><path class="cls-4" d="M679.93,555.61l-3.37.43-2.2-17c2.14-.37,3.49-.58,4-.66a6.78,6.78,0,0,1,5.55,1.51,8.44,8.44,0,0,1,2.69,5.53Q687.84,554.6,679.93,555.61Zm-2.53-14.3,1.5,11.63c.44,0,.92-.05,1.42-.11a3.72,3.72,0,0,0,3-2.08,8.09,8.09,0,0,0,.56-4.8c-.47-3.65-2.22-5.27-5.24-4.88A9.81,9.81,0,0,0,677.4,541.31Z" transform="translate(-370.97 -113.84)"/><path class="cls-4" d="M704.41,552.46l-2.62.34-2.76-9-1.85,9.8-1,.13-4.27-9-.46,9.4-2.61.34.87-17.45,1.43-.18,4.78,11L697.69,536l1.42-.19Z" transform="translate(-370.97 -113.84)"/><path class="cls-4" d="M706.12,552.23l-2.19-17,2.7-.35,2.19,17Z" transform="translate(-370.97 -113.84)"/><path class="cls-4" d="M716.33,536.33l1.85,14.35-2.7.35-1.85-14.36-4.84.63-.34-2.69L721,533l.35,2.68Z" transform="translate(-370.97 -113.84)"/><path class="cls-4" d="M729.18,540.45a10.52,10.52,0,0,1,1-6.39,5.61,5.61,0,0,1,4.44-3.13,6,6,0,0,1,5.31,1.64,10.48,10.48,0,0,1,2.56,6.17,10.78,10.78,0,0,1-1,6.77,6.1,6.1,0,0,1-4.84,3.08,5.37,5.37,0,0,1-5-1.79A11.58,11.58,0,0,1,729.18,540.45Zm2.81-.36a9.85,9.85,0,0,0,1.5,4.51,2.86,2.86,0,0,0,2.84,1.3,3.49,3.49,0,0,0,2.88-2,8.47,8.47,0,0,0,.46-4.8q-.76-6-4.71-5.48a3.07,3.07,0,0,0-2.57,2A8.57,8.57,0,0,0,732,540.09Z" transform="translate(-370.97 -113.84)"/><path class="cls-4" d="M756,546l-8.77-9.83,1.36,10.56-2.6.34-2.19-17.05,1.3-.17,8.51,9.35L752.27,529l2.6-.33,2.22,17.27Z" transform="translate(-370.97 -113.84)"/><path class="cls-4" d="M761,530.57l.51,4,5-.64.33,2.57-5,.65.65,5.1,6.9-.89.35,2.69-9.6,1.24-2.2-17L767.7,527l.34,2.69Z" transform="translate(-370.97 -113.84)"/><rect class="cls-4" x="537.01" y="555.08" width="113.6" height="4" transform="translate(-437.36 -33.3) rotate(-7.35)"/><rect class="cls-4" x="781.24" y="523.6" width="113.6" height="4" transform="translate(-431.33 -2.31) rotate(-7.35)"/><polygon class="cls-4" points="193.03 363.05 201.59 381.48 221.72 378.72 206.84 392.55 215.67 410.85 197.92 400.97 183.25 415.03 187.16 395.09 169.26 385.48 189.43 383.04 193.03 363.05"/><polygon class="cls-4" points="478.67 326.23 487.23 344.66 507.36 341.91 492.47 355.74 501.31 374.04 483.56 364.16 468.89 378.22 472.8 358.28 454.89 348.67 475.07 346.23 478.67 326.23"/><rect class="cls-4" x="539.17" y="559.02" width="358.76" height="4" transform="translate(-436.84 -17.31) rotate(-7.35)"/><path class="cls-4" d="M616.29,597.35c-.5-3.82,0-6.83,1.33-9s3.66-3.49,6.84-3.89,5.74.26,7.65,2,3.1,4.56,3.6,8.38,0,6.85-1.36,9-3.69,3.49-6.88,3.9-5.7-.27-7.6-2S616.78,601.18,616.29,597.35ZM629,595.72a13.23,13.23,0,0,0-1.35-5,2.4,2.4,0,0,0-2.51-1.18,2.43,2.43,0,0,0-2.15,1.77,19.35,19.35,0,0,0,1.31,10.17,2.43,2.43,0,0,0,2.53,1.14,2.4,2.4,0,0,0,2.13-1.76A13,13,0,0,0,629,595.72Z" transform="translate(-370.97 -113.84)"/><path class="cls-4" d="M649.07,604.38l-1.66-12.87-5,.65-.59-4.59a8.26,8.26,0,0,0,4.42-1.71,5.2,5.2,0,0,0,1.41-3.77l5-.64,2.85,22.09Z" transform="translate(-370.97 -113.84)"/><path class="cls-4" d="M664.81,594.4l6-.77A3.66,3.66,0,0,0,672,596a3.09,3.09,0,0,0,2.41.51,3,3,0,0,0,2-.93,2.51,2.51,0,0,0,.47-2,2.08,2.08,0,0,0-1.09-1.74,5,5,0,0,0-2.83-.22l-.53.07-.49-3.8.44-.06a5,5,0,0,0,2.58-.91,1.93,1.93,0,0,0,.67-1.82,1.9,1.9,0,0,0-.83-1.45,2.82,2.82,0,0,0-1.9-.28,3.1,3.1,0,0,0-2,.87,2.54,2.54,0,0,0-.55,1.93l-5.94.76a6.93,6.93,0,0,1,1.8-5.73,9.82,9.82,0,0,1,6.18-2.87,9.92,9.92,0,0,1,6.35,1,5.65,5.65,0,0,1,2.89,4.38,5.22,5.22,0,0,1-.27,2.65,4.55,4.55,0,0,1-1.6,2,4.3,4.3,0,0,1,2.49,1.51,6.08,6.08,0,0,1,1.15,3,6.89,6.89,0,0,1-1.79,6,10.83,10.83,0,0,1-6.72,2.93,9.52,9.52,0,0,1-6.82-1.31,7.51,7.51,0,0,1-3.18-5.53Z" transform="translate(-370.97 -113.84)"/><path class="cls-4" d="M687.87,588.13c-.49-3.83,0-6.83,1.33-9s3.67-3.48,6.84-3.89,5.74.26,7.65,2,3.1,4.55,3.6,8.38,0,6.85-1.36,9-3.69,3.49-6.88,3.91-5.7-.28-7.59-2.05S688.36,592,687.87,588.13Zm12.69-1.64a13.14,13.14,0,0,0-1.34-5,2.61,2.61,0,0,0-4.67.58,13.39,13.39,0,0,0,0,5.18,13.16,13.16,0,0,0,1.34,5,2.42,2.42,0,0,0,2.53,1.15,2.39,2.39,0,0,0,2.13-1.76A13.05,13.05,0,0,0,700.56,586.49Z" transform="translate(-370.97 -113.84)"/><path class="cls-4" d="M724.46,585.37a5.67,5.67,0,0,1-2,1.48,9.16,9.16,0,0,1-2.74.77,7.77,7.77,0,0,1-5.81-1.26,7,7,0,0,1-2.76-5,7.4,7.4,0,0,1,1.68-6.1,9.91,9.91,0,0,1,6.41-3q4.94-.64,7.84,2t3.64,8.33c.47,3.68,0,6.67-1.54,9a9.23,9.23,0,0,1-6.94,4,9.88,9.88,0,0,1-6-.87,7.15,7.15,0,0,1-3.49-4.15l6-1a2.51,2.51,0,0,0,1.11,1.22,3.13,3.13,0,0,0,4-1.35A7.65,7.65,0,0,0,724.46,585.37Zm-.94-5.57a3,3,0,0,0-1.07-2.1,2.87,2.87,0,0,0-2.26-.52,2.82,2.82,0,0,0-2,1.07,3,3,0,0,0-.5,2.25,3,3,0,0,0,1.05,2.11,2.74,2.74,0,0,0,2.2.52,3,3,0,0,0,2.06-1.07A2.92,2.92,0,0,0,723.52,579.8Z" transform="translate(-370.97 -113.84)"/><path class="cls-4" d="M744.51,592.08l-1.66-12.86-5,.64-.59-4.59a8.26,8.26,0,0,0,4.42-1.71,5.16,5.16,0,0,0,1.41-3.77l5-.64L751,591.24Z" transform="translate(-370.97 -113.84)"/><path class="cls-4" d="M766,576.11a6,6,0,0,1,2-1.47,9,9,0,0,1,2.75-.76,7.75,7.75,0,0,1,5.8,1.25,7,7,0,0,1,2.75,5,7.36,7.36,0,0,1-1.68,6.12,9.84,9.84,0,0,1-6.39,3c-3.29.43-5.9-.23-7.83-2s-3.14-4.52-3.63-8.36q-.72-5.52,1.52-8.94a9.19,9.19,0,0,1,6.94-4,10,10,0,0,1,6,.87,7.22,7.22,0,0,1,3.5,4.16l-6.08,1a2.47,2.47,0,0,0-1.09-1.22,2.77,2.77,0,0,0-1.7-.25,2.86,2.86,0,0,0-2.35,1.6A7.63,7.63,0,0,0,766,576.11Zm.93,5.59a3,3,0,0,0,1.07,2.08,2.91,2.91,0,0,0,2.27.52,2.86,2.86,0,0,0,2-1.07,3,3,0,0,0,.5-2.26,3.08,3.08,0,0,0-1-2.1,2.86,2.86,0,0,0-2.21-.53,3,3,0,0,0-2.07,1.09A2.94,2.94,0,0,0,766.9,581.7Z" transform="translate(-370.97 -113.84)"/><path class="cls-4" d="M783.31,575.83c-.49-3.83,0-6.83,1.34-9s3.66-3.48,6.84-3.89,5.74.26,7.64,2,3.11,4.55,3.6,8.38,0,6.85-1.35,9-3.69,3.49-6.88,3.91-5.71-.28-7.6-2S783.81,579.66,783.31,575.83Zm12.7-1.64a13.11,13.11,0,0,0-1.35-5,2.6,2.6,0,0,0-4.66.58,13.13,13.13,0,0,0,0,5.18,12.94,12.94,0,0,0,1.35,5,2.62,2.62,0,0,0,4.66-.61A13.25,13.25,0,0,0,796,574.19Z" transform="translate(-370.97 -113.84)"/><path class="cls-4" d="M808,576l6-.78a3.61,3.61,0,0,0,1.14,2.34,3.1,3.1,0,0,0,2.41.51,3,3,0,0,0,2-.93,2.51,2.51,0,0,0,.47-2,2.09,2.09,0,0,0-1.08-1.74,5,5,0,0,0-2.83-.22l-.54.07-.49-3.8.45-.06a5.11,5.11,0,0,0,2.58-.91,2.15,2.15,0,0,0-.17-3.27,2.78,2.78,0,0,0-1.89-.28,3.06,3.06,0,0,0-2,.87,2.53,2.53,0,0,0-.55,1.92l-5.94.77a6.93,6.93,0,0,1,1.81-5.73,9.76,9.76,0,0,1,6.17-2.87,9.91,9.91,0,0,1,6.35,1,5.66,5.66,0,0,1,2.9,4.38,5.21,5.21,0,0,1-.28,2.65,4.4,4.4,0,0,1-1.6,2,4.42,4.42,0,0,1,2.5,1.52,6,6,0,0,1,1.14,3,6.88,6.88,0,0,1-1.78,5.95,10.88,10.88,0,0,1-6.72,2.93,9.5,9.5,0,0,1-6.83-1.32A7.5,7.5,0,0,1,808,576.4Z" transform="translate(-370.97 -113.84)"/></g></g></svg>